<?xml version="1.0" encoding="UTF-8" standalone="no"?>
<!-- Created with Inkscape (http://www.inkscape.org/) -->

<svg
   xmlns:dc="http://purl.org/dc/elements/1.1/"
   xmlns:cc="http://creativecommons.org/ns#"
   xmlns:rdf="http://www.w3.org/1999/02/22-rdf-syntax-ns#"
   xmlns:svg="http://www.w3.org/2000/svg"
   xmlns="http://www.w3.org/2000/svg"
   xmlns:sodipodi="http://sodipodi.sourceforge.net/DTD/sodipodi-0.dtd"
   xmlns:inkscape="http://www.inkscape.org/namespaces/inkscape"
   width="830.2207mm"
   height="93.896034mm"
   viewBox="0 0 830.2207 93.896034"
   version="1.1"
   id="svg8"
   inkscape:version="0.92.2 (5c3e80d, 2017-08-06)"
   sodipodi:docname="BasicSimulation_ppt_prefilterNotNecessaryTime.svg">
  <defs
     id="defs2" />
  <sodipodi:namedview
     id="base"
     pagecolor="#ffffff"
     bordercolor="#666666"
     borderopacity="1.0"
     inkscape:pageopacity="0.0"
     inkscape:pageshadow="2"
     inkscape:zoom="0.24748737"
     inkscape:cx="1533.0999"
     inkscape:cy="336.64827"
     inkscape:document-units="mm"
     inkscape:current-layer="layer1"
     showgrid="false"
     inkscape:window-width="1366"
     inkscape:window-height="705"
     inkscape:window-x="-8"
     inkscape:window-y="-8"
     inkscape:window-maximized="1"
     fit-margin-top="0"
     fit-margin-left="0"
     fit-margin-right="0"
     fit-margin-bottom="0" />
  <metadata
     id="metadata5">
    <rdf:RDF>
      <cc:Work
         rdf:about="">
        <dc:format>image/svg+xml</dc:format>
        <dc:type
           rdf:resource="http://purl.org/dc/dcmitype/StillImage" />
        <dc:title></dc:title>
      </cc:Work>
    </rdf:RDF>
  </metadata>
  <g
     inkscape:label="Layer 1"
     inkscape:groupmode="layer"
     id="layer1"
     transform="translate(369.10527,-324.57564)">
    <path
       style="fill:#000000;stroke-width:0.26458335"
       d="m 95.527387,417.83469 c -0.32742,-0.3497 -0.59531,-0.79238 -0.59531,-0.98374 0,-0.19136 -0.23813,-0.51955 -0.52917,-0.72932 -0.29104,-0.20977 -0.52917,-0.56696 -0.52917,-0.79375 0,-0.22679 -0.23812,-0.58398 -0.52916,-0.79375 -0.29104,-0.20977 -0.52917,-0.56696 -0.52917,-0.79375 0,-0.22679 -0.23812,-0.58398 -0.52917,-0.79375 -0.29104,-0.20977 -0.52916,-0.56696 -0.52916,-0.79375 0,-0.22679 -0.23813,-0.58398 -0.52917,-0.79375 -0.29104,-0.20978 -0.52917,-0.56696 -0.52917,-0.79375 0,-0.22679 -0.23812,-0.58398 -0.529164,-0.79375 -0.29104,-0.20978 -0.52917,-0.56696 -0.52917,-0.79375 0,-0.22679 -0.23812,-0.58398 -0.52917,-0.79375 -0.29104,-0.20978 -0.52916,-0.56696 -0.52916,-0.79375 0,-0.22679 -0.23813,-0.58398 -0.52917,-0.79375 -0.29104,-0.20978 -0.52917,-0.56696 -0.52917,-0.79375 0,-0.22679 -0.23812,-0.58398 -0.529165,-0.79375 -0.29104,-0.20978 -0.52917,-0.56696 -0.52917,-0.79375 0,-0.22679 -0.23812,-0.58398 -0.52917,-0.79375 -0.29104,-0.20978 -0.52916,-0.56696 -0.52916,-0.79375 0,-0.22679 -0.23813,-0.58398 -0.52917,-0.79375 -0.29104,-0.20978 -0.52917,-0.56696 -0.52917,-0.79375 0,-0.22679 -0.23812,-0.58398 -0.52916,-0.79375 -0.29104,-0.20978 -0.52917,-0.59325 -0.52917,-0.85216 0,-0.83019 -0.79301,-0.5068 -2.13447,0.87043 -1.176,1.20734 -1.347,1.30055 -1.7136,0.93395 -0.36658,-0.36659 -0.12843,-0.68603 2.38635,-3.20082 l 2.79358,-2.79359 0.65699,0.65698 c 0.36134,0.36134 0.65698,0.81471 0.65698,1.00748 0,0.19277 0.23813,0.52212 0.52917,0.73189 0.29104,0.20978 0.52917,0.56696 0.52917,0.79375 0,0.22679 0.238125,0.58398 0.529165,0.79375 0.29105,0.20978 0.52917,0.56696 0.52917,0.79375 0,0.22679 0.23813,0.58398 0.52917,0.79375 0.29104,0.20978 0.52916,0.56696 0.52916,0.79375 0,0.22679 0.23813,0.58398 0.52917,0.79375 0.29104,0.20978 0.52917,0.56696 0.52917,0.79375 0,0.22679 0.238124,0.58398 0.529164,0.79375 0.29105,0.20978 0.52917,0.56696 0.52917,0.79375 0,0.22679 0.23813,0.58398 0.52917,0.79375 0.29104,0.20978 0.52916,0.56696 0.52916,0.79375 0,0.22679 0.23813,0.58398 0.52917,0.79375 0.29104,0.20978 0.52917,0.56696 0.52917,0.79375 0,0.22679 0.23812,0.58398 0.52916,0.79375 0.29105,0.20978 0.52917,0.56696 0.52917,0.79375 0,0.22679 0.23813,0.58398 0.52917,0.79375 0.29104,0.20978 0.52916,0.56696 0.52916,0.79375 0,0.22679 0.23813,0.58398 0.52917,0.79375 0.29104,0.20978 0.52917,0.54222 0.52917,0.73877 0,0.19655 0.17859,0.53596 0.39687,0.75424 0.35277,0.35278 0.44098,0.35278 0.79375,0 0.21828,-0.21828 0.39688,-0.70304 0.39688,-1.07723 0,-0.3742 0.11906,-0.68036 0.26458,-0.68036 0.14552,0 0.26458,-0.23812 0.26458,-0.52917 0,-0.29104 0.11907,-0.52916 0.26459,-0.52916 0.14552,0 0.26458,-0.35719 0.26458,-0.79375 0,-0.43657 0.11906,-0.79375 0.26458,-0.79375 0.14553,0 0.26459,-0.35719 0.26459,-0.79375 0,-0.43657 0.11906,-0.79375 0.26458,-0.79375 0.145523,0 0.264583,-0.23813 0.264583,-0.52917 0,-0.29104 0.11907,-0.52917 0.26459,-0.52917 0.14552,0 0.26458,-0.35718 0.26458,-0.79375 0,-0.43656 0.11906,-0.79375 0.26458,-0.79375 0.14553,0 0.26459,-0.35718 0.26459,-0.79375 0,-0.43656 0.11906,-0.79375 0.26458,-0.79375 0.14552,0 0.26458,-0.35718 0.26458,-0.79375 0,-0.43656 0.11907,-0.79375 0.26459,-0.79375 0.14552,0 0.26458,-0.23812 0.26458,-0.52916 0,-0.29104 0.11906,-0.52917 0.26458,-0.52917 0.14553,0 0.26459,-0.35719 0.26459,-0.79375 0,-0.43656 0.11906,-0.79375 0.26458,-0.79375 0.14552,0 0.26458,-0.35719 0.26458,-0.79375 0,-0.43656 0.11907,-0.79375 0.26459,-0.79375 0.14552,0 0.26458,-0.23813 0.26458,-0.52917 0,-0.29104 0.11906,-0.52916 0.26458,-0.52916 0.14553,0 0.26459,-0.35719 0.26459,-0.79375 0,-0.43657 0.11906,-0.79375 0.26458,-0.79375 0.14552,0 0.26458,-0.35719 0.26458,-0.79375 0,-0.43657 0.11907,-0.79375 0.26459,-0.79375 0.14552,0 0.26458,-0.23813 0.26458,-0.52917 0,-0.29104 0.11906,-0.52917 0.26458,-0.52917 0.14553,0 0.26459,-0.35718 0.26459,-0.79375 0,-0.43656 0.11906,-0.79375 0.26458,-0.79375 0.14552,0 0.26458,-0.35718 0.26458,-0.79375 0,-0.43656 0.11907,-0.79375 0.26459,-0.79375 0.14552,0 0.26458,-0.23812 0.26458,-0.52916 0,-0.29105 0.11906,-0.52917 0.26458,-0.52917 0.14553,0 0.26459,-0.35719 0.26459,-0.79375 0,-0.43656 0.11906,-0.79375 0.26458,-0.79375 0.14552,0 0.26458,-0.35719 0.26458,-0.79375 0,-0.43656 0.11907,-0.79375 0.26459,-0.79375 0.14552,0 0.26458,-0.35719 0.26458,-0.79375 0,-0.43656 0.11906,-0.79375 0.26458,-0.79375 0.14553,0 0.26459,-0.23813 0.26459,-0.52917 0,-0.29104 0.11906,-0.52916 0.26458,-0.52916 0.14552,0 0.26458,-0.35719 0.26458,-0.79375 0,-0.43657 0.11907,-0.79375 0.26459,-0.79375 0.14552,0 0.26458,-0.35719 0.26458,-0.79375 0,-0.43657 0.11906,-0.79375 0.26458,-0.79375 0.14553,0 0.26459,-0.23813 0.26459,-0.52917 0,-0.29104 0.11906,-0.52917 0.26458,-0.52917 0.14552,0 0.26458,-0.35719 0.26458,-0.79375 0,-0.43656 0.11907,-0.79375 0.26459,-0.79375 0.14552,0 0.26458,-0.34161 0.26458,-0.75913 0,-0.67167 0.1143,-0.77802 0.99219,-0.92313 0.5457,-0.0902 9.71351,-0.16531 20.37292,-0.16691 l 19.38072,-0.003 v 0.66146 0.66146 h -19.57916 c -19.40277,0 -19.57917,0.005 -19.57917,0.52916 0,0.29104 -0.11906,0.52917 -0.26458,0.52917 -0.14552,0 -0.26459,0.23812 -0.26459,0.52917 0,0.29104 -0.11906,0.52916 -0.26458,0.52916 -0.14552,0 -0.26458,0.35719 -0.26458,0.79375 0,0.43656 -0.11906,0.79375 -0.26459,0.79375 -0.14552,0 -0.26458,0.35719 -0.26458,0.79375 0,0.43657 -0.11906,0.79375 -0.26458,0.79375 -0.14552,0 -0.26459,0.23813 -0.26459,0.52917 0,0.29104 -0.11906,0.52917 -0.26458,0.52917 -0.14552,0 -0.26458,0.35718 -0.26458,0.79375 0,0.43656 -0.11906,0.79375 -0.26459,0.79375 -0.14552,0 -0.26458,0.35718 -0.26458,0.79375 0,0.43656 -0.11906,0.79375 -0.26458,0.79375 -0.14552,0 -0.26459,0.23812 -0.26459,0.52916 0,0.29104 -0.11906,0.52917 -0.26458,0.52917 -0.14552,0 -0.26458,0.35719 -0.26458,0.79375 0,0.43656 -0.11906,0.79375 -0.26459,0.79375 -0.14552,0 -0.26458,0.35719 -0.26458,0.79375 0,0.43656 -0.11906,0.79375 -0.26458,0.79375 -0.14552,0 -0.26459,0.23812 -0.26459,0.52917 0,0.29104 -0.11906,0.52916 -0.26458,0.52916 -0.14552,0 -0.26458,0.35719 -0.26458,0.79375 0,0.43657 -0.11906,0.79375 -0.26459,0.79375 -0.14552,0 -0.26458,0.35719 -0.26458,0.79375 0,0.43657 -0.11906,0.79375 -0.26458,0.79375 -0.14552,0 -0.26459,0.35719 -0.26459,0.79375 0,0.43657 -0.11906,0.79375 -0.26458,0.79375 -0.14552,0 -0.26458,0.23813 -0.26458,0.52917 0,0.29104 -0.11906,0.52917 -0.26459,0.52917 -0.14552,0 -0.26458,0.35718 -0.26458,0.79375 0,0.43656 -0.11906,0.79375 -0.26458,0.79375 -0.14552,0 -0.26459,0.35718 -0.26459,0.79375 0,0.43656 -0.11906,0.79375 -0.26458,0.79375 -0.14552,0 -0.26458,0.23812 -0.26458,0.52916 0,0.29105 -0.11906,0.52917 -0.26459,0.52917 -0.14552,0 -0.26458,0.35719 -0.26458,0.79375 0,0.43656 -0.11906,0.79375 -0.26458,0.79375 -0.14552,0 -0.26459,0.35719 -0.26459,0.79375 0,0.43656 -0.11906,0.79375 -0.26458,0.79375 -0.14552,0 -0.26458,0.23813 -0.26458,0.52917 0,0.29104 -0.11906,0.52916 -0.26459,0.52916 -0.14552,0 -0.26458,0.35719 -0.26458,0.79375 0,0.43657 -0.11906,0.79375 -0.26458,0.79375 -0.14552,0 -0.26459,0.35719 -0.26459,0.79375 0,0.43657 -0.11906,0.79375 -0.26458,0.79375 -0.14552,0 -0.26458,0.23813 -0.26458,0.52917 0,0.29104 -0.11906,0.52917 -0.26459,0.52917 -0.14552,0 -0.26458,0.35718 -0.26458,0.79375 0,0.43656 -0.11906,0.79375 -0.26458,0.79375 -0.14552,0 -0.26459,0.35718 -0.26459,0.79375 0,0.43656 -0.11906,0.79375 -0.264583,0.79375 -0.14552,0 -0.26458,0.35718 -0.26458,0.79375 0,0.43656 -0.11906,0.79375 -0.26459,0.79375 -0.14552,0 -0.26458,0.23812 -0.26458,0.52916 0,0.29105 -0.11906,0.52917 -0.26458,0.52917 -0.14552,0 -0.26459,0.35719 -0.26459,0.79375 0,0.43656 -0.11906,0.79375 -0.26458,0.79375 -0.14552,0 -0.26458,0.30616 -0.26458,0.68036 0,1.44852 -1.51913,1.90085 -2.57969,0.76812 z m 43.328253,-6.82362 c -1.35041,-0.43005 -3.00789,-2.22606 -3.73042,-4.04221 -0.56692,-1.42509 -0.62174,-1.95936 -0.62174,-6.06077 0,-4.01611 0.0623,-4.6538 0.58184,-5.95313 1.12036,-2.80204 2.90214,-4.29469 5.54511,-4.64529 3.10571,-0.41199 6.01248,1.39847 7.24588,4.513 0.57627,1.45521 0.62805,1.96231 0.6214,6.08542 -0.007,4.0866 -0.064,4.64083 -0.62724,6.06077 -0.75827,1.9115 -2.38993,3.617 -3.88888,4.06487 -1.31323,0.39238 -3.85799,0.38113 -5.12595,-0.0227 z m 4.53879,-1.1733 c 1.77459,-1.04446 2.33244,-3.23517 2.33564,-9.1726 0.003,-4.77004 -0.34695,-6.80946 -1.36602,-7.97012 -1.46516,-1.66873 -3.72099,-1.80605 -5.40337,-0.32891 -1.23241,1.08209 -1.45995,2.07794 -1.61923,7.08674 -0.21002,6.60537 0.32099,9.10027 2.2007,10.33947 0.96901,0.63882 2.80723,0.66049 3.85228,0.0454 z m -26.7136,-5.41073 c -0.17463,-0.17462 -0.3175,-0.56975 -0.3175,-0.87805 0,-0.30831 0.7739,-3.69937 1.71979,-7.5357 2.09034,-8.47803 2.19527,-10.31875 0.58819,-10.31875 -0.97289,0 -1.9713,1.4069 -2.7047,3.8113 -0.67858,2.22472 -1.26775,3.0058 -1.71791,2.27743 -0.28205,-0.45639 0.57761,-3.37479 1.48548,-5.04283 0.84626,-1.55485 1.71637,-2.10423 3.33271,-2.10423 1.46034,0 2.95773,0.9764 3.40831,2.22248 l 0.32729,0.90513 1.14443,-1.14443 c 1.47841,-1.4784 3.05411,-2.08808 4.98314,-1.92811 2.36585,0.19619 3.68503,1.83812 3.04204,3.78636 -0.77433,2.3462 -3.96711,2.26252 -3.96711,-0.10398 0,-0.87652 0.96753,-2.14603 1.64161,-2.154 0.2445,-0.003 0.229,-0.0776 -0.0541,-0.26053 -1.62104,-1.0476 -5.03475,0.9206 -6.51195,3.7545 -0.25103,0.48164 -1.198,3.82933 -2.10433,7.43931 -0.98629,3.92832 -1.83468,6.76998 -2.11307,7.07761 -0.52044,0.57508 -1.69773,0.68108 -2.18231,0.19649 z m 294.42833,-19.79083 c 0,-0.29104 0.11906,-0.52917 0.26458,-0.52917 0.14552,0 0.26458,-0.35718 0.26458,-0.79375 0,-0.43656 0.11907,-0.79375 0.26459,-0.79375 0.14552,0 0.26458,-0.23812 0.26458,-0.52916 0,-0.29105 0.11906,-0.52917 0.26458,-0.52917 0.14553,0 0.26459,-0.35719 0.26459,-0.79375 0,-0.43656 0.11906,-0.79375 0.26458,-0.79375 0.14552,0 0.26458,-0.35719 0.26458,-0.79375 0,-0.43656 0.11907,-0.79375 0.26459,-0.79375 0.14552,0 0.26458,-0.23813 0.26458,-0.52917 0,-0.29104 0.11906,-0.52916 0.26458,-0.52916 0.14553,0 0.26459,-0.35719 0.26459,-0.79375 0,-0.43657 0.11906,-0.79375 0.26458,-0.79375 0.14552,0 0.26458,-0.35719 0.26458,-0.79375 0,-0.43657 0.11907,-0.79375 0.26459,-0.79375 0.14552,0 0.26458,-0.23813 0.26458,-0.52917 0,-0.29104 0.11906,-0.52917 0.26458,-0.52917 0.14553,0 0.26459,-0.35719 0.26459,-0.79375 0,-0.43656 0.11906,-0.79375 0.26458,-0.79375 0.14552,0 0.26458,-0.35719 0.26458,-0.79375 0,-0.43656 0.11907,-0.79375 0.26459,-0.79375 0.14552,0 0.26458,-0.23812 0.26458,-0.52916 0,-0.29105 0.11906,-0.52917 0.26458,-0.52917 0.14553,0 0.26459,-0.35719 0.26459,-0.79375 0,-0.43656 0.11906,-0.79375 0.26458,-0.79375 0.14552,0 0.26458,-0.35719 0.26458,-0.79375 0,-0.43656 0.11907,-0.79375 0.26459,-0.79375 0.14552,0 0.26458,-0.23813 0.26458,-0.52917 0,-0.29104 0.11906,-0.52916 0.26458,-0.52916 0.14553,0 0.26459,-0.35719 0.26459,-0.79375 0,-0.43657 0.11906,-0.79375 0.26458,-0.79375 0.14552,0 0.26458,-0.35719 0.26458,-0.79375 0,-0.43657 0.11907,-0.79375 0.26459,-0.79375 0.14552,0 0.26458,-0.23813 0.26458,-0.52917 0,-0.29104 0.11906,-0.52917 0.26458,-0.52917 0.14553,0 0.26459,-0.35719 0.26459,-0.79375 0,-0.43656 0.11906,-0.79375 0.26458,-0.79375 0.14552,0 0.26458,-0.35719 0.26458,-0.79375 0,-0.43656 0.11907,-0.79375 0.26459,-0.79375 0.14552,0 0.26458,-0.23812 0.26458,-0.52917 0,-0.29104 0.11906,-0.52916 0.26458,-0.52916 0.14553,0 0.26459,-0.35719 0.26459,-0.79375 0,-0.43656 0.11906,-0.79375 0.26458,-0.79375 0.14552,0 0.26458,-0.35719 0.26458,-0.79375 0,-0.43656 0.11907,-0.79375 0.26459,-0.79375 0.14552,0 0.26458,-0.23813 0.26458,-0.52917 0,-0.29104 0.11906,-0.52917 0.26458,-0.52917 0.14553,0 0.26459,-0.35718 0.26459,-0.79375 0,-0.43656 0.11906,-0.79375 0.26458,-0.79375 0.14552,0 0.26458,-0.35718 0.26458,-0.79375 0,-0.43656 0.11907,-0.79375 0.26459,-0.79375 0.14552,0 0.26458,-0.23812 0.26458,-0.52916 0,-0.29104 0.11906,-0.52917 0.26458,-0.52917 0.14553,0 0.26459,-0.35719 0.26459,-0.79375 0,-0.43656 0.11906,-0.79375 0.26458,-0.79375 0.14552,0 0.26458,-0.35719 0.26458,-0.79375 0,-0.43656 0.11907,-0.79375 0.26459,-0.79375 0.14552,0 0.26458,-0.23812 0.26458,-0.52917 0,-0.29104 0.11906,-0.52916 0.26458,-0.52916 0.14553,0 0.26459,-0.30616 0.26459,-0.68036 0,-0.86796 0.56835,-1.43631 1.43631,-1.43631 0.50396,0 0.68035,0.13719 0.68035,0.52917 0,0.29104 -0.11906,0.52916 -0.26458,0.52916 -0.14552,0 -0.26458,0.35719 -0.26458,0.79375 0,0.43657 -0.11906,0.79375 -0.26459,0.79375 -0.14552,0 -0.26458,0.23813 -0.26458,0.52917 0,0.29104 -0.11906,0.52917 -0.26458,0.52917 -0.14552,0 -0.26459,0.35719 -0.26459,0.79375 0,0.43656 -0.11906,0.79375 -0.26458,0.79375 -0.14552,0 -0.26458,0.35719 -0.26458,0.79375 0,0.43656 -0.11906,0.79375 -0.26459,0.79375 -0.14552,0 -0.26458,0.23812 -0.26458,0.52916 0,0.29105 -0.11906,0.52917 -0.26458,0.52917 -0.14552,0 -0.26459,0.35719 -0.26459,0.79375 0,0.43656 -0.11906,0.79375 -0.26458,0.79375 -0.14552,0 -0.26458,0.35719 -0.26458,0.79375 0,0.43656 -0.11906,0.79375 -0.26459,0.79375 -0.14552,0 -0.26458,0.23813 -0.26458,0.52917 0,0.29104 -0.11906,0.52916 -0.26458,0.52916 -0.14552,0 -0.26459,0.35719 -0.26459,0.79375 0,0.43657 -0.11906,0.79375 -0.26458,0.79375 -0.14552,0 -0.26458,0.35719 -0.26458,0.79375 0,0.43657 -0.11906,0.79375 -0.26459,0.79375 -0.14552,0 -0.26458,0.23813 -0.26458,0.52917 0,0.29104 -0.11906,0.52917 -0.26458,0.52917 -0.14552,0 -0.26459,0.35719 -0.26459,0.79375 0,0.43656 -0.11906,0.79375 -0.26458,0.79375 -0.14552,0 -0.26458,0.35719 -0.26458,0.79375 0,0.43656 -0.11906,0.79375 -0.26459,0.79375 -0.14552,0 -0.26458,0.23812 -0.26458,0.52917 0,0.29104 -0.11906,0.52916 -0.26458,0.52916 -0.14552,0 -0.26459,0.35719 -0.26459,0.79375 0,0.43656 -0.11906,0.79375 -0.26458,0.79375 -0.14552,0 -0.26458,0.35719 -0.26458,0.79375 0,0.43656 -0.11906,0.79375 -0.26459,0.79375 -0.14552,0 -0.26458,0.23813 -0.26458,0.52917 0,0.29104 -0.11906,0.52917 -0.26458,0.52917 -0.14552,0 -0.26459,0.35718 -0.26459,0.79375 0,0.43656 -0.11906,0.79375 -0.26458,0.79375 -0.14552,0 -0.26458,0.35718 -0.26458,0.79375 0,0.43656 -0.11906,0.79375 -0.26459,0.79375 -0.14552,0 -0.26458,0.23812 -0.26458,0.52916 0,0.29104 -0.11906,0.52917 -0.26458,0.52917 -0.14552,0 -0.26459,0.35719 -0.26459,0.79375 0,0.43656 -0.11906,0.79375 -0.26458,0.79375 -0.14552,0 -0.26458,0.35719 -0.26458,0.79375 0,0.43656 -0.11906,0.79375 -0.26459,0.79375 -0.14552,0 -0.26458,0.23812 -0.26458,0.52917 0,0.29104 -0.11906,0.52916 -0.26458,0.52916 -0.14552,0 -0.26459,0.35719 -0.26459,0.79375 0,0.43656 -0.11906,0.79375 -0.26458,0.79375 -0.14552,0 -0.26458,0.35719 -0.26458,0.79375 0,0.43656 -0.11906,0.79375 -0.26459,0.79375 -0.14552,0 -0.26458,0.23813 -0.26458,0.52917 0,0.29104 -0.11906,0.52917 -0.26458,0.52917 -0.14552,0 -0.26459,0.35718 -0.26459,0.79375 0,0.43656 -0.11906,0.79375 -0.26458,0.79375 -0.14552,0 -0.26458,0.35718 -0.26458,0.79375 0,0.43656 -0.11906,0.79375 -0.26459,0.79375 -0.14552,0 -0.26458,0.23812 -0.26458,0.52916 0,0.29104 -0.11906,0.52917 -0.26458,0.52917 -0.14552,0 -0.26459,0.30616 -0.26459,0.68036 0,0.86795 -0.56835,1.43631 -1.43631,1.43631 -0.50395,0 -0.68035,-0.1372 -0.68035,-0.52917 z m -668.53593,-2.26604 c -1.20055,-1.22362 -2.18281,-2.37867 -2.18281,-2.56679 0,-0.18811 -0.23813,-0.51365 -0.52917,-0.72342 -0.29104,-0.20977 -0.52917,-0.59324 -0.52917,-0.85216 0,-0.25892 -0.11906,-0.47076 -0.26458,-0.47076 -0.14552,0 -0.26458,-0.23812 -0.26458,-0.52916 0,-0.29105 -0.11907,-0.52917 -0.26459,-0.52917 -0.14552,0 -0.26458,-0.23813 -0.26458,-0.52917 0,-0.29104 -0.11906,-0.52916 -0.26458,-0.52916 -0.14553,0 -0.26459,-0.35719 -0.26459,-0.79375 0,-0.43657 -0.11906,-0.79375 -0.26458,-0.79375 -0.14552,0 -0.26458,-0.35719 -0.26458,-0.79375 0,-0.43657 -0.11907,-0.79375 -0.26459,-0.79375 -0.14552,0 -0.26458,-0.35719 -0.26458,-0.79375 0,-0.43657 -0.11906,-0.79375 -0.26458,-0.79375 -0.147,0 -0.26459,-0.70556 -0.26459,-1.5875 0,-0.88195 -0.11759,-1.5875 -0.26458,-1.5875 -0.16659,0 -0.26458,-1.76389 -0.26458,-4.7625 0,-2.99862 0.098,-4.76251 0.26458,-4.76251 0.14699,0 0.26458,-0.70555 0.26458,-1.5875 0,-0.88194 0.11759,-1.5875 0.26459,-1.5875 0.14552,0 0.26458,-0.35718 0.26458,-0.79375 0,-0.43656 0.11906,-0.79375 0.26458,-0.79375 0.14552,0 0.26459,-0.35718 0.26459,-0.79375 0,-0.43656 0.11906,-0.79375 0.26458,-0.79375 0.14552,0 0.26458,-0.35718 0.26458,-0.79375 0,-0.43656 0.11906,-0.79375 0.26459,-0.79375 0.14552,0 0.26458,-0.23812 0.26458,-0.52916 0,-0.29104 0.11906,-0.52917 0.26458,-0.52917 0.14552,0 0.26459,-0.23812 0.26459,-0.52917 0,-0.29104 0.11906,-0.52916 0.26458,-0.52916 0.14552,0 0.26458,-0.21184 0.26458,-0.47076 0,-0.25892 0.23813,-0.64239 0.52917,-0.85216 0.29104,-0.20977 0.52917,-0.53541 0.52917,-0.72364 0,-0.48131 4.40388,-4.83261 4.891,-4.83261 0.71383,0 0.42582,0.81106 -0.65768,1.85208 -0.58208,0.55927 -1.05833,1.1785 -1.05833,1.37606 0,0.19756 -0.23812,0.53084 -0.52917,0.74061 -0.29103,0.20977 -0.52916,0.56696 -0.52916,0.79375 0,0.22679 -0.23812,0.58398 -0.52916,0.79375 -0.29105,0.20977 -0.52917,0.59324 -0.52917,0.85216 0,0.25892 -0.11906,0.47076 -0.26458,0.47076 -0.14553,0 -0.26459,0.35719 -0.26459,0.79375 0,0.43656 -0.11906,0.79375 -0.26458,0.79375 -0.14552,0 -0.26458,0.23812 -0.26458,0.52916 0,0.29105 -0.11907,0.52917 -0.26459,0.52917 -0.14552,0 -0.26458,0.35719 -0.26458,0.79375 0,0.43656 -0.11906,0.79375 -0.26458,0.79375 -0.14553,0 -0.26459,0.59531 -0.26459,1.32292 0,0.7276 -0.11906,1.32291 -0.26458,1.32291 -0.14699,0 -0.26458,0.70556 -0.26458,1.5875 0,0.88195 -0.1176,1.5875 -0.26459,1.5875 -0.16659,0 -0.26458,1.76389 -0.26458,4.76251 0,2.99861 0.098,4.7625 0.26458,4.7625 0.14699,0 0.26459,0.70555 0.26459,1.5875 0,0.88194 0.11759,1.5875 0.26458,1.5875 0.14552,0 0.26458,0.59531 0.26458,1.32291 0,0.72761 0.11906,1.32292 0.26459,1.32292 0.14552,0 0.26458,0.35719 0.26458,0.79375 0,0.43656 0.11906,0.79375 0.26458,0.79375 0.14552,0 0.26459,0.23812 0.26459,0.52917 0,0.29104 0.11906,0.52916 0.26458,0.52916 0.14552,0 0.26458,0.35719 0.26458,0.79375 0,0.43656 0.11906,0.79375 0.26459,0.79375 0.14552,0 0.26458,0.21184 0.26458,0.47076 0,0.25892 0.23812,0.64239 0.52917,0.85216 0.29104,0.20977 0.52916,0.56696 0.52916,0.79375 0,0.22679 0.23813,0.58398 0.52916,0.79375 0.29105,0.20977 0.52917,0.54305 0.52917,0.74061 0,0.19756 0.47625,0.81679 1.05833,1.37606 0.58209,0.55926 1.05834,1.20477 1.05834,1.43446 0,0.89007 -1.01287,0.28785 -3.10885,-1.84842 z m 24.5401,1.84842 c 0,-0.22969 0.47625,-0.8752 1.05833,-1.43446 0.58208,-0.55927 1.05833,-1.1785 1.05833,-1.37606 0,-0.19756 0.23813,-0.53084 0.52917,-0.74061 0.29104,-0.20977 0.52917,-0.56696 0.52917,-0.79375 0,-0.22679 0.23812,-0.58398 0.52916,-0.79375 0.29105,-0.20977 0.52917,-0.59324 0.52917,-0.85216 0,-0.25892 0.11906,-0.47076 0.26458,-0.47076 0.14552,0 0.26459,-0.35719 0.26459,-0.79375 0,-0.43656 0.11906,-0.79375 0.26458,-0.79375 0.14552,0 0.26458,-0.23812 0.26458,-0.52916 0,-0.29105 0.11907,-0.52917 0.26459,-0.52917 0.14552,0 0.26458,-0.35719 0.26458,-0.79375 0,-0.43656 0.11906,-0.79375 0.26458,-0.79375 0.14552,0 0.26459,-0.59531 0.26459,-1.32292 0,-0.7276 0.11906,-1.32291 0.26458,-1.32291 0.14699,0 0.26458,-0.70556 0.26458,-1.5875 0,-0.88195 0.11759,-1.5875 0.26459,-1.5875 0.16659,0 0.26458,-1.76389 0.26458,-4.7625 0,-2.99862 -0.098,-4.76251 -0.26458,-4.76251 -0.147,0 -0.26459,-0.70555 -0.26459,-1.5875 0,-0.88194 -0.11759,-1.5875 -0.26458,-1.5875 -0.14552,0 -0.26458,-0.59531 -0.26458,-1.32291 0,-0.72761 -0.11907,-1.32292 -0.26459,-1.32292 -0.14552,0 -0.26458,-0.35719 -0.26458,-0.79375 0,-0.43656 -0.11906,-0.79375 -0.26458,-0.79375 -0.14552,0 -0.26459,-0.23812 -0.26459,-0.52917 0,-0.29104 -0.11906,-0.52916 -0.26458,-0.52916 -0.14552,0 -0.26458,-0.35719 -0.26458,-0.79375 0,-0.43656 -0.11907,-0.79375 -0.26459,-0.79375 -0.14552,0 -0.26458,-0.21184 -0.26458,-0.47076 0,-0.25892 -0.23812,-0.64239 -0.52917,-0.85216 -0.29104,-0.20977 -0.52916,-0.56696 -0.52916,-0.79375 0,-0.22679 -0.23813,-0.58398 -0.52917,-0.79375 -0.29104,-0.20977 -0.52917,-0.54305 -0.52917,-0.74061 0,-0.19756 -0.47625,-0.81679 -1.05833,-1.37606 -1.0835,-1.04102 -1.37151,-1.85208 -0.65768,-1.85208 0.48712,0 4.89101,4.3513 4.89101,4.83261 0,0.18823 0.23813,0.51387 0.52917,0.72364 0.29104,0.20977 0.52917,0.59324 0.52917,0.85216 0,0.25892 0.11906,0.47076 0.26458,0.47076 0.14552,0 0.26458,0.23812 0.26458,0.52916 0,0.29105 0.11907,0.52917 0.26459,0.52917 0.14552,0 0.26458,0.23813 0.26458,0.52917 0,0.29104 0.11906,0.52916 0.26458,0.52916 0.14552,0 0.26459,0.35719 0.26459,0.79375 0,0.43657 0.11906,0.79375 0.26458,0.79375 0.14552,0 0.26458,0.35719 0.26458,0.79375 0,0.43657 0.11907,0.79375 0.26459,0.79375 0.14552,0 0.26458,0.35719 0.26458,0.79375 0,0.43657 0.11906,0.79375 0.26458,0.79375 0.147,0 0.26459,0.70556 0.26459,1.5875 0,0.88195 0.11759,1.5875 0.26458,1.5875 0.16659,0 0.26458,1.76389 0.26458,4.76251 0,2.99861 -0.098,4.7625 -0.26458,4.7625 -0.14699,0 -0.26458,0.70555 -0.26458,1.5875 0,0.88194 -0.11759,1.5875 -0.26459,1.5875 -0.14552,0 -0.26458,0.35718 -0.26458,0.79375 0,0.43656 -0.11906,0.79375 -0.26458,0.79375 -0.14552,0 -0.26459,0.35718 -0.26459,0.79375 0,0.43656 -0.11906,0.79375 -0.26458,0.79375 -0.14552,0 -0.26458,0.35718 -0.26458,0.79375 0,0.43656 -0.11907,0.79375 -0.26459,0.79375 -0.14552,0 -0.26458,0.23812 -0.26458,0.52916 0,0.29104 -0.11906,0.52917 -0.26458,0.52917 -0.14552,0 -0.26459,0.23812 -0.26459,0.52917 0,0.29104 -0.11906,0.52916 -0.26458,0.52916 -0.14552,0 -0.26458,0.21184 -0.26458,0.47076 0,0.25892 -0.23813,0.64239 -0.52917,0.85216 -0.29104,0.20977 -0.52917,0.53541 -0.52917,0.72365 0,0.4813 -4.40389,4.8326 -4.89101,4.8326 -0.22036,0 -0.40065,-0.18793 -0.40065,-0.41762 z m 201.149468,-1.84842 c -1.20055,-1.22362 -2.18281,-2.37867 -2.18281,-2.56679 0,-0.18811 -0.23813,-0.51365 -0.52917,-0.72342 -0.29104,-0.20977 -0.52917,-0.59324 -0.52917,-0.85216 0,-0.25892 -0.11906,-0.47076 -0.26458,-0.47076 -0.14552,0 -0.26458,-0.23812 -0.26458,-0.52916 0,-0.29105 -0.11907,-0.52917 -0.26459,-0.52917 -0.14552,0 -0.26458,-0.23813 -0.26458,-0.52917 0,-0.29104 -0.11906,-0.52916 -0.26458,-0.52916 -0.14552,0 -0.26459,-0.35719 -0.26459,-0.79375 0,-0.43657 -0.11906,-0.79375 -0.26458,-0.79375 -0.14552,0 -0.26458,-0.35719 -0.26458,-0.79375 0,-0.43657 -0.11907,-0.79375 -0.26459,-0.79375 -0.14552,0 -0.26458,-0.35719 -0.26458,-0.79375 0,-0.43657 -0.11906,-0.79375 -0.26458,-0.79375 -0.14701,0 -0.26459,-0.70556 -0.26459,-1.5875 0,-0.88195 -0.11758,-1.5875 -0.26458,-1.5875 -0.16658,0 -0.26458,-1.76389 -0.26458,-4.7625 0,-2.99862 0.098,-4.76251 0.26458,-4.76251 0.147,0 0.26458,-0.70555 0.26458,-1.5875 0,-0.88194 0.11758,-1.5875 0.26459,-1.5875 0.14552,0 0.26458,-0.35718 0.26458,-0.79375 0,-0.43656 0.11906,-0.79375 0.26458,-0.79375 0.14552,0 0.26459,-0.35718 0.26459,-0.79375 0,-0.43656 0.11906,-0.79375 0.26458,-0.79375 0.14552,0 0.26458,-0.35718 0.26458,-0.79375 0,-0.43656 0.11907,-0.79375 0.26459,-0.79375 0.14552,0 0.26458,-0.23812 0.26458,-0.52916 0,-0.29104 0.11906,-0.52917 0.26458,-0.52917 0.14552,0 0.26459,-0.23812 0.26459,-0.52917 0,-0.29104 0.11906,-0.52916 0.26458,-0.52916 0.14552,0 0.26458,-0.21184 0.26458,-0.47076 0,-0.25892 0.23813,-0.64239 0.52917,-0.85216 0.29104,-0.20977 0.52917,-0.53541 0.52917,-0.72364 0,-0.48131 4.40388,-4.83261 4.891,-4.83261 0.71382,0 0.42582,0.81106 -0.65767,1.85208 -0.58208,0.55927 -1.05833,1.1785 -1.05833,1.37606 0,0.19756 -0.23813,0.53084 -0.52917,0.74061 -0.29104,0.20977 -0.52917,0.56696 -0.52917,0.79375 0,0.22679 -0.23812,0.58398 -0.52916,0.79375 -0.29105,0.20977 -0.52917,0.59324 -0.52917,0.85216 0,0.25892 -0.11906,0.47076 -0.26458,0.47076 -0.14552,0 -0.26459,0.35719 -0.26459,0.79375 0,0.43656 -0.11906,0.79375 -0.26458,0.79375 -0.14552,0 -0.26458,0.23812 -0.26458,0.52916 0,0.29105 -0.11907,0.52917 -0.26459,0.52917 -0.14552,0 -0.26458,0.35719 -0.26458,0.79375 0,0.43656 -0.11906,0.79375 -0.26458,0.79375 -0.14552,0 -0.26459,0.59531 -0.26459,1.32292 0,0.7276 -0.11906,1.32291 -0.26458,1.32291 -0.147,0 -0.26458,0.70556 -0.26458,1.5875 0,0.88195 -0.11758,1.5875 -0.26459,1.5875 -0.16658,0 -0.26458,1.76389 -0.26458,4.76251 0,2.99861 0.098,4.7625 0.26458,4.7625 0.14701,0 0.26459,0.70555 0.26459,1.5875 0,0.88194 0.11758,1.5875 0.26458,1.5875 0.14552,0 0.26458,0.59531 0.26458,1.32291 0,0.72761 0.11907,1.32292 0.26459,1.32292 0.14552,0 0.26458,0.35719 0.26458,0.79375 0,0.43656 0.11906,0.79375 0.26458,0.79375 0.14552,0 0.26459,0.23812 0.26459,0.52917 0,0.29104 0.11906,0.52916 0.26458,0.52916 0.14552,0 0.26458,0.35719 0.26458,0.79375 0,0.43656 0.11907,0.79375 0.26459,0.79375 0.14552,0 0.26458,0.21184 0.26458,0.47076 0,0.25892 0.23812,0.64239 0.52917,0.85216 0.29104,0.20977 0.52916,0.56696 0.52916,0.79375 0,0.22679 0.23813,0.58398 0.52917,0.79375 0.29104,0.20977 0.52917,0.54305 0.52917,0.74061 0,0.19756 0.47625,0.81679 1.05833,1.37606 0.58208,0.55926 1.05833,1.20477 1.05833,1.43446 0,0.89007 -1.01288,0.28785 -3.10885,-1.84842 z m 24.5400999,1.84842 c 0,-0.22969 0.47625,-0.8752 1.05834,-1.43446 0.58208,-0.55927 1.05833,-1.1785 1.05833,-1.37606 0,-0.19756 0.23812,-0.53084 0.52917,-0.74061 0.29104,-0.20977 0.52916,-0.56696 0.52916,-0.79375 0,-0.22679 0.23813,-0.58398 0.52917,-0.79375 0.29104,-0.20977 0.52917,-0.59324 0.52917,-0.85216 0,-0.25892 0.11906,-0.47076 0.2645798,-0.47076 0.14552,0 0.26458,-0.35719 0.26458,-0.79375 0,-0.43656 0.11906,-0.79375 0.26459,-0.79375 0.14552,0 0.26458,-0.23812 0.26458,-0.52916 0,-0.29105 0.11906,-0.52917 0.26458,-0.52917 0.14552,0 0.26459,-0.35719 0.26459,-0.79375 0,-0.43656 0.11906,-0.79375 0.26458,-0.79375 0.14552002,0 0.26458002,-0.59531 0.26458002,-1.32292 0,-0.7276 0.11906,-1.32291 0.26459,-1.32291 0.147,0 0.26458,-0.70556 0.26458,-1.5875 0,-0.88195 0.11758,-1.5875 0.26458,-1.5875 0.16658,0 0.26459,-1.76389 0.26459,-4.7625 0,-2.99862 -0.098,-4.76251 -0.26459,-4.76251 -0.147,0 -0.26458,-0.70555 -0.26458,-1.5875 0,-0.88194 -0.11758,-1.5875 -0.26458,-1.5875 -0.14553,0 -0.26459,-0.59531 -0.26459,-1.32291 0,-0.72761 -0.11906,-1.32292 -0.26458002,-1.32292 -0.14552,0 -0.26458,-0.35719 -0.26458,-0.79375 0,-0.43656 -0.11907,-0.79375 -0.26459,-0.79375 -0.14552,0 -0.26458,-0.23812 -0.26458,-0.52917 0,-0.29104 -0.11906,-0.52916 -0.26458,-0.52916 -0.14553,0 -0.26459,-0.35719 -0.26459,-0.79375 0,-0.43656 -0.11906,-0.79375 -0.26458,-0.79375 -0.1455198,0 -0.2645798,-0.21184 -0.2645798,-0.47076 0,-0.25892 -0.23813,-0.64239 -0.52917,-0.85216 -0.29104,-0.20977 -0.52917,-0.56696 -0.52917,-0.79375 0,-0.22679 -0.23812,-0.58398 -0.52916,-0.79375 -0.29105,-0.20977 -0.52917,-0.54305 -0.52917,-0.74061 0,-0.19756 -0.47625,-0.81679 -1.05833,-1.37606 -1.0835,-1.04102 -1.3715,-1.85208 -0.65768,-1.85208 0.48713,0 4.8910098,4.3513 4.8910098,4.83261 0,0.18823 0.23812,0.51387 0.52917,0.72364 0.29104,0.20977 0.52916002,0.59324 0.52916002,0.85216 0,0.25892 0.11906,0.47076 0.26459,0.47076 0.14552,0 0.26458,0.23812 0.26458,0.52916 0,0.29105 0.11906,0.52917 0.26458,0.52917 0.14552,0 0.26459,0.23813 0.26459,0.52917 0,0.29104 0.11906,0.52916 0.2645803,0.52916 0.14552,0 0.26458,0.35719 0.26458,0.79375 0,0.43657 0.11906,0.79375 0.26458998,0.79375 0.14552,0 0.26458,0.35719 0.26458,0.79375 0,0.43657 0.11906,0.79375 0.26458,0.79375 0.14552,0 0.26459,0.35719 0.26459,0.79375 0,0.43657 0.11906,0.79375 0.26458,0.79375 0.147,0 0.26458,0.70556 0.26458,1.5875 0,0.88195 0.11758,1.5875 0.26459,1.5875 0.16658,0 0.26458,1.76389 0.26458,4.76251 0,2.99861 -0.098,4.7625 -0.26458,4.7625 -0.14701,0 -0.26459,0.70555 -0.26459,1.5875 0,0.88194 -0.11758,1.5875 -0.26458,1.5875 -0.14552,0 -0.26458,0.35718 -0.26458,0.79375 0,0.43656 -0.11907,0.79375 -0.26459,0.79375 -0.14552,0 -0.26458,0.35718 -0.26458,0.79375 0,0.43656 -0.11906,0.79375 -0.26458,0.79375 -0.14552998,0 -0.26458998,0.35718 -0.26458998,0.79375 0,0.43656 -0.11906,0.79375 -0.26458,0.79375 -0.1455203,0 -0.2645803,0.23812 -0.2645803,0.52916 0,0.29104 -0.11907,0.52917 -0.26459,0.52917 -0.14552,0 -0.26458,0.23812 -0.26458,0.52917 0,0.29104 -0.11906,0.52916 -0.26458,0.52916 -0.14553,0 -0.26459,0.21184 -0.26459,0.47076 0,0.25892 -0.23812002,0.64239 -0.52916002,0.85216 -0.29105,0.20977 -0.52917,0.53541 -0.52917,0.72365 0,0.4813 -4.4038798,4.8326 -4.8910098,4.8326 -0.22037,0 -0.40066,-0.18793 -0.40066,-0.41762 z M 295.55239,382.37017 c -1.20055,-1.22362 -2.18281,-2.37867 -2.18281,-2.56679 0,-0.18811 -0.23813,-0.51365 -0.52917,-0.72342 -0.29104,-0.20977 -0.52917,-0.59324 -0.52917,-0.85216 0,-0.25892 -0.11906,-0.47076 -0.26458,-0.47076 -0.14552,0 -0.26458,-0.23812 -0.26458,-0.52916 0,-0.29105 -0.11907,-0.52917 -0.26459,-0.52917 -0.14552,0 -0.26458,-0.23813 -0.26458,-0.52917 0,-0.29104 -0.11906,-0.52916 -0.26458,-0.52916 -0.14552,0 -0.26459,-0.35719 -0.26459,-0.79375 0,-0.43657 -0.11906,-0.79375 -0.26458,-0.79375 -0.14552,0 -0.26458,-0.35719 -0.26458,-0.79375 0,-0.43657 -0.11907,-0.79375 -0.26459,-0.79375 -0.14552,0 -0.26458,-0.35719 -0.26458,-0.79375 0,-0.43657 -0.11906,-0.79375 -0.26458,-0.79375 -0.14701,0 -0.26459,-0.70556 -0.26459,-1.5875 0,-0.88195 -0.11758,-1.5875 -0.26458,-1.5875 -0.16658,0 -0.26458,-1.76389 -0.26458,-4.7625 0,-2.99862 0.098,-4.76251 0.26458,-4.76251 0.147,0 0.26458,-0.70555 0.26458,-1.5875 0,-0.88194 0.11758,-1.5875 0.26459,-1.5875 0.14552,0 0.26458,-0.35718 0.26458,-0.79375 0,-0.43656 0.11906,-0.79375 0.26458,-0.79375 0.14552,0 0.26459,-0.35718 0.26459,-0.79375 0,-0.43656 0.11906,-0.79375 0.26458,-0.79375 0.14552,0 0.26458,-0.35718 0.26458,-0.79375 0,-0.43656 0.11907,-0.79375 0.26459,-0.79375 0.14552,0 0.26458,-0.23812 0.26458,-0.52916 0,-0.29104 0.11906,-0.52917 0.26458,-0.52917 0.14552,0 0.26459,-0.23812 0.26459,-0.52917 0,-0.29104 0.11906,-0.52916 0.26458,-0.52916 0.14552,0 0.26458,-0.21184 0.26458,-0.47076 0,-0.25892 0.23813,-0.64239 0.52917,-0.85216 0.29104,-0.20977 0.52917,-0.53541 0.52917,-0.72364 0,-0.48131 4.40388,-4.83261 4.891,-4.83261 0.71382,0 0.42582,0.81106 -0.65767,1.85208 -0.58208,0.55927 -1.05833,1.1785 -1.05833,1.37606 0,0.19756 -0.23813,0.53084 -0.52917,0.74061 -0.29104,0.20977 -0.52917,0.56696 -0.52917,0.79375 0,0.22679 -0.23812,0.58398 -0.52916,0.79375 -0.29105,0.20977 -0.52917,0.59324 -0.52917,0.85216 0,0.25892 -0.11906,0.47076 -0.26458,0.47076 -0.14552,0 -0.26459,0.35719 -0.26459,0.79375 0,0.43656 -0.11906,0.79375 -0.26458,0.79375 -0.14552,0 -0.26458,0.23812 -0.26458,0.52916 0,0.29105 -0.11907,0.52917 -0.26459,0.52917 -0.14552,0 -0.26458,0.35719 -0.26458,0.79375 0,0.43656 -0.11906,0.79375 -0.26458,0.79375 -0.14552,0 -0.26459,0.59531 -0.26459,1.32292 0,0.7276 -0.11906,1.32291 -0.26458,1.32291 -0.147,0 -0.26458,0.70556 -0.26458,1.5875 0,0.88195 -0.11758,1.5875 -0.26459,1.5875 -0.16658,0 -0.26458,1.76389 -0.26458,4.76251 0,2.99861 0.098,4.7625 0.26458,4.7625 0.14701,0 0.26459,0.70555 0.26459,1.5875 0,0.88194 0.11758,1.5875 0.26458,1.5875 0.14552,0 0.26458,0.59531 0.26458,1.32291 0,0.72761 0.11907,1.32292 0.26459,1.32292 0.14552,0 0.26458,0.35719 0.26458,0.79375 0,0.43656 0.11906,0.79375 0.26458,0.79375 0.14552,0 0.26459,0.23812 0.26459,0.52917 0,0.29104 0.11906,0.52916 0.26458,0.52916 0.14552,0 0.26458,0.35719 0.26458,0.79375 0,0.43656 0.11907,0.79375 0.26459,0.79375 0.14552,0 0.26458,0.21184 0.26458,0.47076 0,0.25892 0.23812,0.64239 0.52917,0.85216 0.29104,0.20977 0.52916,0.56696 0.52916,0.79375 0,0.22679 0.23813,0.58398 0.52917,0.79375 0.29104,0.20977 0.52917,0.54305 0.52917,0.74061 0,0.19756 0.47625,0.81679 1.05833,1.37606 0.58208,0.55926 1.05833,1.20477 1.05833,1.43446 0,0.89007 -1.01288,0.28785 -3.10885,-1.84842 z m 155.50885,1.84842 c 0,-0.22969 0.47625,-0.8752 1.05833,-1.43446 0.58209,-0.55927 1.05834,-1.1785 1.05834,-1.37606 0,-0.19756 0.23812,-0.53084 0.52916,-0.74061 0.29105,-0.20977 0.52917,-0.56696 0.52917,-0.79375 0,-0.22679 0.23813,-0.58398 0.52917,-0.79375 0.29104,-0.20977 0.52916,-0.59324 0.52916,-0.85216 0,-0.25892 0.11907,-0.47076 0.26459,-0.47076 0.14552,0 0.26458,-0.35719 0.26458,-0.79375 0,-0.43656 0.11906,-0.79375 0.26458,-0.79375 0.14552,0 0.26459,-0.23812 0.26459,-0.52916 0,-0.29105 0.11906,-0.52917 0.26458,-0.52917 0.14552,0 0.26458,-0.35719 0.26458,-0.79375 0,-0.43656 0.11907,-0.79375 0.26459,-0.79375 0.14552,0 0.26458,-0.59531 0.26458,-1.32292 0,-0.7276 0.11906,-1.32291 0.26458,-1.32291 0.14701,0 0.26459,-0.70556 0.26459,-1.5875 0,-0.88195 0.11758,-1.5875 0.26458,-1.5875 0.16658,0 0.26458,-1.76389 0.26458,-4.7625 0,-2.99862 -0.098,-4.76251 -0.26458,-4.76251 -0.147,0 -0.26458,-0.70555 -0.26458,-1.5875 0,-0.88194 -0.11758,-1.5875 -0.26459,-1.5875 -0.14552,0 -0.26458,-0.59531 -0.26458,-1.32291 0,-0.72761 -0.11906,-1.32292 -0.26458,-1.32292 -0.14552,0 -0.26459,-0.35719 -0.26459,-0.79375 0,-0.43656 -0.11906,-0.79375 -0.26458,-0.79375 -0.14552,0 -0.26458,-0.23812 -0.26458,-0.52917 0,-0.29104 -0.11907,-0.52916 -0.26459,-0.52916 -0.14552,0 -0.26458,-0.35719 -0.26458,-0.79375 0,-0.43656 -0.11906,-0.79375 -0.26458,-0.79375 -0.14552,0 -0.26459,-0.21184 -0.26459,-0.47076 0,-0.25892 -0.23812,-0.64239 -0.52916,-0.85216 -0.29104,-0.20977 -0.52917,-0.56696 -0.52917,-0.79375 0,-0.22679 -0.23812,-0.58398 -0.52917,-0.79375 -0.29104,-0.20977 -0.52916,-0.54305 -0.52916,-0.74061 0,-0.19756 -0.47625,-0.81679 -1.05834,-1.37606 -1.08349,-1.04102 -1.37149,-1.85208 -0.65767,-1.85208 0.48712,0 4.89101,4.3513 4.89101,4.83261 0,0.18823 0.23812,0.51387 0.52916,0.72364 0.29105,0.20977 0.52917,0.59324 0.52917,0.85216 0,0.25892 0.11906,0.47076 0.26458,0.47076 0.14552,0 0.26459,0.23812 0.26459,0.52916 0,0.29105 0.11906,0.52917 0.26458,0.52917 0.14552,0 0.26458,0.23813 0.26458,0.52917 0,0.29104 0.11907,0.52916 0.26459,0.52916 0.14552,0 0.26458,0.35719 0.26458,0.79375 0,0.43657 0.11906,0.79375 0.26458,0.79375 0.14552,0 0.26459,0.35719 0.26459,0.79375 0,0.43657 0.11906,0.79375 0.26458,0.79375 0.14552,0 0.26458,0.35719 0.26458,0.79375 0,0.43657 0.11907,0.79375 0.26459,0.79375 0.147,0 0.26458,0.70556 0.26458,1.5875 0,0.88195 0.11758,1.5875 0.26458,1.5875 0.16659,0 0.26459,1.76389 0.26459,4.76251 0,2.99861 -0.098,4.7625 -0.26459,4.7625 -0.147,0 -0.26458,0.70555 -0.26458,1.5875 0,0.88194 -0.11758,1.5875 -0.26458,1.5875 -0.14552,0 -0.26459,0.35718 -0.26459,0.79375 0,0.43656 -0.11906,0.79375 -0.26458,0.79375 -0.14552,0 -0.26458,0.35718 -0.26458,0.79375 0,0.43656 -0.11907,0.79375 -0.26459,0.79375 -0.14552,0 -0.26458,0.35718 -0.26458,0.79375 0,0.43656 -0.11906,0.79375 -0.26458,0.79375 -0.14552,0 -0.26459,0.23812 -0.26459,0.52916 0,0.29104 -0.11906,0.52917 -0.26458,0.52917 -0.14552,0 -0.26458,0.23812 -0.26458,0.52917 0,0.29104 -0.11907,0.52916 -0.26459,0.52916 -0.14552,0 -0.26458,0.21184 -0.26458,0.47076 0,0.25892 -0.23812,0.64239 -0.52917,0.85216 -0.29104,0.20977 -0.52916,0.53541 -0.52916,0.72365 0,0.4813 -4.40389,4.8326 -4.89101,4.8326 -0.22037,0 -0.40066,-0.18793 -0.40066,-0.41762 z m -53.97227,-3.37002 c -1.35041,-0.43005 -3.00789,-2.22606 -3.73042,-4.04222 -0.56692,-1.42508 -0.62174,-1.95935 -0.62174,-6.06077 0,-4.0161 0.0623,-4.65379 0.58184,-5.95312 1.12036,-2.80204 2.90214,-4.29469 5.54512,-4.64529 3.1057,-0.41199 6.01247,1.39847 7.24587,4.513 0.57627,1.45521 0.62805,1.96231 0.6214,6.08541 -0.007,4.08661 -0.064,4.64084 -0.62724,6.06077 -0.75827,1.91151 -2.38993,3.617 -3.88888,4.06488 -1.31323,0.39238 -3.85799,0.38113 -5.12595,-0.0227 z m 4.53879,-1.1733 c 1.77459,-1.04446 2.33244,-3.23517 2.33564,-9.1726 0.003,-4.77004 -0.34695,-6.80946 -1.36602,-7.97012 -1.46516,-1.66874 -3.72099,-1.80605 -5.40337,-0.32891 -1.23241,1.08209 -1.45995,2.07794 -1.61923,7.08674 -0.21002,6.60537 0.321,9.10027 2.2007,10.33947 0.96901,0.63882 2.80723,0.66049 3.85228,0.0454 z m -767.41279,-5.49884 c -1.62725,-0.59722 -2.49654,-1.37315 -2.99211,-2.67078 -0.41707,-1.09208 -0.42601,-1.33044 -0.0867,-2.31176 0.51824,-1.49903 1.88587,-2.27681 3.03724,-1.72732 0.65086,0.31062 0.79385,0.55333 0.86026,1.46016 0.069,0.94184 -0.0313,1.18096 -0.7479,1.78397 -0.45516,0.38299 -0.99702,0.69634 -1.20414,0.69634 -1.14077,0 0.44666,1.35241 2.13697,1.82058 3.48505,0.96528 7.26381,-0.61359 8.0931,-3.38154 0.59093,-1.97234 -0.34297,-3.40204 -2.60519,-3.98827 -3.58294,-0.92848 -4.12131,-1.13944 -5.0277,-1.97008 -0.8777,-0.80435 -0.96891,-1.02442 -1.06399,-2.56721 -0.0902,-1.46355 -0.003,-1.87987 0.65808,-3.13781 0.84976,-1.61728 2.46819,-3.01046 3.98728,-3.43235 2.62935,-0.73024 5.77962,-0.11573 7.17508,1.3996 0.91979,0.99881 1.06948,2.97083 0.29953,3.94614 -0.97407,1.2339 -2.91723,0.90465 -2.91723,-0.49429 0,-0.95337 0.28084,-1.41875 1.11714,-1.85122 l 0.78843,-0.40771 -0.60241,-0.64124 c -1.18056,-1.25665 -3.68104,-1.51565 -5.54444,-0.57429 -2.17442,1.09849 -3.06243,3.50212 -1.77097,4.79358 0.39363,0.39363 1.42108,0.80241 2.96531,1.17977 2.86752,0.70072 4.2364,1.54757 4.91398,3.03999 1.02836,2.26503 0.40777,4.78465 -1.70993,6.9424 -1.79123,1.82511 -3.59822,2.50592 -6.58318,2.48031 -1.19509,-0.0103 -2.6245,-0.18439 -3.17646,-0.38697 z m 118.99641,-0.0873 c -0.44279,-0.27003 -1.01049,-0.80446 -1.26156,-1.18764 -0.94527,-1.44267 -0.84216,-2.56925 0.85818,-9.37641 0.88293,-3.53471 1.60533,-6.54104 1.60533,-6.68073 0,-0.13985 -0.89942,-0.25397 -2.00177,-0.25397 -2.30389,0 -3.04238,-0.27446 -2.8383,-1.05487 0.12769,-0.48828 0.35615,-0.53263 2.74406,-0.53263 h 2.60478 l 0.26443,-0.99218 c 0.14544,-0.54571 0.5093,-2.06375 0.80858,-3.37344 0.29929,-1.30969 0.67746,-2.71322 0.84039,-3.11897 0.53307,-1.32749 2.04462,-1.67934 2.72878,-0.63519 0.36601,0.55861 0.33155,0.89601 -0.39857,3.90261 -0.43956,1.81012 -0.86326,3.49949 -0.94154,3.75415 -0.12869,0.41863 0.10037,0.46302 2.38904,0.46302 2.33987,0 2.53137,0.0393 2.53137,0.51986 0,0.79729 -0.81861,1.06764 -3.2327,1.06764 h -2.20916 l -1.80293,7.29471 c -1.84189,7.45233 -1.97891,8.63598 -1.08549,9.37745 1.2262,1.01765 4.18163,-1.1592 5.74898,-4.23445 0.89557,-1.75716 1.78755,-2.41359 1.78755,-1.31549 0,1.65163 -3.07391,5.72881 -4.89177,6.48836 -1.28111,0.53529 -3.27249,0.48286 -4.24768,-0.11183 z m 92.40566,0.0873 c -1.62725,-0.59722 -2.49653,-1.37315 -2.9921,-2.67078 -0.41707,-1.09208 -0.42602,-1.33044 -0.0867,-2.31176 0.51824,-1.49903 1.88586,-2.27681 3.03724,-1.72732 0.65085,0.31062 0.79384,0.55333 0.86026,1.46016 0.069,0.94184 -0.0313,1.18096 -0.74791,1.78397 -0.45515,0.38299 -0.99701,0.69634 -1.20413,0.69634 -1.14077,0 0.44666,1.35241 2.13697,1.82058 3.48505,0.96528 7.2638,-0.61359 8.0931,-3.38154 0.59092,-1.97234 -0.34297,-3.40204 -2.60519,-3.98827 -3.58294,-0.92848 -4.12132,-1.13944 -5.0277,-1.97008 -0.8777,-0.80435 -0.96891,-1.02442 -1.06399,-2.56721 -0.0902,-1.46355 -0.003,-1.87987 0.65808,-3.13781 0.84976,-1.61728 2.46819,-3.01046 3.98728,-3.43235 2.62934,-0.73024 5.77962,-0.11573 7.17508,1.3996 0.91978,0.99881 1.06948,2.97083 0.29954,3.94614 -0.97409,1.2339 -2.91724,0.90465 -2.91724,-0.49429 0,-0.95337 0.28085,-1.41875 1.11715,-1.85122 l 0.78843,-0.40771 -0.60243,-0.64124 c -1.18055,-1.25665 -3.68103,-1.51565 -5.54444,-0.57429 -2.17441,1.09849 -3.06242,3.50212 -1.77096,4.79358 0.39363,0.39363 1.42108,0.80241 2.96531,1.17977 2.86752,0.70072 4.2364,1.54757 4.91397,3.03999 1.02835,2.26503 0.40777,4.78465 -1.70992,6.9424 -1.79124,1.82511 -3.59822,2.50592 -6.58318,2.48031 -1.19509,-0.0103 -2.6245,-0.18439 -3.17647,-0.38697 z m 133.283908,-0.0873 c -0.44278,-0.27003 -1.01049,-0.80446 -1.26156,-1.18764 -0.94527,-1.44267 -0.84217,-2.56925 0.85818,-9.37641 0.88294,-3.53471 1.60533,-6.54104 1.60533,-6.68073 0,-0.13985 -0.89942,-0.25397 -2.00176,-0.25397 -2.30388,0 -3.04239,-0.27446 -2.83831,-1.05487 0.12768,-0.48828 0.35615,-0.53263 2.74407,-0.53263 h 2.60477 l 0.26445,-0.99218 c 0.14542,-0.54571 0.5093,-2.06375 0.80857,-3.37344 0.29927,-1.30969 0.67746,-2.71322 0.84039,-3.11897 0.53306,-1.32749 2.04462,-1.67934 2.72878,-0.63519 0.366,0.55861 0.33155,0.89601 -0.39856,3.90261 -0.43958,1.81012 -0.86329,3.49949 -0.94155,3.75415 -0.12869,0.41863 0.10036,0.46302 2.38903,0.46302 2.33987,0 2.53137,0.0393 2.53137,0.51986 0,0.79729 -0.81859,1.06764 -3.2327,1.06764 h -2.20914 l -1.80295,7.29471 c -1.8419,7.45233 -1.9789,8.63598 -1.08548,9.37745 1.22618,1.01765 4.18163,-1.1592 5.74897,-4.23445 0.89556,-1.75716 1.78755,-2.41359 1.78755,-1.31549 0,1.65163 -3.0739,5.72881 -4.89177,6.48836 -1.28112,0.53529 -3.27248,0.48286 -4.24768,-0.11183 z m 290.403262,0.0756 c -1.53982,-0.66797 -2.63149,-1.6681 -3.38902,-3.10479 -0.6555,-1.24323 -0.72374,-1.63462 -0.72374,-4.15078 0,-2.64271 0.0463,-2.87486 0.94914,-4.7625 1.49998,-3.13605 4.36335,-5.95611 7.1501,-7.04194 0.63865,-0.24885 1.19925,-0.48108 1.24579,-0.51608 0.0465,-0.035 -0.17536,-0.57321 -0.49313,-1.19604 -3.33862,-6.54424 -2.12857,-10.82511 3.05985,-10.82511 1.79285,0 4.07641,0.36163 5.22002,0.82666 0.84667,0.34428 0.98346,1.33616 0.31573,2.28947 -0.6168,0.88059 -1.82126,0.75711 -3.68917,-0.37821 -2.03041,-1.23409 -3.65368,-1.45118 -4.69635,-0.62807 -1.45886,1.15167 -0.84566,2.89179 2.70626,7.67973 3.58532,4.83292 4.32401,7.06728 3.73375,11.29354 -0.69524,4.97806 -3.10488,9.00752 -6.24157,10.4374 -1.29948,0.59236 -3.87064,0.63069 -5.14766,0.0767 z m 4.83362,-1.51137 c 2.46026,-1.87654 4.12385,-8.52738 3.09171,-12.36042 -0.3461,-1.28538 -1.84168,-4.49778 -2.09214,-4.4938 -0.57639,0.009 -3.04683,1.76536 -3.83315,2.72494 -2.51798,3.07288 -4.03407,9.12833 -3.03345,12.11591 0.88334,2.63733 3.75635,3.62326 5.86703,2.01337 z m 32.05271,1.43579 c -0.44278,-0.27003 -1.01049,-0.80446 -1.26156,-1.18764 -0.94527,-1.44267 -0.84217,-2.56925 0.85818,-9.37641 0.88294,-3.53471 1.60533,-6.54104 1.60533,-6.68073 0,-0.13985 -0.89942,-0.25397 -2.00176,-0.25397 -2.30388,0 -3.04239,-0.27446 -2.83831,-1.05487 0.12768,-0.48828 0.35615,-0.53263 2.74407,-0.53263 h 2.60477 l 0.26445,-0.99218 c 0.14542,-0.54571 0.5093,-2.06375 0.80857,-3.37344 0.29927,-1.30969 0.67746,-2.71322 0.84039,-3.11897 0.53306,-1.32749 2.04462,-1.67934 2.72878,-0.63519 0.366,0.55861 0.33155,0.89601 -0.39856,3.90261 -0.43958,1.81012 -0.86329,3.49949 -0.94155,3.75415 -0.12869,0.41863 0.10036,0.46302 2.38903,0.46302 2.33987,0 2.53137,0.0393 2.53137,0.51986 0,0.79729 -0.81859,1.06764 -3.2327,1.06764 h -2.20914 l -1.80295,7.29471 c -1.8419,7.45233 -1.9789,8.63598 -1.08548,9.37745 1.22618,1.01765 4.18163,-1.1592 5.74897,-4.23445 0.89556,-1.75716 1.78755,-2.41359 1.78755,-1.31549 0,1.65163 -3.0739,5.72881 -4.89177,6.48836 -1.28112,0.53529 -3.27248,0.48286 -4.24768,-0.11183 z m 68.72362,0.17542 c -0.17463,-0.17462 -0.3175,-0.56975 -0.3175,-0.87805 0,-0.30831 0.7739,-3.69937 1.71979,-7.5357 2.09034,-8.47803 2.19527,-10.31875 0.5882,-10.31875 -0.9729,0 -1.97131,1.4069 -2.70471,3.8113 -0.67857,2.22472 -1.26775,3.00579 -1.71791,2.27743 -0.28205,-0.45639 0.57761,-3.37479 1.48548,-5.04283 0.84627,-1.55485 1.71637,-2.10423 3.33271,-2.10423 1.46034,0 2.95773,0.9764 3.40831,2.22248 l 0.32729,0.90513 1.14443,-1.14444 c 1.47841,-1.47839 3.05411,-2.08807 4.98314,-1.9281 2.36585,0.19619 3.68503,1.83811 3.04204,3.78636 -0.77433,2.3462 -3.96711,2.26252 -3.96711,-0.10398 0,-0.87652 0.96753,-2.14604 1.64161,-2.154 0.2445,-0.003 0.229,-0.0776 -0.0541,-0.26054 -1.62104,-1.04759 -5.03475,0.9206 -6.51195,3.75451 -0.25103,0.48164 -1.198,3.82933 -2.10433,7.43931 -0.98629,3.92832 -1.83468,6.76998 -2.11307,7.07761 -0.52044,0.57508 -1.69773,0.68108 -2.18231,0.19649 z m 60.07322,-0.34908 c -2.56641,-1.30047 -3.8639,-3.71038 -3.82865,-7.11129 0.0457,-4.41585 3.37232,-9.38155 7.65394,-11.42528 2.18088,-1.041 5.35398,-1.21601 7.06136,-0.38949 2.29121,1.10916 3.04602,3.78287 1.50339,5.32549 -0.93874,0.93875 -2.3295,1.05481 -3.05348,0.25482 -0.96128,-1.06221 0.26953,-3.45017 1.77829,-3.45017 0.8281,0 0.10745,-0.68294 -1.27957,-1.21266 -2.44309,-0.93302 -5.43444,0.33217 -7.32108,3.09645 -2.03906,2.98759 -3.44127,9.39695 -2.60813,11.92139 0.74007,2.24242 2.74849,3.01721 5.79684,2.23626 2.30156,-0.58963 3.63024,-1.33158 5.38927,-3.00941 1.4437,-1.37707 2.33585,-1.68961 2.33585,-0.81833 0,0.71129 -2.98154,3.19199 -4.97324,4.13785 -1.81335,0.86116 -2.30294,0.9749 -4.54869,1.05674 -2.29944,0.0838 -2.63652,0.031 -3.9061,-0.61237 z m -193.40999,-3.1766 c -0.61092,-0.65249 -0.85556,-2.50682 -0.33073,-2.50682 0.14552,0 0.26458,-0.35719 0.26458,-0.79375 0,-0.43656 0.11907,-0.79375 0.26459,-0.79375 0.14552,0 0.26458,-0.59531 0.26458,-1.32291 0,-1.01684 -0.0946,-1.32292 -0.40891,-1.32292 -0.50001,0 -1.70776,1.16642 -1.70776,1.64936 0,0.19277 -0.23812,0.52212 -0.52916,0.73189 -0.29105,0.20977 -0.52917,0.54221 -0.52917,0.73877 0,0.53578 -0.6827,1.11331 -1.31604,1.11331 -0.84629,0 -1.85896,-1.15679 -1.85896,-2.12354 0,-1.08081 0.53784,-1.58062 1.7009,-1.58062 0.51972,0 0.94493,-0.11907 0.94493,-0.26459 0,-0.14552 0.47625,-0.26458 1.05834,-0.26458 0.58208,0 1.05833,-0.11906 1.05833,-0.26458 0,-0.14553 0.23812,-0.26459 0.52917,-0.26459 0.35277,0 0.52916,-0.17639 0.52916,-0.52916 0,-0.35278 -0.17639,-0.52917 -0.52916,-0.52917 -0.29105,0 -0.52917,-0.11906 -0.52917,-0.26458 0,-0.14553 -0.47625,-0.26459 -1.05833,-0.26459 -0.58209,0 -1.05834,-0.11906 -1.05834,-0.26458 0,-0.14552 -0.42521,-0.26458 -0.94493,-0.26458 -1.16306,0 -1.7009,-0.49982 -1.7009,-1.58063 0,-0.96675 1.01267,-2.12354 1.85896,-2.12354 0.63334,0 1.31604,0.57753 1.31604,1.11331 0,0.19656 0.23812,0.529 0.52917,0.73877 0.29104,0.20977 0.52916,0.53912 0.52916,0.73189 0,0.48294 1.20775,1.64936 1.70776,1.64936 0.31429,0 0.40891,-0.30608 0.40891,-1.32291 0,-0.72761 -0.11906,-1.32292 -0.26458,-1.32292 -0.14552,0 -0.26459,-0.35719 -0.26459,-0.79375 0,-0.43656 -0.11906,-0.79375 -0.26458,-0.79375 -0.14552,0 -0.26458,-0.42213 -0.26458,-0.93807 0,-1.07805 0.95951,-2.23693 1.85208,-2.23693 0.89257,0 1.85208,1.15888 1.85208,2.23693 0,0.51594 -0.11906,0.93807 -0.26458,0.93807 -0.14552,0 -0.26458,0.35719 -0.26458,0.79375 0,0.43656 -0.11907,0.79375 -0.26459,0.79375 -0.14552,0 -0.26458,0.59531 -0.26458,1.32292 0,1.01683 0.0946,1.32291 0.40891,1.32291 0.50001,0 1.70776,-1.16642 1.70776,-1.64936 0,-0.19277 0.23812,-0.52212 0.52916,-0.73189 0.29104,-0.20977 0.52917,-0.54221 0.52917,-0.73877 0,-0.53578 0.6827,-1.11331 1.31604,-1.11331 0.84629,0 1.85896,1.15679 1.85896,2.12354 0,1.08081 -0.53785,1.58063 -1.7009,1.58063 -0.51972,0 -0.94493,0.11906 -0.94493,0.26458 0,0.14552 -0.47625,0.26458 -1.05834,0.26458 -0.58208,0 -1.05833,0.11906 -1.05833,0.26459 0,0.14552 -0.23813,0.26458 -0.52917,0.26458 -0.35277,0 -0.52916,0.17639 -0.52916,0.52917 0,0.35277 0.17639,0.52916 0.52916,0.52916 0.29104,0 0.52917,0.11906 0.52917,0.26459 0,0.14552 0.47625,0.26458 1.05833,0.26458 0.58209,0 1.05834,0.11906 1.05834,0.26458 0,0.14552 0.42521,0.26459 0.94493,0.26459 1.16305,0 1.7009,0.49981 1.7009,1.58062 0,0.96675 -1.01267,2.12354 -1.85896,2.12354 -0.63334,0 -1.31604,-0.57753 -1.31604,-1.11331 0,-0.19656 -0.23813,-0.529 -0.52917,-0.73877 -0.29104,-0.20977 -0.52916,-0.53912 -0.52916,-0.73189 0,-0.48294 -1.20775,-1.64936 -1.70776,-1.64936 -0.3143,0 -0.40891,0.30608 -0.40891,1.32292 0,0.7276 0.11906,1.32291 0.26458,1.32291 0.14552,0 0.26459,0.35719 0.26459,0.79375 0,0.43656 0.11906,0.79375 0.26458,0.79375 0.55988,0 0.27567,1.86504 -0.38484,2.52557 -0.81192,0.8119 -1.68796,0.80522 -2.45943,-0.0188 z m -444.03698,-4.09432 v -1.05833 h 13.49375 13.49375 v 1.05833 1.05834 h -13.49375 -13.49375 z m 215.106238,-3.43958 v -0.79375 H 114.64354 216.64041 v 0.79375 0.79375 H 114.64354 12.646648 Z m 318.293762,-0.26458 v -1.05834 h 13.49375 13.49375 v 1.05834 1.05833 h -13.49375 -13.49375 z m -673.03385,-1.20708 c -1.05502,-1.07798 -1.91823,-2.11406 -1.91823,-2.30241 0,-0.18834 -0.23812,-0.51408 -0.52916,-0.72385 -0.29105,-0.20977 -0.52917,-0.59324 -0.52917,-0.85216 0,-0.25891 -0.11906,-0.47076 -0.26458,-0.47076 -0.14552,0 -0.26459,-0.35718 -0.26459,-0.79375 0,-0.43656 -0.11906,-0.79375 -0.26458,-0.79375 -0.14552,0 -0.26458,-0.35718 -0.26458,-0.79375 0,-0.43656 -0.11907,-0.79375 -0.26459,-0.79375 -0.14552,0 -0.26458,-0.59531 -0.26458,-1.32291 0,-0.72761 -0.11906,-1.32292 -0.26458,-1.32292 -0.16282,0 -0.26459,-1.32292 -0.26459,-3.43958 0,-2.11667 0.10177,-3.43959 0.26459,-3.43959 0.14552,0 0.26458,-0.59531 0.26458,-1.32291 0,-0.72761 0.11906,-1.32292 0.26458,-1.32292 0.14552,0 0.26459,-0.35719 0.26459,-0.79375 0,-0.43656 0.11906,-0.79375 0.26458,-0.79375 0.14552,0 0.26458,-0.35719 0.26458,-0.79375 0,-0.43656 0.11907,-0.79375 0.26459,-0.79375 0.14552,0 0.26458,-0.21184 0.26458,-0.47076 0,-0.25891 0.23812,-0.64238 0.52917,-0.85216 0.29104,-0.20977 0.52916,-0.53563 0.52916,-0.72413 0,-0.48138 3.87344,-4.30295 4.36136,-4.30295 0.60478,0 0.49985,0.21124 -0.65719,1.32292 -0.58208,0.55926 -1.05833,1.17849 -1.05833,1.37605 0,0.19757 -0.23813,0.53084 -0.52917,0.74061 -0.29104,0.20978 -0.52917,0.59325 -0.52917,0.85216 0,0.25892 -0.11906,0.47076 -0.26458,0.47076 -0.14552,0 -0.26458,0.23813 -0.26458,0.52917 0,0.29104 -0.11907,0.52916 -0.26459,0.52916 -0.14552,0 -0.26458,0.35719 -0.26458,0.79375 0,0.43657 -0.11906,0.79375 -0.26458,0.79375 -0.14552,0 -0.26459,0.47625 -0.26459,1.05834 0,0.58208 -0.11906,1.05833 -0.26458,1.05833 -0.14699,0 -0.26458,0.70556 -0.26458,1.5875 0,0.88194 -0.1176,1.5875 -0.26459,1.5875 -0.16035,0 -0.26458,1.14653 -0.26458,2.91042 0,1.76389 0.10423,2.91041 0.26458,2.91041 0.14699,0 0.26459,0.70556 0.26459,1.5875 0,0.88195 0.11759,1.5875 0.26458,1.5875 0.14552,0 0.26458,0.47625 0.26458,1.05834 0,0.58208 0.11907,1.05833 0.26459,1.05833 0.14552,0 0.26458,0.35719 0.26458,0.79375 0,0.43656 0.11906,0.79375 0.26458,0.79375 0.14552,0 0.26459,0.23813 0.26459,0.52917 0,0.29104 0.11906,0.52916 0.26458,0.52916 0.14552,0 0.26458,0.21185 0.26458,0.47076 0,0.25892 0.23813,0.64239 0.52917,0.85216 0.29104,0.20977 0.52917,0.54305 0.52917,0.74061 0,0.19757 0.47625,0.81679 1.05833,1.37606 1.17868,1.13247 1.26999,1.33225 0.59531,1.30249 -0.25466,-0.0112 -1.32622,-0.90242 -2.38125,-1.9804 z m 59.72969,1.84779 c 0,-0.0842 0.47625,-0.61062 1.05833,-1.16988 0.58209,-0.55927 1.05834,-1.17849 1.05834,-1.37606 0,-0.19756 0.23812,-0.53084 0.52916,-0.74061 0.29104,-0.20977 0.52917,-0.59324 0.52917,-0.85216 0,-0.25891 0.11906,-0.47076 0.26458,-0.47076 0.14552,0 0.26459,-0.23812 0.26459,-0.52916 0,-0.29104 0.11906,-0.52917 0.26458,-0.52917 0.14552,0 0.26458,-0.35719 0.26458,-0.79375 0,-0.43656 0.11906,-0.79375 0.26459,-0.79375 0.14552,0 0.26458,-0.47625 0.26458,-1.05833 0,-0.58209 0.11906,-1.05834 0.26458,-1.05834 0.14699,0 0.26459,-0.70555 0.26459,-1.5875 0,-0.88194 0.11759,-1.5875 0.26458,-1.5875 0.16035,0 0.26458,-1.14652 0.26458,-2.91041 0,-1.76389 -0.10423,-2.91042 -0.26458,-2.91042 -0.14699,0 -0.26458,-0.70556 -0.26458,-1.5875 0,-0.88194 -0.1176,-1.5875 -0.26459,-1.5875 -0.14552,0 -0.26458,-0.47625 -0.26458,-1.05833 0,-0.58209 -0.11906,-1.05834 -0.26458,-1.05834 -0.14553,0 -0.26459,-0.35718 -0.26459,-0.79375 0,-0.43656 -0.11906,-0.79375 -0.26458,-0.79375 -0.14552,0 -0.26458,-0.23812 -0.26458,-0.52916 0,-0.29104 -0.11907,-0.52917 -0.26459,-0.52917 -0.14552,0 -0.26458,-0.21184 -0.26458,-0.47076 0,-0.25891 -0.23813,-0.64238 -0.52917,-0.85216 -0.29104,-0.20977 -0.52916,-0.54304 -0.52916,-0.74061 0,-0.19756 -0.47625,-0.81679 -1.05834,-1.37605 -1.15703,-1.11168 -1.26197,-1.32292 -0.65719,-1.32292 0.48792,0 4.36136,3.82157 4.36136,4.30295 0,0.1885 0.23812,0.51436 0.52917,0.72413 0.29104,0.20978 0.52916,0.59325 0.52916,0.85216 0,0.25892 0.11906,0.47076 0.26459,0.47076 0.14552,0 0.26458,0.35719 0.26458,0.79375 0,0.43656 0.11906,0.79375 0.26458,0.79375 0.14552,0 0.26459,0.35719 0.26459,0.79375 0,0.43656 0.11906,0.79375 0.26458,0.79375 0.14552,0 0.26458,0.59531 0.26458,1.32292 0,0.7276 0.11906,1.32291 0.26459,1.32291 0.16281,0 0.26458,1.32292 0.26458,3.43959 0,2.11666 -0.10177,3.43958 -0.26458,3.43958 -0.14553,0 -0.26459,0.59531 -0.26459,1.32292 0,0.7276 -0.11906,1.32291 -0.26458,1.32291 -0.14552,0 -0.26458,0.35719 -0.26458,0.79375 0,0.43657 -0.11907,0.79375 -0.26459,0.79375 -0.14552,0 -0.26458,0.35719 -0.26458,0.79375 0,0.43657 -0.11906,0.79375 -0.26458,0.79375 -0.14553,0 -0.26459,0.21185 -0.26459,0.47076 0,0.25892 -0.23812,0.64239 -0.52916,0.85216 -0.29105,0.20977 -0.52917,0.53563 -0.52917,0.72414 0,0.48138 -3.87344,4.30295 -4.36136,4.30295 -0.22063,0 -0.40114,-0.0689 -0.40114,-0.15304 z m 151.93697,-1.84779 c -1.05502,-1.07798 -1.91823,-2.11406 -1.91823,-2.30241 0,-0.18834 -0.23812,-0.51408 -0.52916,-0.72385 -0.29105,-0.20977 -0.52917,-0.59324 -0.52917,-0.85216 0,-0.25891 -0.11906,-0.47076 -0.26458,-0.47076 -0.14552,0 -0.26459,-0.35718 -0.26459,-0.79375 0,-0.43656 -0.11906,-0.79375 -0.26458,-0.79375 -0.14552,0 -0.26458,-0.35718 -0.26458,-0.79375 0,-0.43656 -0.11907,-0.79375 -0.26459,-0.79375 -0.14552,0 -0.26458,-0.59531 -0.26458,-1.32291 0,-0.72761 -0.11906,-1.32292 -0.26458,-1.32292 -0.16283,0 -0.26459,-1.32292 -0.26459,-3.43958 0,-2.11667 0.10176,-3.43959 0.26459,-3.43959 0.14552,0 0.26458,-0.59531 0.26458,-1.32291 0,-0.72761 0.11906,-1.32292 0.26458,-1.32292 0.14552,0 0.26459,-0.35719 0.26459,-0.79375 0,-0.43656 0.11906,-0.79375 0.26458,-0.79375 0.14552,0 0.26458,-0.35719 0.26458,-0.79375 0,-0.43656 0.11907,-0.79375 0.26459,-0.79375 0.14552,0 0.26458,-0.21184 0.26458,-0.47076 0,-0.25891 0.23812,-0.64238 0.52917,-0.85216 0.29104,-0.20977 0.52916,-0.53563 0.52916,-0.72413 0,-0.48138 3.87345,-4.30295 4.36137,-4.30295 0.60478,0 0.49982,0.21124 -0.6572,1.32292 -0.58208,0.55926 -1.05833,1.17849 -1.05833,1.37605 0,0.19757 -0.23813,0.53084 -0.52917,0.74061 -0.29104,0.20978 -0.52917,0.59325 -0.52917,0.85216 0,0.25892 -0.11906,0.47076 -0.26458,0.47076 -0.14552,0 -0.26458,0.23813 -0.26458,0.52917 0,0.29104 -0.11907,0.52916 -0.26459,0.52916 -0.14552,0 -0.26458,0.35719 -0.26458,0.79375 0,0.43657 -0.11906,0.79375 -0.26458,0.79375 -0.14552,0 -0.26459,0.47625 -0.26459,1.05834 0,0.58208 -0.11906,1.05833 -0.26458,1.05833 -0.147,0 -0.26458,0.70556 -0.26458,1.5875 0,0.88194 -0.11758,1.5875 -0.26459,1.5875 -0.16036,0 -0.26458,1.14653 -0.26458,2.91042 0,1.76389 0.10422,2.91041 0.26458,2.91041 0.14701,0 0.26459,0.70556 0.26459,1.5875 0,0.88195 0.11758,1.5875 0.26458,1.5875 0.14552,0 0.26458,0.47625 0.26458,1.05834 0,0.58208 0.11907,1.05833 0.26459,1.05833 0.14552,0 0.26458,0.35719 0.26458,0.79375 0,0.43656 0.11906,0.79375 0.26458,0.79375 0.14552,0 0.26459,0.23813 0.26459,0.52917 0,0.29104 0.11906,0.52916 0.26458,0.52916 0.14552,0 0.26458,0.21185 0.26458,0.47076 0,0.25892 0.23813,0.64239 0.52917,0.85216 0.29104,0.20977 0.52917,0.54305 0.52917,0.74061 0,0.19757 0.47625,0.81679 1.05833,1.37606 1.17866,1.13247 1.27,1.33225 0.59531,1.30249 -0.25466,-0.0112 -1.32622,-0.90242 -2.38125,-1.9804 z m 73.752598,1.84779 c 0,-0.0842 0.47625,-0.61062 1.05833,-1.16988 0.58209,-0.55927 1.05834,-1.17849 1.05834,-1.37606 0,-0.19756 0.23812,-0.53084 0.52916,-0.74061 0.29104,-0.20977 0.52917,-0.59324 0.52917,-0.85216 0,-0.25891 0.11906,-0.47076 0.26458,-0.47076 0.14552,0 0.26459,-0.23812 0.26459,-0.52916 0,-0.29104 0.11906,-0.52917 0.26458,-0.52917 0.14552,0 0.26458,-0.35719 0.26458,-0.79375 0,-0.43656 0.11907,-0.79375 0.26459,-0.79375 0.14552,0 0.26458,-0.47625 0.26458,-1.05833 0,-0.58209 0.11906,-1.05834 0.26458,-1.05834 0.14701,0 0.26459,-0.70555 0.26459,-1.5875 0,-0.88194 0.11758,-1.5875 0.26458,-1.5875 0.16036,0 0.26458,-1.14652 0.26458,-2.91041 0,-1.76389 -0.10422,-2.91042 -0.26458,-2.91042 -0.147,0 -0.26458,-0.70556 -0.26458,-1.5875 0,-0.88194 -0.11758,-1.5875 -0.26459,-1.5875 -0.14552,0 -0.26458,-0.47625 -0.26458,-1.05833 0,-0.58209 -0.11906,-1.05834 -0.26458,-1.05834 -0.14552,0 -0.26459,-0.35718 -0.26459,-0.79375 0,-0.43656 -0.11906,-0.79375 -0.26458,-0.79375 -0.14552,0 -0.26458,-0.23812 -0.26458,-0.52916 0,-0.29104 -0.11907,-0.52917 -0.26459,-0.52917 -0.14552,0 -0.26458,-0.21184 -0.26458,-0.47076 0,-0.25891 -0.23813,-0.64238 -0.52917,-0.85216 -0.29104,-0.20977 -0.52916,-0.54304 -0.52916,-0.74061 0,-0.19756 -0.47625,-0.81679 -1.05834,-1.37605 -1.15702,-1.11168 -1.26198,-1.32292 -0.6572,-1.32292 0.48792,0 4.36137,3.82157 4.36137,4.30295 0,0.1885 0.23812,0.51436 0.52917,0.72413 0.29104,0.20978 0.52916,0.59325 0.52916,0.85216 0,0.25892 0.11907,0.47076 0.26459,0.47076 0.14552,0 0.26458,0.35719 0.26458,0.79375 0,0.43656 0.11906,0.79375 0.26458,0.79375 0.14552,0 0.26459,0.35719 0.26459,0.79375 0,0.43656 0.11906,0.79375 0.26458,0.79375 0.14552,0 0.26458,0.59531 0.26458,1.32292 0,0.7276 0.11907,1.32291 0.26459,1.32291 0.16282,0 0.26458,1.32292 0.26458,3.43959 0,2.11666 -0.10176,3.43958 -0.26458,3.43958 -0.14552,0 -0.26459,0.59531 -0.26459,1.32292 0,0.7276 -0.11906,1.32291 -0.26458,1.32291 -0.14552,0 -0.26458,0.35719 -0.26458,0.79375 0,0.43657 -0.11907,0.79375 -0.26459,0.79375 -0.14552,0 -0.26458,0.35719 -0.26458,0.79375 0,0.43657 -0.11906,0.79375 -0.26458,0.79375 -0.14552,0 -0.26459,0.21185 -0.26459,0.47076 0,0.25892 -0.23812,0.64239 -0.52916,0.85216 -0.29105,0.20977 -0.52917,0.53563 -0.52917,0.72414 0,0.48138 -3.87345,4.30295 -4.36137,4.30295 -0.22061,0 -0.40113,-0.0689 -0.40113,-0.15304 z m -255.587488,-1.62217 c -0.83617,-0.30745 -1.32291,-0.97664 -1.32291,-1.81878 0,-1.13102 0.63274,-1.74838 1.68683,-1.64582 0.69057,0.0672 0.84101,0.20556 0.91354,0.84027 0.0478,0.41791 -0.0415,0.8882 -0.19844,1.0451 -0.50877,0.50878 -0.3038,0.74392 0.57463,0.65922 0.77372,-0.0746 0.91859,-0.23121 1.44566,-1.56285 0.32217,-0.81397 1.12764,-4.38585 1.78993,-7.9375 0.66228,-3.55166 1.26416,-6.72545 1.3375,-7.05287 0.12539,-0.55982 0.0489,-0.59532 -1.28281,-0.59532 -1.61631,0 -1.85724,-0.13435 -1.48573,-0.82853 0.20818,-0.38898 0.56885,-0.49438 1.69173,-0.49438 h 1.42714 l 0.29447,-1.52136 c 0.80883,-4.17869 1.22302,-5.13655 2.69131,-6.22391 0.89419,-0.66221 3.11747,-0.70393 4.07509,-0.0765 1.65263,1.08284 1.36127,3.12105 -0.46788,3.27312 -0.86334,0.0718 -1.00189,-7e-5 -1.15177,-0.59725 -0.10959,-0.43663 -0.0122,-0.9202 0.27291,-1.35535 l 0.44328,-0.67653 -1.00943,0.0831 c -0.95593,0.0787 -1.03225,0.15325 -1.44024,1.40607 -0.23694,0.7276 -0.60827,2.30518 -0.82516,3.50572 l -0.39435,2.18282 1.48662,0.004 c 1.67775,0.005 2.30069,0.27495 2.06265,0.89528 -0.12735,0.33187 -0.55861,0.42358 -1.99169,0.42358 h -1.82914 l -0.45756,2.57969 c -1.80619,10.18306 -2.56217,12.78262 -4.22071,14.51358 -1.03089,1.07589 -1.21185,1.16142 -2.41647,1.1421 -0.71617,-0.0115 -1.48072,-0.0866 -1.699,-0.16682 z m 228.201023,-0.34486 c -0.0911,-0.14738 0.252597,-0.75658 0.763772,-1.35376 0.924428,-1.07999 1.75186,-2.99513 1.75186,-4.05478 0,-0.48248 -0.130599,-0.54272 -0.997427,-0.46005 -0.742262,0.0708 -1.11932,-0.0396 -1.473835,-0.43128 -1.158954,-1.28064 0.230426,-3.56461 1.848538,-3.03873 2.38342,0.77461 2.124551,6.07216 -0.430345,8.8072 -0.780441,0.83546 -1.184036,0.9821 -1.462563,0.5314 z m -118.398943,-2.37785 v -1.05834 h 13.49375 13.49375 v 1.05834 1.05833 h -13.49375 -13.49375 z m 392.77187,-2.64923 c -0.0911,-0.14739 0.2526,-0.75658 0.76377,-1.35376 0.92443,-1.07999 1.75186,-2.99513 1.75186,-4.05478 0,-0.48248 -0.1306,-0.54272 -0.99743,-0.46005 -0.74226,0.0708 -1.11932,-0.0395 -1.47383,-0.43128 -1.15896,-1.28064 0.23042,-3.56461 1.84854,-3.03873 2.38342,0.77461 2.12455,6.07216 -0.43035,8.80719 -0.78044,0.83547 -1.18403,0.9821 -1.46256,0.53141 z m -519.76659,-0.9892 c -1.30455,-0.65543 -2.12194,-1.98846 -2.12194,-3.46054 0,-0.70516 0.43635,-2.48206 1.05833,-4.30969 1.30139,-3.82402 1.34608,-4.46634 0.31071,-4.46634 -0.95262,0 -1.7784,0.87113 -2.4106,2.54298 -0.39313,1.03962 -0.62451,1.30991 -1.17899,1.3772 -0.51261,0.0622 -0.68987,-0.0353 -0.68987,-0.37949 0,-0.85404 1.07949,-2.70447 2.13289,-3.65616 0.90557,-0.81813 1.22014,-0.94287 2.37782,-0.94287 1.05765,0 1.46655,0.13238 1.97285,0.63868 1.085,1.085 1.07177,1.72169 -0.10675,5.13575 -1.30107,3.76907 -1.40764,5.30421 -0.43571,6.27614 0.47155,0.47156 0.93733,0.64943 1.70053,0.64943 0.8915,0 1.17441,-0.14959 1.86323,-0.98525 0.44667,-0.54189 0.87835,-1.4051 0.95929,-1.91823 0.37777,-2.39504 2.08386,-8.81298 2.43652,-9.16564 0.21727,-0.21726 0.70748,-0.35879 1.08937,-0.31451 1.012,0.11734 0.99945,0.87638 -0.0858,5.1857 -1.09202,4.33636 -1.16324,5.51945 -0.39131,6.50079 0.42279,0.5375 0.78168,0.69714 1.56719,0.69714 1.91284,0 3.35313,-1.90923 4.35395,-5.77154 0.5784,-2.23209 0.51907,-3.17025 -0.27274,-4.31283 -0.59173,-0.85386 -0.63919,-1.06667 -0.35726,-1.60172 0.42236,-0.80158 0.74969,-1.00491 1.62566,-1.00986 1.4402,-0.008 1.72505,2.21121 0.76595,5.96763 -1.38321,5.41751 -3.27725,7.78666 -6.22512,7.78666 -1.37341,0 -3.02599,-0.58463 -3.52543,-1.24718 -0.30193,-0.40054 -0.37761,-0.39173 -0.92604,0.10785 -0.32848,0.29922 -0.85731,0.67798 -1.17516,0.84168 -0.87816,0.45228 -3.26401,0.36054 -4.3116,-0.16578 z m 32.3751,-0.0429 c -1.9654,-0.89251 -2.54921,-2.62595 -1.30386,-3.8713 0.75258,-0.75258 1.26181,-0.81707 1.84521,-0.23366 0.55066,0.55065 0.52433,0.96236 -0.11339,1.77309 -0.68062,0.86526 -0.67478,0.89725 0.25144,1.37622 0.97234,0.50281 3.44707,0.52368 4.60743,0.0388 1.75358,-0.73269 2.59155,-2.74036 1.54072,-3.69135 -0.26377,-0.23871 -1.3651,-0.63338 -2.4474,-0.87704 -2.57322,-0.57932 -3.68811,-1.57988 -3.68662,-3.30857 0.002,-2.32123 1.94898,-4.2227 4.51374,-4.40821 3.16262,-0.22877 4.74569,0.6309 4.74569,2.57709 0,1.31068 -0.90872,2.1111 -1.83434,1.61572 -0.64528,-0.34534 -0.72505,-1.38435 -0.14336,-1.86712 0.35952,-0.29837 0.35241,-0.39142 -0.0652,-0.85282 -0.39551,-0.43703 -0.73263,-0.50109 -2.15899,-0.41027 -1.44544,0.092 -1.78094,0.21302 -2.3161,0.83518 -0.63727,0.74087 -0.79285,1.61252 -0.39873,2.23391 0.12044,0.18989 1.12812,0.57245 2.2393,0.85013 2.32239,0.58035 3.22415,1.09246 3.76485,2.13807 0.81694,1.57977 0.26304,3.53719 -1.43504,5.07131 -0.58002,0.524 -1.50948,1.07906 -2.06548,1.23345 -1.60974,0.447 -4.30369,0.33871 -5.53992,-0.22268 z m 176.40947,0.04 c -0.17555,-0.32805 0.0198,-1.5247 0.65905,-4.0349 1.84854,-7.26006 1.93604,-8.19874 0.76409,-8.19874 -0.79594,0 -1.15258,0.4796 -1.71614,2.30787 -0.40198,1.30412 -0.57295,1.54088 -1.16422,1.61231 -0.85749,0.10358 -0.87998,-0.22569 -0.14898,-2.17948 0.72085,-1.92663 1.75969,-2.79904 3.33303,-2.79904 0.96324,0 1.33842,0.14774 1.96408,0.7734 0.42537,0.42537 0.77341,0.98451 0.77341,1.24253 0,0.37463 0.17319,0.30149 0.85989,-0.36311 1.16573,-1.12823 2.53566,-1.65282 4.3163,-1.65282 1.77477,0 2.8498,0.54976 3.41847,1.74816 0.61759,1.30145 0.49919,2.19895 -0.83061,6.2961 -0.67746,2.08733 -1.15744,3.98877 -1.06664,4.22544 0.23829,0.62095 1.31993,0.52876 1.97477,-0.1683 0.3093,-0.32924 0.82323,-1.19244 1.14205,-1.91823 0.62905,-1.43209 0.92623,-1.74112 1.4727,-1.53142 0.50313,0.19307 0.43966,0.99956 -0.16849,2.14057 -0.64643,1.21285 -0.98742,1.62639 -1.95987,2.37692 -1.29543,0.99982 -3.74978,0.68074 -4.34303,-0.56461 -0.57042,-1.19748 -0.52967,-1.57294 0.51078,-4.70716 1.36025,-4.09763 1.56138,-5.71976 0.79502,-6.41125 -0.80788,-0.72891 -2.68933,-0.46283 -3.9583,0.55979 -1.61165,1.29877 -2.39567,2.88332 -3.39447,6.86037 -0.5057,2.01373 -1.09312,3.92922 -1.30535,4.25665 -0.46439,0.71649 -1.57337,0.79068 -1.92754,0.12895 z m 19.91134,-0.04 c -1.96537,-0.89251 -2.5492,-2.62595 -1.30386,-3.8713 0.75258,-0.75258 1.26182,-0.81707 1.84523,-0.23366 0.550649,0.55065 0.524323,0.96236 -0.1134,1.77309 -0.68062,0.86526 -0.67477,0.89725 0.25143,1.37622 0.972345,0.50281 3.447073,0.52368 4.607429,0.0388 1.753579,-0.73269 2.591567,-2.74036 1.540722,-3.69135 -0.263763,-0.23871 -1.365091,-0.63338 -2.447396,-0.87704 -2.573205,-0.57932 -3.688105,-1.57988 -3.686625,-3.30857 0.003,-2.32123 1.948974,-4.2227 4.513739,-4.40821 3.162644,-0.22877 4.745699,0.6309 4.745699,2.57709 0,1.31068 -0.908712,2.1111 -1.83433,1.61572 -0.645292,-0.34534 -0.725064,-1.38435 -0.143378,-1.86712 0.359543,-0.29837 0.352425,-0.39142 -0.06514,-0.85282 -0.395499,-0.43703 -0.732631,-0.50109 -2.159,-0.41027 -1.445445,0.092 -1.780937,0.21302 -2.316083,0.83518 -0.637275,0.74087 -0.79285,1.61252 -0.398727,2.23391 0.120412,0.18989 1.128104,0.57245 2.239274,0.85013 2.322407,0.58035 3.22416,1.09246 3.764862,2.13807 0.816928,1.57977 0.263049,3.53719 -1.435047,5.07131 -0.579993,0.524 -1.509474,1.07906 -2.065469,1.23345 -1.609752,0.447 -4.303686,0.33871 -5.53993,-0.22268 z m 29.427386,-0.0933 c -1.195282,-0.68526 -2.011918,-2.0439 -2.011918,-3.34719 0,-0.50182 0.47625,-2.31182 1.058333,-4.02222 0.582083,-1.7104 1.058333,-3.47457 1.058333,-3.92037 0,-0.71224 -0.09028,-0.81055 -0.744246,-0.81055 -0.937022,0 -1.950429,1.02976 -2.668931,2.71198 -0.389467,0.91189 -0.684557,1.25677 -1.075347,1.25677 -0.690245,0 -0.675243,-0.35685 0.08356,-1.9863 0.898181,-1.92875 2.266024,-3.04079 3.740256,-3.04079 1.585806,0 2.408422,0.42788 2.928117,1.52302 0.42889,0.90382 0.417116,0.97965 -0.648705,4.17732 -1.235234,3.70594 -1.366679,5.24798 -0.537158,6.30252 0.696146,0.88501 2.282429,0.95302 3.576347,0.15335 1.757892,-1.08645 4.040584,-5.91932 3.690937,-7.81441 -0.08297,-0.44967 -0.446669,-1.0955 -0.808249,-1.43518 -1.192583,-1.12037 -0.592746,-2.90662 0.976075,-2.90662 1.535138,0 1.958975,2.03277 1.14427,5.48812 -0.789967,3.35043 -2.482136,6.24124 -4.412113,7.53743 -1.442667,0.9689 -3.789865,1.02731 -5.349557,0.13312 z m 86.226622,-2.43104 c -1.51294,-0.55609 -2.07137,-1.33802 -1.89495,-2.65333 0.17749,-1.32329 1.16727,-2.25346 2.39787,-2.25346 1.75847,0 2.33632,1.83166 0.9996,3.16841 l -0.74647,0.74645 0.9449,0.15632 c 2.75858,0.45639 4.65474,0.004 6.28457,-1.49786 1.52511,-1.40581 1.87063,-2.1044 2.74482,-5.54988 0.7036,-2.77313 0.69297,-3.30159 -0.0485,-2.40529 -0.61486,0.74332 -2.93436,1.67235 -4.18218,1.6751 -0.65424,10e-4 -1.67849,-0.24201 -2.31543,-0.55034 -4.90757,-2.37572 -4.65725,-10.64912 0.48131,-15.90694 3.41228,-3.49146 7.88093,-4.16095 9.90068,-1.48332 l 0.46749,0.61978 0.73102,-0.73101 c 0.40206,-0.40205 0.9266,-0.73101 1.16562,-0.73101 0.73091,0 1.45817,0.52065 1.45817,1.0439 0,1.04233 -5.03502,20.95317 -5.55768,21.97765 -0.76059,1.49092 -2.41231,3.02097 -4.18938,3.8808 -1.32027,0.63882 -1.85822,0.73406 -4.54044,0.80385 -2.18905,0.057 -3.33962,-0.03 -4.10104,-0.30982 z m 8.86976,-10.45295 c 0.90408,-0.46532 2.60779,-2.11542 3.04644,-2.95057 0.19976,-0.38034 0.89379,-2.80377 1.54231,-5.3854 0.99216,-3.94968 1.13445,-4.82582 0.89744,-5.52618 -0.69347,-2.04914 -2.06415,-3.02237 -3.79841,-2.69702 -1.20513,0.22608 -3.20268,2.04818 -4.14023,3.77656 -0.80171,1.478 -1.91423,5.24666 -2.32177,7.86491 -0.70162,4.50771 1.38829,6.66042 4.77422,4.9177 z m 179.119432,8.3731 c -1.3504,-0.43005 -3.00789,-2.22606 -3.73041,-4.04221 -0.56692,-1.42509 -0.62175,-1.95936 -0.62175,-6.06077 0,-4.01611 0.0623,-4.6538 0.58185,-5.95313 1.12035,-2.80204 2.90213,-4.29469 5.54511,-4.64529 3.10571,-0.41198 6.01247,1.39847 7.24588,4.513 0.57626,1.45521 0.62804,1.96231 0.6214,6.08542 -0.007,4.0866 -0.064,4.64083 -0.62725,6.06077 -0.75827,1.9115 -2.38993,3.617 -3.88887,4.06487 -1.31323,0.39238 -3.858,0.38113 -5.12596,-0.0227 z m 4.5388,-1.1733 c 1.77458,-1.04445 2.33243,-3.23517 2.33563,-9.1726 0.003,-4.77004 -0.34695,-6.80946 -1.36601,-7.97012 -1.46516,-1.66873 -3.721,-1.80605 -5.40338,-0.32891 -1.2324,1.08209 -1.45994,2.07794 -1.61922,7.08674 -0.21003,6.60537 0.32099,9.10028 2.2007,10.33947 0.96901,0.63882 2.80723,0.66049 3.85228,0.0454 z m -66.73895,0.48338 c -1.13509,-1.1351 -1.02786,-2.15176 0.68262,-6.47124 0.79992,-2.02001 1.45439,-4.07384 1.45439,-4.56406 0,-0.80078 -0.0756,-0.89131 -0.74425,-0.89131 -0.93702,0 -1.95042,1.02977 -2.66893,2.71198 -0.38946,0.9119 -0.68455,1.25677 -1.07534,1.25677 -0.69165,0 -0.67538,-0.35651 0.0914,-2.00312 0.86182,-1.85086 2.3296,-3.02396 3.78354,-3.02396 0.61484,0 1.41541,0.13556 1.77906,0.30124 0.60592,0.27608 1.48039,1.63825 1.48039,2.306 0,0.15307 -0.71437,2.12527 -1.5875,4.38266 -0.87312,2.25739 -1.5875,4.46564 -1.5875,4.90722 0,0.70383 0.0918,0.80288 0.74425,0.80288 0.93006,0 1.94532,-1.01993 2.6887,-2.70102 0.62447,-1.41225 0.80856,-1.58972 1.32074,-1.27318 0.5769,0.35655 -0.39941,2.57802 -1.71754,3.90806 -1.02709,1.03634 -1.22245,1.12447 -2.49251,1.12447 -1.17038,0 -1.49465,-0.11657 -2.15148,-0.77339 z m 11.74318,0.33869 c -0.0917,-0.23908 0.40498,-2.78366 1.10382,-5.65462 1.36332,-5.60059 1.4101,-6.61068 0.30618,-6.61068 -0.8304,0 -1.39835,0.68966 -1.97919,2.40334 -0.3733,1.10138 -0.624,1.45348 -1.083,1.52105 -0.54832,0.0807 -0.58163,0.0157 -0.40655,-0.79375 0.28278,-1.30745 1.35559,-3.3002 2.03157,-3.77368 1.3239,-0.9273 3.84194,-0.28358 4.47371,1.14369 l 0.34409,0.77735 0.77444,-0.65165 c 1.42277,-1.19718 2.69904,-1.68468 4.41052,-1.68468 4.05707,0 4.86569,2.21609 2.90782,7.96908 -1.25735,3.69463 -1.3521,4.73092 -0.43256,4.73092 0.95572,0 2.0248,-1.00321 2.70277,-2.53622 0.67961,-1.5367 0.89998,-1.76255 1.41134,-1.44651 0.79425,0.49088 -1.09625,3.85456 -2.60485,4.6347 -1.21521,0.6284 -2.75064,0.5221 -3.67334,-0.25431 -1.21034,-1.01842 -1.21518,-1.58339 -0.0439,-5.1118 1.33377,-4.01774 1.53765,-5.36168 0.94967,-6.25908 -0.35449,-0.54101 -0.65199,-0.66845 -1.56051,-0.66845 -1.54416,0 -2.76453,0.72218 -4.09197,2.42149 -1.00327,1.28434 -1.23849,1.87995 -2.16352,5.47866 -0.57081,2.22072 -1.1802,4.20916 -1.35414,4.41876 -0.43773,0.52743 -1.81343,0.49096 -2.0224,-0.0536 z m 23.05892,-0.0449 c -4.93107,-2.32174 -3.55031,-9.71604 2.33415,-12.49987 1.30995,-0.61971 2.00626,-0.77851 3.41427,-0.77868 2.908,-2.6e-4 4.18441,0.80091 4.18441,2.62672 0,1.5291 -1.21849,2.49327 -2.37125,1.87634 -0.74001,-0.39605 -0.71184,-1.67596 0.0526,-2.38814 0.50271,-0.46835 0.53258,-0.58873 0.19843,-0.8 -0.58311,-0.36869 -2.79947,-0.30877 -3.78325,0.10228 -2.02006,0.84403 -3.59465,3.34783 -4.16496,6.62277 -0.35602,2.0445 -0.0527,3.30228 0.99515,4.12652 1.50125,1.1809 5.49979,0.41395 7.71141,-1.47912 1.01161,-0.8659 1.89103,-1.05588 1.89103,-0.40853 0,0.51381 -1.78718,1.98863 -3.175,2.62009 -2.02147,0.91977 -5.7295,1.11294 -7.28699,0.37962 z M 50.440848,344.58 c -3.76129,-1.34356 -6.18117,-4.46997 -6.70502,-8.66261 -0.35872,-2.87127 0.8682,-6.44869 2.94436,-8.58489 1.70455,-1.75384 3.51999,-2.55957 6.086,-2.7011 4.32022,-0.23827 7.24088,1.655 7.24088,4.69379 0,1.31529 -0.71496,2.12981 -1.86947,2.12981 -1.13421,0 -1.73283,-0.38548 -2.06113,-1.32724 -0.35597,-1.0211 -0.0518,-1.86429 0.93337,-2.58719 l 0.74827,-0.54907 -1.05833,-0.45281 c -1.2595,-0.53887 -3.19098,-0.77029 -4.45302,-0.53353 -1.39906,0.26246 -3.21331,2.02233 -3.92237,3.80477 -0.51512,1.29489 -0.60312,2.00817 -0.61111,4.95236 -0.009,3.2467 0.0337,3.53272 0.75758,5.10035 1.27694,2.76512 3.12492,3.93383 5.8614,3.7069 2.07102,-0.17174 3.36407,-1.12766 4.41891,-3.26673 0.94398,-1.91431 1.68487,-2.22583 1.61105,-0.67741 -0.0829,1.73862 -2.3944,4.28115 -4.56181,5.01771 -1.19007,0.40443 -4.14822,0.3696 -5.35956,-0.0631 z m 19.05203,-0.12172 c -4.53683,-1.83072 -7.20476,-6.56888 -6.3382,-11.25652 0.63291,-3.42376 2.4706,-6.01633 5.38465,-7.59658 1.5667,-0.8496 1.79416,-0.89706 4.30003,-0.89706 2.51137,0 2.73082,0.0461 4.31824,0.90676 4.74861,2.57464 6.77076,8.67594 4.54393,13.71008 -0.71277,1.61127 -2.99379,3.90939 -4.71734,4.75264 -1.95998,0.95893 -5.59991,1.1439 -7.49131,0.38068 z m 6.18191,-1.60567 c 2.36456,-1.49955 3.28631,-4.28536 3.0484,-9.21296 -0.17156,-3.55311 -0.66098,-4.98986 -2.17519,-6.38563 -2.86155,-2.63767 -7.02932,-1.81678 -8.76951,1.72724 -0.73763,1.50223 -0.75996,1.66817 -0.75996,5.64874 0,3.72472 0.0564,4.22565 0.61452,5.45899 1.08691,2.40187 2.72714,3.50976 5.22065,3.52625 1.3267,0.009 1.81128,-0.12222 2.82109,-0.76263 z m 9.58387,1.75267 c -0.0725,-0.18891 -0.0985,-2.00461 -0.0578,-4.0349 0.0692,-3.45188 0.10726,-3.69142 0.58737,-3.69142 0.39314,0 0.61545,0.3409 0.94895,1.4552 1.238765,4.13891 3.334315,5.85913 6.659339,5.46664 2.55582,-0.30169 3.91403,-1.66308 3.91586,-3.92498 0.003,-2.24324 -1.32498,-3.2502 -5.47616,-4.15621 -2.864674,-0.62522 -4.207114,-1.25991 -5.301679,-2.50654 -2.60329,-2.96496 -1.15898,-7.26589 2.810195,-8.36842 1.594014,-0.44277 4.787374,-0.32012 5.999484,0.23043 1.04471,0.47452 1.08998,0.47436 1.68296,-0.006 0.33515,-0.27139 0.83432,-0.49344 1.10924,-0.49344 0.46342,0 0.49985,0.24103 0.49985,3.30729 0,3.26254 -0.008,3.30729 -0.60092,3.30729 -0.52411,0 -0.63923,-0.20159 -0.90064,-1.57713 -0.54917,-2.88976 -1.90791,-3.97911 -4.96305,-3.97911 -0.96496,0 -2.147364,0.16417 -2.627584,0.36482 -2.505955,1.04705 -2.710635,4.02937 -0.35891,5.22914 0.56539,0.28844 2.096244,0.75758 3.401914,1.04255 1.30564,0.28496 2.90179,0.76624 3.54698,1.06952 3.921313,1.84323 4.800173,6.79837 1.73357,9.77381 -1.54244,1.49656 -2.92727,1.92726 -5.77955,1.79751 -1.759304,-0.08 -2.268754,-0.21371 -3.224114,-0.84595 l -1.13464,-0.75089 -0.842995,0.81704 c -0.90321,0.87542 -1.41616,1.02467 -1.62764,0.47357 z m 28.789142,-0.32086 c -2.57059,-1.30675 -3.86805,-3.71938 -3.82344,-7.10975 0.0528,-4.01531 2.3255,-7.94945 6.08745,-10.53774 3.12965,-2.15327 7.39085,-2.41363 9.84684,-0.60165 2.01809,1.48888 3.03398,3.87964 3.33328,7.84423 l 0.17978,2.38157 0.79843,-1.27856 c 1.05373,-1.68736 2.21729,-4.27092 2.85854,-6.34698 0.40592,-1.31425 0.63092,-1.67846 1.03695,-1.67846 0.36748,0 0.51853,0.18063 0.51853,0.62004 0,1.60821 -2.28243,6.67075 -4.15319,9.21201 -1.08693,1.4765 -1.13848,1.63072 -1.13848,3.40636 0,1.8774 0.52041,3.69492 1.05797,3.69492 0.69289,0 1.78604,-0.82515 2.26062,-1.70642 0.53642,-0.99605 1.2363,-1.16067 1.39655,-0.32849 0.1184,0.61484 -1.09098,2.19046 -2.06983,2.69665 -1.12744,0.58302 -2.68174,0.49951 -3.69869,-0.19871 -0.72102,-0.49505 -1.09638,-1.01163 -2.03809,-2.80485 -0.0268,-0.0511 -0.4446,0.20905 -0.92839,0.57806 -0.48379,0.36901 -1.8128,1.11408 -2.95331,1.65571 -1.84793,0.87758 -2.35172,0.99695 -4.62785,1.09659 -2.36215,0.1034 -2.65867,0.0587 -3.94367,-0.59453 z m 6.90139,-1.05404 c 1.28834,-0.4374 3.85882,-1.8822 4.8205,-2.70947 0.52414,-0.45088 0.53705,-0.64458 0.3756,-5.62633 -0.18031,-5.56351 -0.4024,-6.56989 -1.76339,-7.99079 -2.39975,-2.50539 -7.31634,0.12109 -9.12379,4.87399 -1.43909,3.78423 -1.97985,8.38428 -1.16888,9.94296 0.40257,0.77375 1.37417,1.74052 2.00951,1.99954 0.63781,0.26002 3.49015,-0.0281 4.85045,-0.4899 z m 22.8174,-10.33907 c -0.56478,-0.5648 -0.52234,-1.22214 0.12372,-1.91559 0.58897,-0.6322 1.80965,-0.76993 2.31802,-0.26156 0.53051,0.53051 0.35695,1.46514 -0.37965,2.04455 -0.83251,0.65487 -1.49707,0.6976 -2.06209,0.1326 z"
       id="path21"
       inkscape:connector-curvature="0" />
  </g>
</svg>
