<?xml version="1.0" encoding="UTF-8" standalone="no"?>
<!-- Created with Inkscape (http://www.inkscape.org/) -->

<svg
   xmlns:dc="http://purl.org/dc/elements/1.1/"
   xmlns:cc="http://creativecommons.org/ns#"
   xmlns:rdf="http://www.w3.org/1999/02/22-rdf-syntax-ns#"
   xmlns:svg="http://www.w3.org/2000/svg"
   xmlns="http://www.w3.org/2000/svg"
   xmlns:sodipodi="http://sodipodi.sourceforge.net/DTD/sodipodi-0.dtd"
   xmlns:inkscape="http://www.inkscape.org/namespaces/inkscape"
   width="52.179153"
   height="163.10518"
   id="svg2"
   version="1.1"
   inkscape:version="0.92.2 (5c3e80d, 2017-08-06)"
   sodipodi:docname="BraketRight.svg">
  <title
     id="title3051">Nullset</title>
  <sodipodi:namedview
     id="base"
     pagecolor="#ffffff"
     bordercolor="#666666"
     borderopacity="1.0"
     inkscape:pageopacity="0.0"
     inkscape:pageshadow="2"
     inkscape:zoom="1.979899"
     inkscape:cx="33.175452"
     inkscape:cy="98.70834"
     inkscape:document-units="px"
     inkscape:current-layer="layer1"
     showgrid="false"
     inkscape:window-width="1366"
     inkscape:window-height="705"
     inkscape:window-x="-8"
     inkscape:window-y="-8"
     inkscape:window-maximized="1"
     fit-margin-top="0"
     fit-margin-left="0"
     fit-margin-right="0"
     fit-margin-bottom="0" />
  <defs
     id="defs4" />
  <metadata
     id="metadata7">
    <rdf:RDF>
      <cc:Work
         rdf:about="">
        <dc:format>image/svg+xml</dc:format>
        <dc:type
           rdf:resource="http://purl.org/dc/dcmitype/StillImage" />
        <dc:title>Nullset</dc:title>
        <dc:date>21/10/2011</dc:date>
        <dc:creator>
          <cc:Agent>
            <dc:title>Hugo Férée</dc:title>
          </cc:Agent>
        </dc:creator>
        <cc:license
           rdf:resource="http://creativecommons.org/licenses/by-sa/4.0/" />
      </cc:Work>
      <cc:License
         rdf:about="http://creativecommons.org/licenses/by-sa/4.0/">
        <cc:permits
           rdf:resource="http://creativecommons.org/ns#Reproduction" />
        <cc:permits
           rdf:resource="http://creativecommons.org/ns#Distribution" />
        <cc:requires
           rdf:resource="http://creativecommons.org/ns#Notice" />
        <cc:requires
           rdf:resource="http://creativecommons.org/ns#Attribution" />
        <cc:permits
           rdf:resource="http://creativecommons.org/ns#DerivativeWorks" />
        <cc:requires
           rdf:resource="http://creativecommons.org/ns#ShareAlike" />
      </cc:License>
    </rdf:RDF>
  </metadata>
  <g
     inkscape:label="Calque 1"
     inkscape:groupmode="layer"
     id="global"
     transform="translate(-42.096307,-48.298049)">
    <g
       id="g3013"
       transform="matrix(2.7748475,0,0,3.0804996,-869.54922,-930.595)">
      <g
         word-spacing="normal"
         letter-spacing="normal"
         font-size-adjust="none"
         font-stretch="normal"
         font-weight="normal"
         font-variant="normal"
         font-style="normal"
         stroke-miterlimit="10.433"
         xml:space="preserve"
         transform="matrix(1.0629921,0,0,-1.0629921,-186.02362,789.27165)"
         id="g3015"
         style="font-style:normal;font-variant:normal;font-weight:normal;font-stretch:normal;letter-spacing:normal;word-spacing:normal;text-anchor:start;fill:none;stroke:#000000;stroke-linecap:butt;stroke-linejoin:miter;stroke-miterlimit:10.43299961;stroke-dasharray:none;stroke-dashoffset:0;stroke-opacity:1"><path
           id="path3019"
           d="m 491.24,400.37 v -0.19 l -0.01,-0.2 -0.02,-0.2 -0.03,-0.21 -0.04,-0.21 -0.05,-0.21 -0.06,-0.22 -0.08,-0.22 -0.08,-0.22 -0.09,-0.22 -0.11,-0.22 -0.13,-0.22 -0.13,-0.21 -0.15,-0.22 -0.17,-0.21 -0.18,-0.21 -0.19,-0.2 -0.22,-0.19 -0.22,-0.19 -0.25,-0.19 -0.27,-0.17 -0.28,-0.17 -0.3,-0.15 -0.33,-0.15 -0.34,-0.14 -0.36,-0.12 -0.39,-0.12 -0.4,-0.1 -0.21,-0.04 -0.22,-0.04 -0.22,-0.04 -0.23,-0.03 -0.23,-0.03 -0.24,-0.03 -0.25,-0.02 -0.25,-0.02 c -0.25,-0.05 -0.44,-0.25 -0.44,-0.55 0,-0.54 0.55,-0.54 0.98,-0.54 4.85,0 9.47,2.43 9.52,6.21 v 11.36 c 0,1.96 0,3.55 2,5.19 1.75,1.45 3.64,1.55 4.73,1.6 0.25,0.04 0.46,0.25 0.46,0.54 0,0.5 -0.31,0.5 -0.8,0.55 -3.3,0.2 -5.69,2 -6.23,4.44 -0.16,0.54 -0.16,0.64 -0.16,2.43 v 9.88 c 0,2.08 0,3.69 -2.39,5.58 -1.98,1.54 -5.42,2.03 -7.13,2.03 -0.43,0 -0.98,0 -0.98,-0.55 0,-0.5 0.3,-0.5 0.8,-0.55 3.12,-0.18 5.58,-1.79 6.22,-4.32 0.15,-0.46 0.15,-0.55 0.15,-2.35 v -10.47 c 0,-2.28 0.39,-3.12 1.99,-4.73 1.04,-1.03 2.5,-1.53 3.89,-1.94 -4.08,-1.14 -5.88,-3.44 -5.88,-6.33 z"
           inkscape:connector-curvature="0"
           style="fill:#000000;stroke-width:0" /></g>    </g>
  </g>
</svg>
