<?xml version="1.0" encoding="UTF-8" standalone="no"?>
<!-- Created with Inkscape (http://www.inkscape.org/) -->

<svg
   xmlns:dc="http://purl.org/dc/elements/1.1/"
   xmlns:cc="http://creativecommons.org/ns#"
   xmlns:rdf="http://www.w3.org/1999/02/22-rdf-syntax-ns#"
   xmlns:svg="http://www.w3.org/2000/svg"
   xmlns="http://www.w3.org/2000/svg"
   xmlns:sodipodi="http://sodipodi.sourceforge.net/DTD/sodipodi-0.dtd"
   xmlns:inkscape="http://www.inkscape.org/namespaces/inkscape"
   width="52.179153"
   height="163.10518"
   id="svg2"
   version="1.1"
   inkscape:version="0.92.2 (5c3e80d, 2017-08-06)"
   sodipodi:docname="BracketLeft.svg">
  <title
     id="title3051">Nullset</title>
  <sodipodi:namedview
     id="base"
     pagecolor="#ffffff"
     bordercolor="#666666"
     borderopacity="1.0"
     inkscape:pageopacity="0.0"
     inkscape:pageshadow="2"
     inkscape:zoom="3.959798"
     inkscape:cx="52.660635"
     inkscape:cy="36.442654"
     inkscape:document-units="px"
     inkscape:current-layer="g3013"
     showgrid="false"
     inkscape:window-width="1366"
     inkscape:window-height="705"
     inkscape:window-x="-8"
     inkscape:window-y="-8"
     inkscape:window-maximized="1"
     fit-margin-top="0"
     fit-margin-left="0"
     fit-margin-right="0"
     fit-margin-bottom="0" />
  <defs
     id="defs4" />
  <metadata
     id="metadata7">
    <rdf:RDF>
      <cc:Work
         rdf:about="">
        <dc:format>image/svg+xml</dc:format>
        <dc:type
           rdf:resource="http://purl.org/dc/dcmitype/StillImage" />
        <dc:title>Nullset</dc:title>
        <dc:date>21/10/2011</dc:date>
        <dc:creator>
          <cc:Agent>
            <dc:title>Hugo Férée</dc:title>
          </cc:Agent>
        </dc:creator>
        <cc:license
           rdf:resource="http://creativecommons.org/licenses/by-sa/4.0/" />
      </cc:Work>
      <cc:License
         rdf:about="http://creativecommons.org/licenses/by-sa/4.0/">
        <cc:permits
           rdf:resource="http://creativecommons.org/ns#Reproduction" />
        <cc:permits
           rdf:resource="http://creativecommons.org/ns#Distribution" />
        <cc:requires
           rdf:resource="http://creativecommons.org/ns#Notice" />
        <cc:requires
           rdf:resource="http://creativecommons.org/ns#Attribution" />
        <cc:permits
           rdf:resource="http://creativecommons.org/ns#DerivativeWorks" />
        <cc:requires
           rdf:resource="http://creativecommons.org/ns#ShareAlike" />
      </cc:License>
    </rdf:RDF>
  </metadata>
  
<g id="global">
    <path
       inkscape:connector-curvature="0"
       id="path4141"
       d="m 0.9845457,0.299998 -0.0156,0 c 0,-0.015944 -0.00217,-0.031338 -0.00618,-0.046182 l 0.014989,-0.0055 0.014674,-0.0055 c 0.00494,0.01796 0.00757,0.037753 0.00757,0.057178 l -0.015449,0 z"
       style="fill:#000000;fill-opacity:1;fill-rule:evenodd;stroke:none" />
    <path
       inkscape:connector-curvature="0"
       id="path4143"
       d="m 0.9777513,0.248318 -0.014989,0.0055 c -0.00386,-0.014843 -0.00958,-0.028588 -0.016374,-0.0405 l 0.013133,-0.010263 0.012823,-0.010446 c 0.00803,0.014661 0.015139,0.031705 0.020082,0.050214 l -0.014674,0.0055 z"
       style="fill:#000000;fill-opacity:1;fill-rule:evenodd;stroke:none" />
    <path
       inkscape:connector-curvature="0"
       id="path4145-6"
       d="m 0.9595209,0.2030518 -0.013133,0.010263 c -0.00633,-0.010996 -0.013593,-0.020342 -0.021782,-0.027123 l 0.00896,-0.015211 0.00881,-0.015211 c 0.010816,0.00916 0.021167,0.021625 0.029972,0.036836 l -0.012823,0.010446 z"
       style="fill:#000000;fill-opacity:1;fill-rule:evenodd;stroke:none" />
    <path
       inkscape:connector-curvature="0"
       id="path4147"
       d="m 0.9335658,0.1709809 -0.00896,0.015211 c -0.00355,-0.00257 -0.0071,-0.00513 -0.010967,-0.00641 l 0.00525,-0.017593 0.0051,-0.01741 c 0.00633,0.00257 0.012357,0.0066 0.018381,0.010996 l -0.0088,0.015211 z"
       style="fill:#000000;fill-opacity:1;fill-rule:evenodd;stroke:none" />
    <path
       inkscape:connector-curvature="0"
       id="path4149"
       d="m 0.9188919,0.1621845 -0.00525,0.017593 c -0.00325,-0.00165 -0.00649,-0.00238 -0.00974,-0.00238 l 0,-0.018326 0,-0.01851 c 0.0068,0 0.013597,0.00128 0.020087,0.00422 l -0.0051,0.01741 z"
       style="fill:#000000;fill-opacity:1;fill-rule:evenodd;stroke:none" />
    <path
       inkscape:connector-curvature="0"
       id="path4151"
       d="m 0.9039036,0.1405594 0,0.01851 0,0.018326 -0.3228786,0 0,-0.018326 0,-0.01851 0.3228786,0 z"
       style="fill:#000000;fill-opacity:1;fill-rule:evenodd;stroke:none" />
    <path
       inkscape:connector-curvature="0"
       id="path4153"
       d="m 0.581025,0.1590693 0,0.018326 c -0.0068,0 -0.013748,-0.00128 -0.020237,-0.00422 l 0.00525,-0.01741 0.0051,-0.01741 c 0.00324,0.00165 0.00649,0.0022 0.00989,0.0022 l 0,0.01851 z"
       style="fill:#000000;fill-opacity:1;fill-rule:evenodd;stroke:none" />
    <path
       inkscape:connector-curvature="0"
       id="path4155"
       d="m 0.5660411,0.1557702 -0.00525,0.01741 c -0.00618,-0.00257 -0.012207,-0.00641 -0.01823,-0.010996 l 0.00865,-0.015028 0.00881,-0.015211 c 0.00355,0.00257 0.00727,0.00513 0.011126,0.00641 l -0.0051,0.01741 z"
       style="fill:#000000;fill-opacity:1;fill-rule:evenodd;stroke:none" />
    <path
       inkscape:connector-curvature="0"
       id="path4157"
       d="m 0.5512078,0.147157 -0.00865,0.015028 C 0.5315908,0.153205 0.5212398,0.14056 0.5125858,0.125349 l 0.012823,-0.010263 0.012823,-0.010263 c 0.00649,0.010813 0.013908,0.020342 0.021783,0.027123 l -0.00881,0.015211 z"
       style="fill:#000000;fill-opacity:1;fill-rule:evenodd;stroke:none" />
    <path
       inkscape:connector-curvature="0"
       id="path4159"
       d="m 0.5254077,0.1150862 -0.012823,0.010263 c -0.0085,-0.014478 -0.0156,-0.031522 -0.020392,-0.049664 l 0.014988,-0.0055 0.014674,-0.00586 c 0.00386,0.014844 0.00958,0.028406 0.016374,0.040502 l -0.012823,0.010263 z"
       style="fill:#000000;fill-opacity:1;fill-rule:evenodd;stroke:none" />
    <path
       inkscape:connector-curvature="0"
       id="path4161"
       d="m 0.5071817,0.0701868 -0.014989,0.0055 c -0.00494,-0.01851 -0.00772,-0.037936 -0.00772,-0.057179 l 0.015604,0 0.015449,0 c 0,0.015394 0.00217,0.031338 0.00633,0.045816 l -0.014674,0.00586 z"
       style="fill:#000000;fill-opacity:1;fill-rule:evenodd;stroke:none" />
    <path
       inkscape:connector-curvature="0"
       id="path4163"
       d="m 0.4844687,0.0185064 c 0,-0.0033 6.199e-4,-0.00623 0.00217,-0.00916 0.00139,-0.00312 0.00308,-0.00513 0.00571,-0.00678 0.00247,-0.00183 0.00494,-0.00257 0.00772,-0.00257 0.00263,0 0.0051,7.335e-4 0.00788,0.00257 0.00247,0.00165 0.00402,0.00367 0.00541,0.00641 0.00169,0.0033 0.00216,0.00623 0.00216,0.00953 l 0,0 -0.015449,0 -0.015604,0 z"
       style="fill:#000000;fill-opacity:1;fill-rule:evenodd;stroke:none" />
    <path
       inkscape:connector-curvature="0"
       id="path4165"
       d="m 0.5000728,0.0185064 0.015449,0 c 0,0.019243 -0.00263,0.038669 -0.00757,0.057179 l -0.014679,-0.0055 -0.014984,-0.00586 c 0.00402,-0.014478 0.00618,-0.030421 0.00618,-0.045816 l 0.015604,0 z"
       style="fill:#000000;fill-opacity:1;fill-rule:evenodd;stroke:none" />
    <path
       inkscape:connector-curvature="0"
       id="path4167"
       d="m 0.493274,0.0701868 0.014679,0.0055 c -0.00494,0.018142 -0.012051,0.035186 -0.020236,0.049664 L 0.474894,0.1150878 0.461917,0.1048248 c 0.0068,-0.012095 0.012512,-0.025656 0.016374,-0.040501 l 0.014984,0.00586 z"
       style="fill:#000000;fill-opacity:1;fill-rule:evenodd;stroke:none" />
    <path
       inkscape:connector-curvature="0"
       id="path4169"
       d="m 0.4748929,0.1150862 0.012823,0.010263 c -0.00865,0.015211 -0.019002,0.027856 -0.029972,0.036836 l -0.00865,-0.015028 -0.00896,-0.015211 c 0.00819,-0.00678 0.015449,-0.01631 0.021783,-0.027123 l 0.012977,0.010263 z"
       style="fill:#000000;fill-opacity:1;fill-rule:evenodd;stroke:none" />
    <path
       inkscape:connector-curvature="0"
       id="path4171"
       d="m 0.4490928,0.147157 0.00865,0.015028 c -0.00587,0.00458 -0.011897,0.00843 -0.018229,0.010996 l -0.0051,-0.01741 -0.00525,-0.01741 c 0.00386,-0.00128 0.00742,-0.00348 0.010968,-0.00641 l 0.00896,0.015211 z"
       style="fill:#000000;fill-opacity:1;fill-rule:evenodd;stroke:none" />
    <path
       inkscape:connector-curvature="0"
       id="path4173"
       d="m 0.4344158,0.1557702 0.0051,0.01741 c -0.00649,0.00293 -0.013286,0.00422 -0.020084,0.00422 l 0,-0.018326 0,-0.01851 c 0.00324,0 0.00649,-5.492e-4 0.00973,-0.0022 l 0.00525,0.01741 z"
       style="fill:#000000;fill-opacity:1;fill-rule:evenodd;stroke:none" />
    <path
       inkscape:connector-curvature="0"
       id="path4175"
       d="m 0.4194306,0.1405594 0,0.01851 0,0.018326 -0.3230345,0 0,-0.018326 0,-0.01851 0.3230345,0 z"
       style="fill:#000000;fill-opacity:1;fill-rule:evenodd;stroke:none" />
    <path
       inkscape:connector-curvature="0"
       id="path4177"
       d="m 0.0963961,0.1590693 0,0.018326 c -0.00324,0 -0.00649,7.335e-4 -0.00973,0.00238 l -0.00525,-0.017593 -0.0051,-0.01741 c 0.00649,-0.00293 0.013286,-0.00422 0.020084,-0.00422 l 0,0.01851 z"
       style="fill:#000000;fill-opacity:1;fill-rule:evenodd;stroke:none" />
    <path
       inkscape:connector-curvature="0"
       id="path4179"
       d="m 0.0814109,0.1621845 0.00525,0.017593 c -0.00386,0.00128 -0.00757,0.00384 -0.011123,0.00641 l -0.00881,-0.015211 -0.00865,-0.015211 c 0.00603,-0.00439 0.011895,-0.00843 0.018229,-0.010996 l 0.0051,0.01741 z"
       style="fill:#000000;fill-opacity:1;fill-rule:evenodd;stroke:none" />
    <path
       inkscape:connector-curvature="0"
       id="path4181"
       d="m 0.0667347,0.1709809 0.00881,0.015211 c -0.00803,0.00678 -0.015294,0.016127 -0.021937,0.027123 L 0.0409397,0.2030526 0.0281167,0.1926065 c 0.00865,-0.015211 0.019002,-0.027672 0.029971,-0.036836 l 0.00865,0.015211 z"
       style="fill:#000000;fill-opacity:1;fill-rule:evenodd;stroke:none" />
    <path
       inkscape:connector-curvature="0"
       id="path4183"
       d="m 0.040935,0.2030518 0.012668,0.010263 c -0.0068,0.011912 -0.012514,0.02584 -0.016221,0.040501 l -0.014831,-0.0055 -0.014985,-0.0055 c 0.00494,-0.018509 0.01205,-0.035553 0.020547,-0.050214 l 0.012823,0.010446 z"
       style="fill:#000000;fill-opacity:1;fill-rule:evenodd;stroke:none" />
    <path
       inkscape:connector-curvature="0"
       id="path4185"
       d="m 0.022551,0.248318 0.014831,0.0055 C 0.033212,0.268662 0.031052,0.284056 0.031052,0.3 L 0.015603,0.3 0,0.3 C 0,0.280574 0.00278,0.260782 0.00757,0.242822 l 0.014985,0.0055 z"
       style="fill:#000000;fill-opacity:1;fill-rule:evenodd;stroke:none" />
    <path
       inkscape:connector-curvature="0"
       id="path4187"
       d="m 0.9845457,0.0185064 0,0 0,0 0,0 0,0 0,0 0,0 z"
       style="fill:#000000;fill-opacity:1;fill-rule:evenodd;stroke:none" />
    <path
       inkscape:connector-curvature="0"
       id="path4189"
       d="m 0.015599,0.299998 0,0 0,0 0,0 0,0 0,0 0,0 z"
       style="fill:#000000;fill-opacity:1;fill-rule:evenodd;stroke:none" />
    </g>

</svg>
