<?xml version="1.0" encoding="UTF-8" standalone="no"?>
<svg
   xmlns:dc="http://purl.org/dc/elements/1.1/"
   xmlns:cc="http://creativecommons.org/ns#"
   xmlns:rdf="http://www.w3.org/1999/02/22-rdf-syntax-ns#"
   xmlns:svg="http://www.w3.org/2000/svg"
   xmlns="http://www.w3.org/2000/svg"
   xmlns:sodipodi="http://sodipodi.sourceforge.net/DTD/sodipodi-0.dtd"
   xmlns:inkscape="http://www.inkscape.org/namespaces/inkscape"
   version="1.1"
   id="svg2"
   viewBox="0 0 420 315"
   preserveAspectRatio="none"
   width="420"
   height="315"
   inkscape:version="0.91 r13725"
   sodipodi:docname="drawing.svg">
  <sodipodi:namedview
     pagecolor="#ffffff"
     bordercolor="#666666"
     borderopacity="1"
     objecttolerance="10"
     gridtolerance="10"
     guidetolerance="10"
     inkscape:pageopacity="0"
     inkscape:pageshadow="2"
     inkscape:window-width="1366"
     inkscape:window-height="705"
     id="namedview67"
     showgrid="false"
     fit-margin-top="0"
     fit-margin-left="0"
     fit-margin-right="0"
     fit-margin-bottom="0"
     inkscape:zoom="0.472"
     inkscape:cx="-177.90403"
     inkscape:cy="-153.65866"
     inkscape:window-x="-8"
     inkscape:window-y="-8"
     inkscape:window-maximized="1"
     inkscape:current-layer="svg2" />
  <defs
     id="defs4">
    <clipPath
       clipPathUnits="userSpaceOnUse"
       id="clipPath4152">
      <path
         d="m 2.59e-6,1.709e-5 560.0000074099999,0 0,419.99999291 -560.0000074099999,0 0,-419.99999291 z"
         id="path4154"
         inkscape:connector-curvature="0" />
    </clipPath>
  </defs>
  <metadata
     id="metadata7">
    <rdf:RDF>
      <cc:Work
         rdf:about="">
        <dc:format>image/svg+xml</dc:format>
        <dc:type
           rdf:resource="http://purl.org/dc/dcmitype/StillImage" />
        <dc:title></dc:title>
      </cc:Work>
    </rdf:RDF>
  </metadata>
  <g
     id="layer1"
     transform="translate(-87.637776,578.55512)">
    <g
       id="g4144"
       transform="scale(1,-1)">
      <g
         id="g4146"
         transform="matrix(0.24,0,0,-0.24,0,842)">
        <g
           id="g4148"
           transform="matrix(3.1250001,0,0,3.1250001,365.1574,1097.687)">
          <g
             id="g4150"
             clip-path="url(#clipPath4152)">
            <path
               d="M 0,0 560,0 560,420 0,420 0,0 Z"
               style="fill:#ffffff;fill-opacity:1;fill-rule:nonzero;stroke:none"
               id="path4156"
               inkscape:connector-curvature="0" />
          </g>
        </g>
        <g
           id="g4158"
           transform="matrix(3.1250001,0,0,3.1250001,365.1574,1097.687)">
          <path
             d="M 0,0 560,0 560,420 0,420 0,0 Z"
             style="fill:#ffffff;fill-opacity:1;fill-rule:nonzero;stroke:none"
             id="path4160"
             inkscape:connector-curvature="0" />
        </g>
        <g
           id="g4162"
           transform="matrix(3.1250001,0,0,3.1250001,365.1574,1097.687)">
          <path
             d="M 73.000008,374 507,374 507,31 73.000008,31 l 0,343 z"
             style="fill:#ffffff;fill-opacity:1;fill-rule:nonzero;stroke:none"
             id="path4164"
             inkscape:connector-curvature="0" />
        </g>
        <g
           id="g4166"
           transform="matrix(3.1250001,0,0,3.1250001,365.1574,1097.687)">
          <path
             d="M 73.000008,374 507,374"
             style="fill:none;stroke:#262626;stroke-width:0.66666698;stroke-linecap:square;stroke-linejoin:round;stroke-miterlimit:10;stroke-dasharray:none;stroke-opacity:1"
             id="path4168"
             inkscape:connector-curvature="0" />
        </g>
        <g
           id="g4170"
           transform="matrix(3.1250001,0,0,3.1250001,365.1574,1097.687)">
          <path
             d="M 73.000008,31 507,31"
             style="fill:none;stroke:#262626;stroke-width:0.66666698;stroke-linecap:square;stroke-linejoin:round;stroke-miterlimit:10;stroke-dasharray:none;stroke-opacity:1"
             id="path4172"
             inkscape:connector-curvature="0" />
        </g>
        <g
           id="g4174"
           transform="matrix(3.1250001,0,0,3.1250001,365.1574,1097.687)">
          <path
             d="m 123.07692,374 0,-4.34"
             style="fill:none;stroke:#262626;stroke-width:0.66666698;stroke-linecap:square;stroke-linejoin:round;stroke-miterlimit:10;stroke-dasharray:none;stroke-opacity:1"
             id="path4176"
             inkscape:connector-curvature="0" />
        </g>
        <g
           id="g4178"
           transform="matrix(3.1250001,0,0,3.1250001,365.1574,1097.687)">
          <path
             d="m 206.53847,374 0,-4.34"
             style="fill:none;stroke:#262626;stroke-width:0.66666698;stroke-linecap:square;stroke-linejoin:round;stroke-miterlimit:10;stroke-dasharray:none;stroke-opacity:1"
             id="path4180"
             inkscape:connector-curvature="0" />
        </g>
        <g
           id="g4182"
           transform="matrix(3.1250001,0,0,3.1250001,365.1574,1097.687)">
          <path
             d="m 290,374 0,-4.34"
             style="fill:none;stroke:#262626;stroke-width:0.66666698;stroke-linecap:square;stroke-linejoin:round;stroke-miterlimit:10;stroke-dasharray:none;stroke-opacity:1"
             id="path4184"
             inkscape:connector-curvature="0" />
        </g>
        <g
           id="g4186"
           transform="matrix(3.1250001,0,0,3.1250001,365.1574,1097.687)">
          <path
             d="m 373.46155,374 0,-4.34"
             style="fill:none;stroke:#262626;stroke-width:0.66666698;stroke-linecap:square;stroke-linejoin:round;stroke-miterlimit:10;stroke-dasharray:none;stroke-opacity:1"
             id="path4188"
             inkscape:connector-curvature="0" />
        </g>
        <g
           id="g4190"
           transform="matrix(3.1250001,0,0,3.1250001,365.1574,1097.687)">
          <path
             d="m 456.92307,374 0,-4.34"
             style="fill:none;stroke:#262626;stroke-width:0.66666698;stroke-linecap:square;stroke-linejoin:round;stroke-miterlimit:10;stroke-dasharray:none;stroke-opacity:1"
             id="path4192"
             inkscape:connector-curvature="0" />
        </g>
        <g
           id="g4194"
           transform="matrix(3.1250001,0,0,3.1250001,365.1574,1097.687)">
          <path
             d="m 123.07692,31 0,4.339996"
             style="fill:none;stroke:#262626;stroke-width:0.66666698;stroke-linecap:square;stroke-linejoin:round;stroke-miterlimit:10;stroke-dasharray:none;stroke-opacity:1"
             id="path4196"
             inkscape:connector-curvature="0" />
        </g>
        <g
           id="g4198"
           transform="matrix(3.1250001,0,0,3.1250001,365.1574,1097.687)">
          <path
             d="m 206.53847,31 0,4.339996"
             style="fill:none;stroke:#262626;stroke-width:0.66666698;stroke-linecap:square;stroke-linejoin:round;stroke-miterlimit:10;stroke-dasharray:none;stroke-opacity:1"
             id="path4200"
             inkscape:connector-curvature="0" />
        </g>
        <g
           id="g4202"
           transform="matrix(3.1250001,0,0,3.1250001,365.1574,1097.687)">
          <path
             d="m 290,31 0,4.339996"
             style="fill:none;stroke:#262626;stroke-width:0.66666698;stroke-linecap:square;stroke-linejoin:round;stroke-miterlimit:10;stroke-dasharray:none;stroke-opacity:1"
             id="path4204"
             inkscape:connector-curvature="0" />
        </g>
        <g
           id="g4206"
           transform="matrix(3.1250001,0,0,3.1250001,365.1574,1097.687)">
          <path
             d="m 373.46155,31 0,4.339996"
             style="fill:none;stroke:#262626;stroke-width:0.66666698;stroke-linecap:square;stroke-linejoin:round;stroke-miterlimit:10;stroke-dasharray:none;stroke-opacity:1"
             id="path4208"
             inkscape:connector-curvature="0" />
        </g>
        <g
           id="g4210"
           transform="matrix(3.1250001,0,0,3.1250001,365.1574,1097.687)">
          <path
             d="m 456.92307,31 0,4.339996"
             style="fill:none;stroke:#262626;stroke-width:0.66666698;stroke-linecap:square;stroke-linejoin:round;stroke-miterlimit:10;stroke-dasharray:none;stroke-opacity:1"
             id="path4212"
             inkscape:connector-curvature="0" />
        </g>
        <g
           id="g4214">
          <g
             id="g4216"
             transform="matrix(3.1250001,0,0,3.1250001,749.77278,2283.1037)">
            <text
               transform="translate(-6,14)"
               style="font-variant:normal;font-weight:normal;font-size:13.33300018px;font-family:Helvetica;-inkscape-font-specification:Helvetica;writing-mode:lr-tb;fill:#262626;fill-opacity:1;fill-rule:nonzero;stroke:none"
               id="text4218">
              <tspan
                 x="0 4.439889"
                 y="0"
                 id="tspan4220">-4</tspan>
            </text>
          </g>
        </g>
        <g
           id="g4222">
          <g
             id="g4224"
             transform="matrix(3.1250001,0,0,3.1250001,1010.5901,2283.1037)">
            <text
               transform="translate(-6,14)"
               style="font-variant:normal;font-weight:normal;font-size:13.33300018px;font-family:Helvetica;-inkscape-font-specification:Helvetica;writing-mode:lr-tb;fill:#262626;fill-opacity:1;fill-rule:nonzero;stroke:none"
               id="text4226">
              <tspan
                 x="0 4.439889"
                 y="0"
                 id="tspan4228">-2</tspan>
            </text>
          </g>
        </g>
        <g
           id="g4230">
          <g
             id="g4232"
             transform="matrix(3.1250001,0,0,3.1250001,1271.4074,2283.1037)">
            <text
               transform="translate(-4,14)"
               style="font-variant:normal;font-weight:normal;font-size:13.33300018px;font-family:Helvetica;-inkscape-font-specification:Helvetica;writing-mode:lr-tb;fill:#262626;fill-opacity:1;fill-rule:nonzero;stroke:none"
               id="text4234">
              <tspan
                 x="0"
                 y="0"
                 id="tspan4236">0</tspan>
            </text>
          </g>
        </g>
        <g
           id="g4238">
          <g
             id="g4240"
             transform="matrix(3.1250001,0,0,3.1250001,1532.2248,2283.1037)">
            <text
               transform="translate(-4,14)"
               style="font-variant:normal;font-weight:normal;font-size:13.33300018px;font-family:Helvetica;-inkscape-font-specification:Helvetica;writing-mode:lr-tb;fill:#262626;fill-opacity:1;fill-rule:nonzero;stroke:none"
               id="text4242">
              <tspan
                 x="0"
                 y="0"
                 id="tspan4244">2</tspan>
            </text>
          </g>
        </g>
        <g
           id="g4246">
          <g
             id="g4248"
             transform="matrix(3.1250001,0,0,3.1250001,1793.042,2283.1037)">
            <text
               transform="translate(-4,14)"
               style="font-variant:normal;font-weight:normal;font-size:13.33300018px;font-family:Helvetica;-inkscape-font-specification:Helvetica;writing-mode:lr-tb;fill:#262626;fill-opacity:1;fill-rule:nonzero;stroke:none"
               id="text4250">
              <tspan
                 x="0"
                 y="0"
                 id="tspan4252">4</tspan>
            </text>
          </g>
        </g>
        <g
           id="g4254"
           transform="matrix(3.1250001,0,0,3.1250001,365.1574,1097.687)">
          <path
             d="m 73.000008,374 0,-343"
             style="fill:none;stroke:#262626;stroke-width:0.66666698;stroke-linecap:square;stroke-linejoin:round;stroke-miterlimit:10;stroke-dasharray:none;stroke-opacity:1"
             id="path4256"
             inkscape:connector-curvature="0" />
        </g>
        <g
           id="g4258"
           transform="matrix(3.1250001,0,0,3.1250001,365.1574,1097.687)">
          <path
             d="M 507,374 507,31"
             style="fill:none;stroke:#262626;stroke-width:0.66666698;stroke-linecap:square;stroke-linejoin:round;stroke-miterlimit:10;stroke-dasharray:none;stroke-opacity:1"
             id="path4260"
             inkscape:connector-curvature="0" />
        </g>
        <g
           id="g4262"
           transform="matrix(3.1250001,0,0,3.1250001,365.1574,1097.687)">
          <path
             d="m 72.956612,372.97424 0.0434,0.22907 0.166908,-2.51486 0.166931,2.00436 0.166916,-0.6973 0.166931,-0.64602 0.166931,1.89163 0.166909,0.14197 0.166931,-1.01917 0.166908,-0.65378 0.166931,-0.39233 0.166931,1.39975 0.166916,0.13217 0.166931,0.005 0.166931,-1.66256 0.166909,0.4274 0.166931,0.88467 0.166908,-1.43536 0.166931,1.37332 0.166931,0.67303 0.166909,-0.24286 0.166931,-0.92572 0.166916,-0.67437 0.166931,0.52694 0.166931,1.28308 0.166908,-0.88495 0.166931,1.00596 0.166909,-2.67688 0.166931,2.02822 0.166931,-0.77255 0.166916,-0.69488 0.166931,2.03729 0.166908,0.25986 0.166931,-1.12928 0.166932,-0.71844 0.166908,-0.43463 0.166931,1.40146 0.166916,0.1799 0.166931,0.0844 0.166931,-1.6799 0.166909,0.35504 0.166931,0.89685 0.166931,-1.55731 0.166908,1.45068 0.166931,0.79697 0.166916,-0.19922 0.166924,-1.04736 0.166931,-0.71567 0.166916,0.46741 0.166931,1.34634 0.166908,-0.8284 0.166931,1.15057 0.166931,-2.8602 0.166909,2.04078 0.166931,-0.85773 0.166916,-0.7421 0.166931,2.19937 0.166931,0.40098 0.166908,-1.25766 0.166931,-0.79813 0.166909,-0.48627 0.166931,1.39652 0.166931,0.24521 0.166916,0.18447 0.166931,-1.69723 0.166931,0.26157 0.166908,0.90182 0.166932,-1.68893 0.166908,1.53845 0.166931,0.94732 0.166931,-0.14971 0.166908,-1.19339 0.166932,-0.77109 0.166916,0.39956 0.166931,1.4115 0.166931,-0.74527 0.166908,1.32132 0.166931,-3.07156 0.166908,2.03699 0.166932,-0.95539 0.166931,-0.78631 0.166916,2.38266 0.166931,0.57318 0.166908,-1.40958 0.166931,-0.89923 0.166931,-0.55084 0.166909,1.38538 0.166931,0.332 0.166916,0.31219 0.166931,-1.71475 0.166931,0.1394 0.166908,0.89521 0.166931,-1.83146 0.166932,1.64017 0.166908,1.13376 0.166931,-0.0924 0.166916,-1.37268 0.166923,-0.84683 0.166932,0.32117 0.166915,1.4822 0.166932,-0.62927 0.166908,1.52786 0.166931,-3.32113 0.166931,2.00915 0.166908,-1.06927 0.166932,-0.8255 0.166915,2.59411 0.166932,0.78852 0.166931,-1.59268 0.166908,-1.03171 0.166931,-0.63376 0.166908,1.36841 0.166932,0.44638 0.166931,0.47839 0.166916,-1.7326 0.166931,-0.023 0.166931,0.86978 0.166908,-1.98636 0.166931,1.76111 0.166909,1.37051 0.166931,-0.0236 0.166931,-1.59909 0.166908,-0.95264 0.166931,0.22861 0.166916,1.56329 0.166931,-0.46969 0.166932,1.78537 0.166908,-3.62491 0.166931,1.94494 0.166908,-1.20529 0.166931,-0.85656 0.166932,2.84451 0.166915,1.06607 0.166932,-1.81894 0.166908,-1.21152 0.166931,-0.74371 0.166931,1.34592 0.166908,0.59832 0.166932,0.70057 0.166931,-1.75113 0.166916,-0.24472 0.166931,0.81359 0.166908,-2.156 0.166931,1.91 0.166931,1.67966 0.166909,0.0639 0.166931,-1.89557 0.166916,-1.10464 0.166923,0.11594 0.166931,1.66201 0.166916,-0.24844 0.166931,2.11914 0.166909,-4.00952 0.166931,1.82346 0.166931,-1.37354 0.166908,-0.87451 0.166931,3.15173 0.166916,1.4375 0.166931,-2.10757 0.166932,-1.46604 0.166908,-0.89587 0.166931,1.31824 0.166908,0.80496 0.166923,1.00857 0.16694,-1.77087 0.16691,-0.5585 0.16693,0.70535 0.16693,-2.34451 0.16691,2.10168 0.16693,2.0979 0.16691,0.18524 0.16693,-2.30261 0.16693,-1.33185 0.16691,-0.0278 0.16693,1.79059 0.16692,0.067 0.16693,2.5748 0.16693,-4.52317 0.16691,1.60639 0.16693,-1.59244 0.16691,-0.871 0.16693,3.54797 0.16693,1.95883 0.16692,-2.4917 0.16693,-1.84619 0.16691,-1.1188 0.16693,1.28564 0.16693,1.09781 0.16691,1.45844 0.16693,-1.79294 0.16693,-1.02698 0.16692,0.50369 0.16693,-2.5603 0.1669,2.36429 0.16694,2.69177 0.16693,0.37302 0.16691,-2.89951 0.16693,-1.69186 0.16691,-0.22431 0.16693,1.97196 0.16693,0.54074 0.16691,3.24322 0.16693,-5.26263 0.16691,1.21573 0.16693,-1.90039 0.16693,-0.83072 0.16691,4.09833 0.16693,2.73922 0.16692,-3.03445 0.16693,-2.45813 0.16693,-1.47363 0.16691,1.24746 0.16693,1.54233 0.16691,2.16843 0.16693,-1.81989 0.16693,-1.78619 0.16692,0.117 0.16693,-2.82373 0.16693,2.75797 0.16691,3.6001 0.16693,0.70645 0.16691,-3.86463 0.16693,-2.31683 0.16693,-0.52567 0.16691,2.25562 0.16693,1.31839 0.16692,4.33511 0.16693,-6.45544 0.16693,0.46445 0.16691,-2.39237 0.16693,-0.72241 0.16691,4.95712 0.16693,4.03049 0.16693,-3.88013 0.16691,-3.56637 0.16694,-2.11866 0.1669,1.19669 0.16693,2.29965 0.16694,3.43988 0.1669,-1.86011 0.16694,-3.19686 0.16693,-0.70493 0.16691,-3.19882 0.16693,3.43735 0.16691,5.1846 0.16693,1.41357 0.16693,-5.70062 0.16691,-3.5918 0.16693,-1.09289 0.16692,2.77157 0.16692,2.81699 0.16693,6.475 0.16692,-8.79373 0.16693,-1.23391 0.16691,-3.38392 0.16693,-0.47421 0.16693,6.60065 0.16691,6.62826 0.16693,-5.50528 0.16692,-6.07104 0.16693,-3.62634 0.16693,1.07141 0.16691,3.90198 0.16693,6.33395 0.16693,-1.95718 0.16691,-6.63654 0.16693,-2.9715 0.16692,-4.00717 0.16693,4.95007 0.16693,8.84855 0.16691,3.43496 0.16693,-10.59076 0.16691,-7.30246 0.16693,-2.78369 0.16693,3.97647 0.16691,6.90772 0.16693,12.69037 0.16691,-15.85407 0.16693,-7.14142 0.16693,-6.87732 0.16691,-0.0315 0.16693,11.53366 0.16691,15.31256 0.16693,-11.20767 0.16693,-16.37234 0.16692,-10.74601 0.16693,-0.51403 0.16691,9.60272 0.16693,19.12295 0.16693,-2.94488 0.16691,-26.54288 0.16693,-19.68723 0.16693,-12.59857 0.16692,9.94602 0.16693,30.87967 0.16691,19.78436 0.16693,-66.02341 0.16693,-73.44763 0.16691,-72.48823 0.16693,-60.084867 0.16691,-42.411655 0.16693,-12.69285 0.16692,16.489672 0.16693,36.296527 0.16693,62.114003 0.16691,74.26185 0.16693,71.8694 0.16692,66.13458 0.16693,-19.79776 0.16692,-30.38876 0.16692,-8.98987 0.16692,8.82303 0.16692,22.6731 0.16693,29.52206 0.16693,2.96506 0.16692,-22.11875 0.16691,-12.80407 0.16693,4.57858 0.16693,9.75452 0.16692,15.62497 0.16692,11.44143 0.16692,-15.33929 0.16693,-10.11759 0.16692,-1.6213 0.16692,4.94323 0.16693,13.05341 0.16691,12.13193 0.16693,-8.85904 0.16693,-13.21707 0.16692,-1.85297 0.16692,4.63596 0.16692,5.58676 0.16693,10.73849 0.16692,-3.26935 0.16693,-8.51297 0.16691,-4.03613 0.16694,0.53369 0.16691,5.74198 0.16693,9.59469 0.16692,2.00891 0.16691,-9.333 0.16694,-7.32053 0.16693,3.26752 0.16691,2.60916 0.16692,5.00677 0.16693,5.90525 0.16693,-6.47034 0.16692,-5.36133 0.16691,-1.02222 0.16693,1.54624 0.16693,6.93564 0.16692,5.15265 0.16692,-2.62992 0.16693,-9.30145 0.16691,-0.55399 0.16693,2.97007 0.16692,1.77679 0.16693,5.871 0.16692,-1.19067 0.16693,-4.85837 0.16691,-2.57107 0.16694,0.0409 0.16691,3.25833 0.16692,6.13034 0.16693,1.46765 0.16691,-5.96231 0.16694,-5.93887 0.16691,3.39874 0.16692,1.08963 0.16693,2.1517 0.16693,4.39011 0.16692,-3.61731 0.16691,-3.90045 0.16693,-0.58493 0.16693,0.65314 0.16692,5.01947 0.16692,2.90094 0.16693,-0.5503 0.16693,-7.90692 0.16691,0.0565 0.16692,2.3577 0.16693,0.45755 0.16692,4.057 0.16693,-0.57937 0.16691,-3.11997 0.16693,-1.94397 0.16692,-0.004 0.16693,2.21604 0.16692,4.68972 0.16693,-0.0459 0.16691,-3.17902 0.16692,-5.40802 0.16693,3.58057 0.16693,0.45309 0.16692,0.67438 0.16691,3.68255 0.16694,-2.10675 0.16693,-3.22116 0.16691,-0.25403 0.16692,0.26233 0.16693,4.04132 0.16693,1.80036 0.16692,0.0579 0.16691,-6.8143 0.16693,0.43585 0.16692,1.92328 0.16693,-0.13873 0.16692,3.11789 0.16693,-0.46332 0.16691,-1.93143 0.16694,-1.60699 0.16691,0.0815 0.16693,1.60388 0.16692,3.89072 0.16691,-0.9513 0.16694,-1.54113 0.16691,-5.19825 0.16693,3.7414 0.16692,0.13672 0.16691,-0.31852 0.16694,3.32544 0.16693,-1.17996 0.16691,-2.8367 0.16692,0.0456 0.16693,0.0594 0.16693,3.4126 0.16692,1.1593 0.16691,-0.33209 0.16693,-5.45719 0.16693,0.7147 0.16692,1.49292 0.16692,-0.38514 0.16693,2.55271 0.16693,-0.55597 0.16691,-0.99167 0.16692,-1.4057 0.16693,0.23657 0.16692,1.16962 0.16693,3.35824 0.16691,-1.52658 0.16694,-0.46289 0.16691,-5.15161 0.16692,3.86127 0.16693,-0.005 0.16693,-1.08963 0.16692,3.16162 0.16691,-0.58673 0.16693,-2.58167 0.16693,0.35093 0.16692,-0.0496 0.16692,2.94351 0.16693,0.75104 0.16693,-0.79584 0.16691,-4.40564 0.16692,0.94363 0.16693,1.01535 0.16692,-0.41607 0.16693,2.18365 0.16691,-0.73978 0.16694,-0.20117 0.16691,-1.28076 0.16693,0.44684 0.16692,0.81946 0.16693,2.91617 0.16692,-1.8718 0.16691,0.31207 0.16693,-5.2066 0.16692,3.92517 0.16693,-0.0206 0.16692,-1.74555 0.16693,3.11957 0.16691,-0.21658 0.16693,-2.38516 0.16692,0.68457 0.16692,-0.10117 0.16693,2.55277 0.16693,0.47964 0.16691,-1.19348 0.16692,-3.64731 0.16693,1.14685 0.16693,0.48343 0.16692,-0.30612 0.16691,1.93167 0.16693,-0.96905 0.16694,0.49319 0.16691,-1.20529 0.16692,0.71097 0.16693,0.50988 0.16691,2.48935 0.16694,-2.04141 0.16691,0.90607 0.16693,-5.33682 0.16692,3.92419 0.16691,0.0699 0.16694,-2.33963 0.16693,3.16471 0.16691,-0.005 0.16692,-2.22128 0.16693,1.06396 0.16693,-0.11172 0.16692,2.19793 0.16691,0.29807 0.16693,-1.54025 0.16693,-3.09247 0.16692,1.33828 0.16692,-0.0947 0.16693,-0.10675 0.16691,1.75635 0.16693,-1.22995 0.16692,1.12924 0.16693,-1.16638 0.16692,1.03283 0.16693,0.2182 0.16691,2.1196 0.16692,-2.14609 0.16693,1.38501 0.16692,-5.53189 0.16693,3.8613 0.16691,0.24713 0.16694,-2.90381 0.16691,3.2811 0.16693,0.0962 0.16692,-2.09033 0.16693,1.50519 0.16692,-0.0884 0.16691,1.85284 0.16693,0.18119 0.16693,-1.85627 0.16692,-2.68234 0.16692,1.52741 0.16693,-0.71256 0.16693,0.14826 0.16691,1.63531 0.16692,-1.52301 0.16693,1.73776 0.16693,-1.15844 0.16692,1.41656 0.16691,-0.0653 0.16694,1.8237 0.16691,-2.2431 0.16693,1.78799 0.16692,-5.79074 0.16693,3.75193 0.16692,0.48712 0.16691,-3.4621 0.16693,3.46411 0.16693,0.12494 0.16692,-2.00317 0.16692,2.02569 0.16693,-0.0333 0.16693,1.49783 0.16691,0.11588 0.16692,-2.15812 0.16693,-2.38122 0.16693,1.72229 0.16692,-1.37314 0.16691,0.44107 0.16693,1.55554 0.16694,-1.85663 0.16691,2.34726 0.16692,-1.18084 0.16693,1.8583 0.16691,-0.33389 0.16694,1.59494 0.16691,-2.3515 0.16692,2.13977 0.16693,-6.11932 0.16691,3.6167 0.16694,0.76641 0.16691,-4.03848 0.16693,3.71759 0.16692,0.10605 0.16693,-1.97174 0.16692,2.64703 0.16693,0.054 0.16691,1.11536 0.16692,0.0973 0.16693,-2.46039 0.16693,-2.16809 0.16692,1.93124 0.16691,-2.09091 0.16693,0.76636 0.16694,1.50976 0.16691,-2.24612 0.16692,2.98865 0.16693,-1.23703 0.16693,2.32049 0.16692,-0.53934 0.16691,1.42676 0.16693,-2.48266 0.16692,2.45581 0.16693,-6.52973 0.16692,3.4737 0.16693,1.07028 0.16691,-4.66321 0.16693,4.05426 0.16692,0.0531 0.16693,-2.00787 0.16692,3.39856 0.16691,0.17373 0.16693,0.6893 0.16693,0.12873 0.16692,-2.77835 0.16692,-2.03229 0.16693,2.16455 0.16693,-2.89395 0.16691,1.12912 0.16692,1.49472 0.16693,-2.71555 0.16693,3.70062 0.16692,-1.33508 0.16691,2.67844 0.16694,-0.53711 0.16691,1.31741 0.16693,-2.64889 0.16692,2.7416 0.16691,-7.03881 0.16694,3.3356 0.16691,1.39663 0.16693,-5.37976 0.16692,4.49829 0.16693,-0.0292 0.16692,-2.12671 0.16693,4.32166 0.16691,0.30899 0.16693,0.22128 0.16692,0.22275 0.16692,-3.13108 0.16693,-1.97201 0.16693,2.43686 0.16691,-3.82935 0.16692,1.54456 0.16693,1.51077 0.16693,-3.30337 0.16692,4.5382 0.16691,-1.48989 0.16693,2.78326 0.16694,-0.14386 0.16691,1.27194 0.16692,-2.86807 0.16693,2.98428 0.16691,-7.66455 0.16694,3.21079 0.16691,1.75729 0.16693,-6.25589 0.16692,5.09274 0.16693,-0.14349 0.16692,-2.35321 0.16693,5.4736 0.16691,0.33872 0.16692,-0.17499 0.16693,0.40332 0.16693,-3.54633 0.16692,-1.99582 0.16691,2.7714 0.16693,-4.97712 0.16694,2.04221 0.16691,1.56284 0.16692,-4.07492 0.16693,5.58841 0.16693,-1.72776 0.16692,2.6818 0.16691,0.65469 0.16693,1.30438 0.16692,-3.16885 0.16693,3.16577 0.16692,-8.4519 0.16691,3.10516 0.16693,2.18103 0.16692,-7.40546 0.16693,5.91571 0.16692,-0.30218 0.16693,-2.73419 0.16691,6.93255 0.16693,-0.0462 0.16692,-0.17145 0.16693,0.71341 0.16692,-4.07132 0.16691,-2.1286 0.16693,3.20926 0.16693,-6.48248 0.16692,2.67721 0.16692,1.663 0.16693,-5.15049 0.16693,7.00565 0.16691,-2.09848 0.16692,2.47952 0.16693,1.86905 0.16693,1.43475 0.16692,-3.59271 0.16691,3.32346 0.16694,-9.56693 0.16691,3.02478 0.16693,2.72501 0.16692,-9.04257 0.16693,7.11978 0.16692,-0.53415 0.16693,-3.36582 0.16691,8.84729 0.16693,-0.80316 0.16692,0.23847 0.16692,1.23721 0.16693,-4.79819 0.16693,-2.42898 0.16691,3.83212 0.16692,-8.64044 0.16693,3.5614 0.16693,1.83792 0.16692,-6.78039 0.16691,9.10284 0.16693,-2.70783 0.16694,2.20612 0.16691,3.71539 0.16692,1.42493 0.16693,-3.94199 0.16691,3.52979 0.16694,-11.36984 0.16691,2.97778 0.16692,3.51163 0.16693,-11.63559 0.16693,9.04315 0.16692,-0.91037 0.16691,-4.47305 0.16693,11.68814 0.16692,-1.86487 0.16693,0.9686 0.16692,2.17001 0.16693,-5.94089 0.16691,-3.04535 0.16692,4.8313 0.16693,-12.16018 0.16693,4.95855 0.16692,2.15094 0.16691,-9.58712 0.16693,12.64266 0.16694,-3.82629 0.16691,1.80902 0.16692,6.86661 0.16693,1.03696 0.16693,-4.07987 0.16692,3.89136 0.16691,-14.74515 0.16693,2.97592 0.16692,4.85932 0.16693,-16.47199 0.16692,12.60843 0.16693,-1.64438 0.16691,-6.71698 0.16693,16.9494 0.16692,-3.72338 0.16693,2.28637 0.16692,4.09357 0.16691,-8.14722 0.16693,-4.45248 0.16693,6.78778 0.16692,-19.29657 0.16692,7.67474 0.16693,2.78125 0.16693,-15.66861 0.16691,20.1297 0.16692,-6.40893 0.16693,0.99927 0.16693,13.74041 0.16692,0.13062 0.16691,-4.24143 0.16694,4.73847 0.16691,-23.05783 0.16693,2.98675 0.16692,7.9607 0.16691,-28.9083 0.16694,21.52554 0.16693,-3.76919 0.16691,-13.18292 0.16692,31.099 0.16693,-8.88926 0.16692,5.65308 0.16693,9.83478 0.16691,-14.75965 0.16693,-9.31976 0.16692,12.69913 0.16692,-43.15134 0.16693,15.87653 0.16693,4.3334 0.16691,-39.30566 0.16692,47.50818 0.16693,-17.90045 0.16693,-3.47004 0.16692,42.81403 0.16691,-4.32764 0.16694,-5.15103 0.16693,8.8851 0.16691,-73.5361 0.16692,-1.42065 0.16693,23.78387 0.16692,-135.2168 0.16693,82.68421 0.16691,-42.74071 0.16693,-129.935493 0.16692,205.873133 0.16693,-174.31437 0.16692,-54.968431 0.16693,305.080371 0.16691,-304.117031 0.16693,53.827801 0.16692,174.56142 0.16693,-205.543754 0.16692,130.169804 0.16693,42.51259 0.16691,-82.2149 0.16692,134.31576 0.16693,-23.52951 0.16692,1.39301 0.16693,73.94876 0.16691,-8.55841 0.16694,5.2308 0.16691,4.04651 0.16693,-43.42474 0.16692,3.68387 0.16693,17.57141 0.16692,-46.65116 0.16691,38.84644 0.16693,-4.0777 0.16692,-16.23428 0.16693,43.01516 0.16692,-12.97384 0.16693,10.27032 0.16691,13.952 0.16693,-8.79474 0.16692,-6.97888 0.16693,9.11935 0.16692,-30.58539 0.16693,13.29111 0.16691,3.56705 0.16693,-21.04398 0.16692,27.96765 0.16693,-7.78347 0.16692,-2.82926 0.16693,23.25977 0.16691,-4.36057 0.16692,4.48157 0.16693,-0.371 0.16692,-14.53833 0.16693,-0.59674 0.16691,6.00613 0.16694,-19.32114 0.16691,15.21784 0.16693,-2.49597 0.16692,-8.15464 0.16693,19.35895 0.16692,-7.09646 0.16693,5.20684 0.16691,7.49512 0.16693,-2.97409 0.16692,-3.79233 0.16693,3.95673 0.16692,-16.27048 0.16693,6.69464 0.16691,1.46707 0.16694,-12.11181 0.16691,15.49673 0.16692,-4.76349 0.16693,-2.63256 0.16691,14.72415 0.16694,-3.45868 0.16691,3.69824 0.16693,-0.45541 0.16692,-7.84241 0.16693,-1.21448 0.16692,3.34937 0.16693,-11.88776 0.16691,9.14365 0.16692,-1.83322 0.16693,-5.5607 0.16692,12.42553 0.16693,-5.17804 0.16691,3.59531 0.16693,5.44525 0.16692,-0.96658 0.16693,-2.64578 0.16692,2.14099 0.16693,-10.88626 0.16691,4.31402 0.16693,0.75696 0.16692,-8.52808 0.16693,10.63208 0.16692,-3.50351 0.16693,-2.44628 0.16691,11.11944 0.16694,-3.04648 0.16691,2.40116 0.16692,0.518 0.16693,-4.85879 0.16691,-1.41724 0.16694,2.15524 0.16691,-8.4082 0.16693,6.3436 0.16692,-1.48407 0.16693,-4.28705 0.16692,9.11362 0.16693,-4.22 0.16691,2.76373 0.16693,4.46115 0.16692,0.0566 0.16693,-2.06201 0.16692,1.19043 0.16693,-8.00955 0.16691,3.06173 0.16694,0.40369 0.16691,-6.582 0.16693,8.01938 0.16692,-2.81345 0.16693,-2.30124 0.16692,9.09189 0.16691,-2.8074 0.16693,1.6907 0.16692,1.07648 0.16693,-3.16355 0.16692,-1.49963 0.16693,1.46762 0.16691,-6.37985 0.16693,4.72018 0.16692,-1.26812 0.16692,-3.52884 0.16693,7.16952 0.16691,-3.64084 0.16693,2.23413 0.16692,3.89615 0.16693,0.0464 0.16692,-1.07736 0.16693,0.58661 0.16691,-6.18222 0.16693,2.27423 0.16692,0.19333 0.16693,-5.35001 0.16692,6.37439 0.16693,-2.37753 0.16691,-2.18451 0.16694,7.77511 0.16691,-2.65631 0.16693,1.2471 0.16692,1.44168 0.16691,-2.06365 0.16694,-1.53309 0.16691,1.01529 0.16693,-5.043 0.16692,3.65152 0.16693,-1.1206 0.16692,-3.02332 0.16693,5.88571 0.16691,-3.2492 0.16693,1.85412 0.16692,3.53775 0.16693,-0.41854 0.16692,0.0395 0.16693,0.15231 0.16691,-4.88684 0.16693,1.7236 0.16692,0.0542 0.16693,-4.49274 0.16692,5.23316 0.16693,-2.07618 0.16691,-2.08734 0.16694,6.84226 0.16691,-2.55808 0.16692,0.94709 0.16693,1.69937 0.16691,-1.28699 0.16694,-1.54175 0.16691,0.69183 0.16693,-4.08847 0.16692,2.88782 0.16693,-1.01294 0.16692,-2.6593 0.16691,4.96899 0.16693,-2.96362 0.16692,1.55991 0.16693,3.29559 0.16692,-0.76669 0.16693,0.83063 0.16691,-0.17331 0.16693,-3.88916 0.16692,1.31051 0.16693,-0.0445 0.16692,-3.85602 0.16693,4.38708 0.16691,-1.85418 0.16694,-2.00443 0.16691,6.14035 0.16693,-2.49365 0.16692,0.73318 0.16693,1.88862 0.16692,-0.70826 0.16693,-1.53155 0.16691,0.44684 0.16692,-3.36652 0.16693,2.3093 0.16692,-0.93052 0.16693,-2.3818 0.16691,4.27597 0.16693,-2.74353 0.16692,1.32004 0.16693,3.12475 0.16692,-1.04095 0.16693,1.09494 0.16691,-0.12204 0.16693,-3.06711 0.16692,0.98474 0.16693,-0.11801 0.16692,-3.35968 0.16693,3.72839 0.16691,-1.68255 0.16694,-1.93241 0.16691,5.58762 0.16693,-2.45142 0.16692,0.57489 0.16691,2.02717 0.16694,-0.28635 0.16691,-1.47675 0.16693,0.25376 0.16692,-2.79578 0.16693,1.85132 0.16692,-0.86514 0.16693,-2.1605 0.16691,3.72818 0.16692,-2.56637 0.16693,1.11716 0.16692,3.00033 0.16693,-1.26532 0.16691,1.01477 0.16693,0.16791 0.16692,-2.35843 0.16693,0.71805 0.16692,-0.17453 0.16693,-2.95801 0.16691,3.1958 0.16693,-1.54452 0.16692,-1.86914 0.16693,5.13616 0.16692,-2.42376 0.16693,0.45447 0.16691,2.11987 0.16694,-0.23074 0.16691,-1.12366 0.16693,0.0973 0.16692,-2.32804 0.16691,1.47596 0.16694,-0.81183 0.16691,-1.97727 0.16693,3.27912 0.16692,-2.41864 0.16693,0.94082 0.16692,2.90741 0.16693,-1.45434 0.16691,0.92605 0.16693,0.39762 0.16692,-1.736 0.16693,0.49369 0.16692,-0.21897 0.16693,-2.62271 0.16691,2.75174 0.16694,-1.42981 0.16691,-1.81311 0.16693,4.75607 0.16692,-2.40573 0.16691,0.36094 0.16694,2.17544 0.16691,-0.50427 0.16693,-0.48883 0.16692,-0.0311 0.16693,-1.93265 0.16692,1.15934 0.16693,-0.76734 0.16691,-1.82062 0.16693,2.89936 0.16692,-2.29172 0.16693,0.78442 0.16692,2.83649 0.16691,-1.61731 0.16693,0.84341 0.16692,0.57923 0.16693,-1.18604 0.16692,0.30124 0.16693,-0.254 0.16691,-2.33557 0.16693,2.3718 0.16692,-1.33157 0.16693,-1.76325 0.16692,4.42755 0.16693,-2.3938 0.16691,0.28705 0.16694,2.21146 0.16691,-0.7793 0.16693,0.0991 0.16692,-0.13443 0.16693,-1.58902 0.16692,0.88587 0.16693,-0.72962 0.16691,-1.68283 0.16693,2.5694 0.1669,-2.17987 0.16694,0.64352 0.16693,2.78119 0.16693,-1.76044 0.1669,0.7659 0.16693,0.72934 0.16693,-0.69876 0.16693,0.13504 0.1669,-0.28097 0.16693,-2.08408 0.16694,2.03943 0.16693,-1.24524 0.1669,-1.71872 0.16693,4.13718 0.16693,-2.38559 0.1669,0.22781 0.16693,2.23822 0.16693,-1.0296 0.16693,0.60724 0.1669,-0.20786 0.16694,-1.28225 0.16693,0.64474 0.16693,-0.69705 0.1669,-1.55863 0.16693,2.27567 0.16693,-2.07901 0.16693,0.51501 0.1669,2.73707 0.16693,-1.88816 0.16693,0.69187 0.16691,0.85821 0.16693,-0.27005 0.16693,-0.005 0.16693,-0.29965 0.1669,-1.85941 0.16693,1.74283 0.16693,-1.16742 0.16693,-1.67892 0.1669,3.87545 0.16693,-2.37945 0.16694,0.17969 0.16693,2.25964 0.1669,-1.25928 0.16693,1.01462 0.16693,-0.22552 0.16693,-1.00046 0.1669,0.42837 0.16693,-0.66861 0.16693,-1.44412 0.16693,2.00858 0.16691,-1.98627 0.16693,0.39658 0.16693,2.70089 0.1669,-2.0036 0.16693,0.61978 0.16693,0.97217 0.16693,0.0844 0.1669,-0.10083 0.16693,-0.30719 0.16693,-1.65506 0.16694,1.47336 0.1669,-1.09561 0.16693,-1.64328 0.16693,3.63538 0.16693,-2.3743 0.1669,0.14004 0.16693,2.27756 0.16693,-1.47333 0.1669,1.26853 0.16693,-0.13028 0.16694,-0.73288 0.16693,0.2316 0.1669,-0.64356 0.16693,-1.33639 0.16693,1.76083 0.16693,-1.89944 0.1669,0.28665 0.16693,2.67019 0.16693,-2.10919 0.16694,0.54843 0.1669,1.07523 0.16693,0.27066 0.16693,-0.0644 0.1669,-0.29386 0.16693,-1.46618 0.16693,1.22433 0.16693,-1.02771 0.1669,-1.61148 0.16693,3.41193 0.16694,-2.36939 0.16693,0.10684 0.1669,2.29285 0.16693,-1.67584 0.16693,1.37903 0.16693,0.0672 0.1669,-0.46741 0.16693,0.0512 0.16693,-0.62131 0.16693,-1.23315 0.16691,1.52694 0.16693,-1.8168 0.16693,0.18384 0.1669,2.64313 0.16693,-2.20679 0.16693,0.47684 0.16693,1.17022 0.1669,0.1886 0.16693,0.17874 0.16693,-0.23031 0.16694,-1.28882 0.1669,0.99039 0.16693,-0.96201 0.16693,-1.58307 0.16693,3.20117 0.1669,-2.36429 0.16693,0.0785 0.16693,2.30612 0.1669,-1.87027 0.16693,1.42746 0.16694,0.27804 0.16693,-0.19116 0.1669,-0.1113 0.16693,-0.60147 0.16693,-1.13244 0.16693,1.30252 0.1669,-1.737 0.16693,0.0872 0.16693,2.61816 0.16694,-2.29788 0.1669,0.40423 0.16693,1.25913 0.16693,-0.006 0.16693,0.42346 0.1669,-0.0645 0.16693,-1.11963 0.16693,0.76691 0.1669,-0.89673 0.16693,-1.55768 0.16694,3.00006 0.16693,-2.35867 0.1669,0.0537 0.16693,2.31778 0.16693,-2.05936 0.16693,1.45529 0.1669,0.452 0.16693,0.0792 0.16693,-0.22491 0.16693,-0.5839 0.16691,-1.03256 0.16693,1.08411 0.16693,-1.65891 0.16693,-0.004 0.1669,2.59403 0.16693,-2.38373 0.16693,0.32992 0.1669,1.34354 0.16693,-0.22116 0.16693,0.58966 0.16694,0.19318 0.1669,-0.95453 0.16693,0.54968 0.16693,-0.8298 0.16693,-1.53492 0.1669,2.80597 0.16693,-2.35232 0.16693,0.0313 0.16693,2.32806 0.1669,-2.24542 0.16694,1.47614 0.16693,0.58081 0.1669,0.0861 0.16693,-0.0332 0.16693,-0.56826 0.16693,-0.93168 0.1669,0.86872 0.16693,-1.58142 0.16693,-0.091 0.16693,2.56955 0.16691,-2.46533 0.16693,0.25333 0.16693,1.42468 0.16693,-0.43833 0.1669,0.71641 0.16693,0.46597 0.16693,-0.77112 0.1669,0.33472 0.16693,-0.75855 0.16693,-1.51425 0.16694,2.61682 0.1669,-2.34521 0.16693,0.0103 0.16693,2.33716 0.16693,-2.4306 0.1669,1.49505 0.16693,0.67829 0.16693,-0.11878 0.16693,0.3938 0.1669,-0.55185 0.16694,-0.82757 0.16693,0.65405 0.16693,-1.50369 0.1669,-0.17386 0.16693,2.54242 0.16693,-2.54242 0.1669,0.17386 0.16693,1.50369 0.16693,-0.65405 0.16694,0.82757 0.1669,0.55185 0.16693,-0.3938 0.16693,0.11878 0.16693,-0.67829 0.1669,-1.49505 0.16693,2.4306 0.16693,-2.33716 0.16693,-0.0103 0.1669,2.34521 0.16694,-2.61682 0.16693,1.51425 0.16693,0.75855 0.1669,-0.33472 0.16693,0.77112 0.16693,-0.46597 0.1669,-0.71641 0.16693,0.43833 0.16693,-1.42468 0.16693,-0.25333 0.16691,2.46533 0.16693,-2.56955 0.16693,0.091 0.16693,1.58142 0.1669,-0.86872 0.16693,0.93168 0.16693,0.56826 0.16693,0.0332 0.1669,-0.0861 0.16693,-0.58081 0.16694,-1.47614 0.1669,2.24542 0.16693,-2.32806 0.16693,-0.0313 0.16693,2.35232 0.1669,-2.80597 0.16693,1.53492 0.16693,0.8298 0.16693,-0.54968 0.1669,0.95453 0.16694,-0.19318 0.16693,-0.58966 0.16693,0.22116 0.1669,-1.34354 0.16693,-0.32992 0.16693,2.38373 0.1669,-2.59403 0.16693,0.004 0.16693,1.65891 0.16693,-1.08411 0.16691,1.03256 0.16693,0.5839 0.16693,0.22491 0.16693,-0.0792 0.1669,-0.452 0.16693,-1.45529 0.16693,2.05936 0.16693,-2.31778 0.1669,-0.0537 0.16693,2.35867 0.16694,-3.00006 0.16693,1.55768 0.1669,0.89673 0.16693,-0.76691 0.16693,1.11963 0.1669,0.0645 0.16693,-0.42346 0.16693,0.006 0.16693,-1.25913 0.1669,-0.40423 0.16694,2.29788 0.16693,-2.61816 0.16693,-0.0872 0.1669,1.737 0.16693,-1.30252 0.16693,1.13244 0.16693,0.60147 0.1669,0.1113 0.16693,0.19116 0.16694,-0.27804 0.16693,-1.42746 0.1669,1.87027 0.16693,-2.30612 0.16693,-0.0785 0.1669,2.36429 0.16693,-3.20117 0.16693,1.58307 0.16693,0.96201 0.1669,-0.99039 0.16694,1.28882 0.16693,0.23031 0.16693,-0.17874 0.1669,-0.1886 0.16693,-1.17022 0.16693,-0.47684 0.16693,2.20679 0.1669,-2.64313 0.16693,-0.18384 0.16693,1.8168 0.16691,-1.52694 0.16693,1.23315 0.16693,0.62131 0.16693,-0.0512 0.1669,0.46741 0.16693,-0.0672 0.16693,-1.37903 0.16693,1.67584 0.1669,-2.29285 0.16693,-0.10684 0.16694,2.36939 0.16693,-3.41193 0.1669,1.61148 0.16693,1.02771 0.16693,-1.22433 0.16693,1.46618 0.1669,0.29386 0.16693,0.0644 0.16693,-0.27066 0.1669,-1.07523 0.16694,-0.54843 0.16693,2.10919 0.16693,-2.67019 0.1669,-0.28665 0.16693,1.89944 0.16693,-1.76083 0.16693,1.33639 0.1669,0.64356 0.16693,-0.2316 0.16694,0.73288 0.16693,0.13028 0.1669,-1.26853 0.16693,1.47333 0.16693,-2.27756 0.1669,-0.14004 0.16693,2.3743 0.16693,-3.63538 0.16693,1.64328 0.1669,1.09561 0.16694,-1.47336 0.16693,1.65506 0.16693,0.30719 0.1669,0.10083 0.16693,-0.0844 0.16693,-0.97217 0.16693,-0.61978 0.1669,2.0036 0.16693,-2.70089 0.16693,-0.39658 0.16691,1.98627 0.16693,-2.00858 0.16693,1.44412 0.16693,0.66861 0.1669,-0.42837 0.16693,1.00046 0.16693,0.22552 0.16693,-1.01462 0.1669,1.25928 0.16693,-2.25964 0.16694,-0.17969 0.16693,2.37945 0.1669,-3.87545 0.16693,1.67892 0.16693,1.16742 0.16693,-1.74283 0.1669,1.85941 0.16693,0.29965 0.16693,0.005 0.16693,0.27005 0.16691,-0.85821 0.16693,-0.69187 0.16693,1.88816 0.1669,-2.73707 0.16693,-0.51501 0.16693,2.07901 0.16693,-2.27567 0.1669,1.55863 0.16693,0.69705 0.16693,-0.64474 0.16694,1.28225 0.1669,0.20786 0.16693,-0.60724 0.16693,1.0296 0.16693,-2.23822 0.1669,-0.22781 0.16693,2.38559 0.16693,-4.13718 0.1669,1.71872 0.16693,1.24524 0.16694,-2.03943 0.16693,2.08408 0.1669,0.28097 0.16693,-0.13504 0.16693,0.69876 0.16693,-0.72934 0.1669,-0.7659 0.16693,1.76044 0.16693,-2.78119 0.16694,-0.64352 0.1669,2.17987 0.16693,-2.5694 0.16693,1.68283 0.1669,0.72962 0.16693,-0.88587 0.16693,1.58902 0.16693,0.13443 0.1669,-0.0991 0.16693,0.7793 0.16694,-2.21146 0.16693,-0.28705 0.1669,2.3938 0.16693,-4.42755 0.16693,1.76325 0.16693,1.33157 0.1669,-2.3718 0.16693,2.33557 0.16693,0.254 0.16693,-0.30124 0.16691,1.18604 0.16693,-0.57923 0.16693,-0.84341 0.1669,1.61731 0.16693,-2.83649 0.16693,-0.78442 0.16693,2.29172 0.1669,-2.89936 0.16693,1.82062 0.16693,0.76734 0.16694,-1.15934 0.1669,1.93265 0.16693,0.0311 0.16693,0.48883 0.16693,0.50427 0.1669,-2.17544 0.16693,-0.36094 0.16693,2.40573 0.1669,-4.75607 0.16693,1.81311 0.16694,1.42981 0.16693,-2.75174 0.1669,2.62271 0.16693,0.21897 0.16693,-0.49369 0.16693,1.736 0.1669,-0.39762 0.16693,-0.92605 0.16693,1.45434 0.16694,-2.90741 0.1669,-0.94082 0.16693,2.41864 0.16693,-3.27912 0.1669,1.97727 0.16693,0.81183 0.16693,-1.47596 0.16693,2.32804 0.1669,-0.0973 0.16693,1.12366 0.16694,0.23074 0.16693,-2.11987 0.1669,-0.45447 0.16693,2.42376 0.16693,-5.13616 0.16693,1.86914 0.1669,1.54452 0.16693,-3.1958 0.16693,2.95801 0.16693,0.17453 0.16691,-0.71805 0.16693,2.35843 0.16693,-0.16791 0.1669,-1.01477 0.16693,1.26532 0.16693,-3.00033 0.16693,-1.11716 0.1669,2.56637 0.16693,-3.72818 0.16693,2.1605 0.16694,0.86514 0.1669,-1.85132 0.16693,2.79578 0.16693,-0.25376 0.16693,1.47675 0.1669,0.28635 0.16693,-2.02717 0.16693,-0.57489 0.16693,2.45142 0.1669,-5.58762 0.16694,1.93241 0.16693,1.68255 0.16693,-3.72839 0.1669,3.35968 0.16693,0.11801 0.16693,-0.98474 0.1669,3.06711 0.16693,0.12204 0.16693,-1.09494 0.16693,1.04095 0.16691,-3.12475 0.16693,-1.32004 0.16693,2.74353 0.16693,-4.27597 0.1669,2.3818 0.16693,0.93052 0.16693,-2.3093 0.1669,3.36652 0.16693,-0.44684 0.16693,1.53155 0.16694,0.70826 0.1669,-1.88862 0.16693,-0.73318 0.16693,2.49365 0.16693,-6.14035 0.1669,2.00443 0.16693,1.85418 0.16693,-4.38708 0.16693,3.85602 0.1669,0.0445 0.16694,-1.31051 0.16693,3.88916 0.16693,0.17331 0.1669,-0.83063 0.16693,0.76669 0.16693,-3.29559 0.1669,-1.55991 0.16693,2.96362 0.16693,-4.96899 0.16694,2.6593 0.1669,1.01294 0.16693,-2.88782 0.16693,4.08847 0.16693,-0.69183 0.1669,1.54175 0.16693,1.28699 0.16693,-1.69937 0.16693,-0.94709 0.1669,2.55808 0.16694,-6.84226 0.16693,2.08734 0.16693,2.07618 0.1669,-5.23316 0.16693,4.49274 0.16693,-0.0542 0.1669,-1.7236 0.16693,4.88684 0.16693,-0.15231 0.16693,-0.0395 0.16691,0.41854 0.16693,-3.53775 0.16693,-1.85412 0.16693,3.2492 0.1669,-5.88571 0.16693,3.02332 0.16693,1.1206 0.1669,-3.65152 0.16693,5.043 0.16693,-1.01529 0.16694,1.53309 0.1669,2.06365 0.16693,-1.44168 0.16693,-1.2471 0.16693,2.65631 0.1669,-7.77511 0.16693,2.18451 0.16693,2.37753 0.16693,-6.37439 0.1669,5.35001 0.16694,-0.19333 0.16693,-2.27423 0.16693,6.18222 0.1669,-0.58661 0.16693,1.07736 0.16693,-0.0464 0.1669,-3.89615 0.16693,-2.23413 0.16693,3.64084 0.16693,-7.16952 0.16691,3.52884 0.16693,1.26812 0.16693,-4.72018 0.16693,6.37985 0.1669,-1.46762 0.16693,1.49963 0.16693,3.16355 0.16693,-1.07648 0.1669,-1.6907 0.16693,2.8074 0.16694,-9.09189 0.16693,2.30124 0.1669,2.81345 0.16693,-8.01938 0.16693,6.582 0.16693,-0.40369 0.1669,-3.06173 0.16693,8.00955 0.16693,-1.19043 0.1669,2.06201 0.16694,-0.0566 0.16693,-4.46115 0.16693,-2.76373 0.1669,4.22 0.16693,-9.11362 0.16693,4.28705 0.16693,1.48407 0.1669,-6.3436 0.16693,8.4082 0.16694,-2.15524 0.1669,1.41724 0.16693,4.85879 0.16693,-0.518 0.16693,-2.40116 0.1669,3.04648 0.16693,-11.11944 0.16693,2.44628 0.16693,3.50351 0.1669,-10.63208 0.16694,8.52808 0.16693,-0.75696 0.16693,-4.31402 0.1669,10.88626 0.16693,-2.14099 0.16693,2.64578 0.16693,0.96658 0.1669,-5.44525 0.16693,-3.59531 0.16693,5.17804 0.16691,-12.42553 0.16693,5.5607 0.16693,1.83322 0.16693,-9.14365 0.1669,11.88776 0.16693,-3.34937 0.16693,1.21448 0.16693,7.84241 0.1669,0.45541 0.16693,-3.69824 0.16694,3.45868 0.16693,-14.72415 0.1669,2.63256 0.16693,4.76349 0.16693,-15.49673 0.16693,12.11181 0.1669,-1.46707 0.16693,-6.69464 0.16693,16.27048 0.16694,-3.95673 0.1669,3.79233 0.16693,2.97409 0.16693,-7.49512 0.1669,-5.20684 0.16693,7.09646 0.16693,-19.35895 0.16693,8.15464 0.1669,2.49597 0.16693,-15.21784 0.16694,19.32114 0.1669,-6.00613 0.16693,0.59674 0.16693,14.53833 0.16693,0.371 0.1669,-4.48157 0.16693,4.36057 0.16693,-23.25977 0.16693,2.82926 0.1669,7.78347 0.16694,-27.96765 0.16693,21.04398 0.16693,-3.56705 0.1669,-13.29111 0.16693,30.58539 0.16693,-9.11935 0.16693,6.97888 0.1669,8.79474 0.16693,-13.952 0.16693,-10.27032 0.16691,12.97384 0.16693,-43.01516 0.16693,16.23428 0.16693,4.0777 0.1669,-38.84644 0.16693,46.65116 0.16693,-17.57141 0.16693,-3.68387 0.1669,43.42474 0.16693,-4.04651 0.16694,-5.2308 0.16693,8.55841 0.1669,-73.94876 0.16693,-1.39301 0.16693,23.52951 0.16693,-134.31576 0.1669,82.2149 0.16693,-42.51259 0.16693,-130.169804 0.16693,205.543754 0.16691,-174.56142 0.16693,-53.827801 0.16693,304.117031 0.1669,-305.080371 0.16693,54.968431 0.16693,174.31437 0.16693,-205.873133 0.1669,129.935493 0.16693,42.74071 0.16693,-82.68421 0.16694,135.2168 0.1669,-23.78387 0.16693,1.42065 0.16693,73.5361 0.16693,-8.8851 0.1669,5.15103 0.16693,4.32764 0.16693,-42.81403 0.1669,3.47004 0.16693,17.90045 0.16694,-47.50818 0.16693,39.30566 0.1669,-4.3334 0.16693,-15.87653 0.16693,43.15134 0.16693,-12.69913 0.1669,9.31976 0.16693,14.75965 0.16693,-9.83478 0.16694,-5.65308 0.1669,8.88926 0.16693,-31.099 0.16693,13.18292 0.16693,3.76919 0.1669,-21.52554 0.16693,28.9083 0.16693,-7.9607 0.16693,-2.98675 0.1669,23.05783 0.16694,-4.73847 0.16693,4.24143 0.1669,-0.13062 0.16693,-13.74041 0.16693,-0.99927 0.16693,6.40893 0.1669,-20.1297 0.16693,15.66861 0.16693,-2.78125 0.16693,-7.67474 0.16691,19.29657 0.16693,-6.78778 0.16693,4.45248 0.16693,8.14722 0.1669,-4.09357 0.16693,-2.28637 0.16693,3.72338 0.16693,-16.9494 0.1669,6.71698 0.16693,1.64438 0.16694,-12.60843 0.1669,16.47199 0.16693,-4.85932 0.16693,-2.97592 0.1669,14.74515 0.16693,-3.89136 0.16693,4.07987 0.16693,-1.03696 0.1669,-6.86661 0.16693,-1.80902 0.16694,3.82629 0.16693,-12.64266 0.1669,9.58712 0.16693,-2.15094 0.16693,-4.95855 0.16693,12.16018 0.1669,-4.8313 0.16693,3.04535 0.16693,5.94089 0.1669,-2.17001 0.16694,-0.9686 0.16693,1.86487 0.16693,-11.68814 0.1669,4.47305 0.16693,0.91037 0.16693,-9.04315 0.16693,11.63559 0.1669,-3.51163 0.16693,-2.97778 0.16694,11.36984 0.16693,-3.52979 0.1669,3.94199 0.16693,-1.42493 0.16693,-3.71539 0.16693,-2.20612 0.1669,2.70783 0.16693,-9.10284 0.16693,6.78039 0.16693,-1.83792 0.16691,-3.5614 0.16693,8.64044 0.16693,-3.83212 0.1669,2.42898 0.16693,4.79819 0.16693,-1.23721 0.16693,-0.23847 0.1669,0.80316 0.16693,-8.84729 0.16693,3.36582 0.16694,0.53415 0.1669,-7.11978 0.16693,9.04257 0.16693,-2.72501 0.16693,-3.02478 0.1669,9.56693 0.16693,-3.32346 0.16693,3.59271 0.16693,-1.43475 0.1669,-1.86905 0.16694,-2.47952 0.16693,2.09848 0.1669,-7.00565 0.16693,5.15049 0.16693,-1.663 0.16693,-2.67721 0.1669,6.48248 0.16693,-3.20926 0.16693,2.1286 0.16693,4.07132 0.16691,-0.71341 0.16693,0.17145 0.16693,0.0462 0.16693,-6.93255 0.1669,2.73419 0.16693,0.30218 0.16693,-5.91571 0.16693,7.40546 0.1669,-2.18103 0.16693,-3.10516 0.16694,8.4519 0.16693,-3.16577 0.1669,3.16885 0.16693,-1.30438 0.16693,-0.65469 0.1669,-2.6818 0.16693,1.72776 0.16693,-5.58841 0.16693,4.07492 0.1669,-1.56284 0.16694,-2.04221 0.16693,4.97712 0.16693,-2.7714 0.1669,1.99582 0.16693,3.54633 0.16693,-0.40332 0.16693,0.17499 0.1669,-0.33872 0.16693,-5.4736 0.16694,2.35321 0.16693,0.14349 0.1669,-5.09274 0.16693,6.25589 0.16693,-1.75729 0.1669,-3.21079 0.16693,7.66455 0.16693,-2.98428 0.1669,2.86807 0.16693,-1.27194 0.16694,0.14386 0.16693,-2.78326 0.1669,1.48989 0.16693,-4.5382 0.16693,3.30337 0.16693,-1.51077 0.1669,-1.54456 0.16693,3.82935 0.16693,-2.43686 0.16693,1.97201 0.16691,3.13108 0.16693,-0.22275 0.16693,-0.22128 0.1669,-0.30899 0.16693,-4.32166 0.16693,2.12671 0.16693,0.0292 0.1669,-4.49829 0.16693,5.37976 0.16693,-1.39663 0.16694,-3.3356 0.1669,7.03881 0.16693,-2.7416 0.16693,2.64889 0.16693,-1.31741 0.1669,0.53711 0.16693,-2.67844 0.16693,1.33508 0.16693,-3.70062 0.1669,2.71555 0.16694,-1.49472 0.16693,-1.12912 0.16693,2.89395 0.1669,-2.16455 0.16693,2.03229 0.16693,2.77835 0.1669,-0.12873 0.16693,-0.6893 0.16693,-0.17373 0.16693,-3.39856 0.16691,2.00787 0.16693,-0.0531 0.16693,-4.05426 0.16693,4.66321 0.1669,-1.07028 0.16693,-3.4737 0.16693,6.52973 0.16693,-2.45581 0.1669,2.48266 0.16693,-1.42676 0.16694,0.53934 0.16693,-2.32049 0.1669,1.23703 0.16693,-2.98865 0.16693,2.24612 0.16693,-1.50976 0.1669,-0.76636 0.16693,2.09091 0.16693,-1.93124 0.1669,2.16809 0.16694,2.46039 0.16693,-0.0973 0.16693,-1.11536 0.1669,-0.054 0.16693,-2.64703 0.16693,1.97174 0.16693,-0.10605 0.1669,-3.71759 0.16693,4.03848 0.16694,-0.76641 0.16693,-3.6167 0.1669,6.11932 0.16693,-2.13977 0.16693,2.3515 0.16693,-1.59494 0.1669,0.33389 0.16693,-1.8583 0.16693,1.18084 0.1669,-2.34726 0.16694,1.85663 0.16693,-1.55554 0.16693,-0.44107 0.1669,1.37314 0.16693,-1.72229 0.16693,2.38122 0.16693,2.15812 0.1669,-0.11588 0.16693,-1.49783 0.16693,0.0333 0.16694,-2.02569 0.1669,2.00317 0.16693,-0.12494 0.16693,-3.46411 0.16693,3.4621 0.1669,-0.48712 0.16693,-3.75193 0.16693,5.79074 0.1669,-1.78799 0.16693,2.2431 0.16694,-1.8237 0.1669,0.0653 0.16693,-1.41656 0.16693,1.15844 0.16693,-1.73776 0.1669,1.52301 0.16693,-1.63531 0.16693,-0.14826 0.16693,0.71256 0.1669,-1.52741 0.16694,2.68234 0.16693,1.85627 0.16693,-0.18119 0.1669,-1.85284 0.16693,0.0884 0.16693,-1.50519 0.1669,2.09033 0.16693,-0.0962 0.16693,-3.2811 0.16694,2.90381 0.1669,-0.24713 0.16693,-3.8613 0.16693,5.53189 0.16693,-1.38501 0.1669,2.14609 0.16693,-2.1196 0.16693,-0.2182 0.16693,-1.03283 0.1669,1.16638 0.16694,-1.12924 0.16693,1.22995 0.16693,-1.75635 0.1669,0.10675 0.16693,0.0947 0.16693,-1.33828 0.16693,3.09247 0.1669,1.54025 0.16693,-0.29807 0.16693,-2.19793 0.16691,0.11172 0.16693,-1.06396 0.16693,2.22128 0.16693,0.005 0.1669,-3.16471 0.16693,2.33963 0.16693,-0.0699 0.16693,-3.92419 0.1669,5.33682 0.16693,-0.90607 0.16694,2.04141 0.16693,-2.48935 0.1669,-0.50988 0.16693,-0.71097 0.16693,1.20529 0.16693,-0.49319 0.1669,0.96905 0.16693,-1.93167 0.16693,0.30612 0.16693,-0.48343 0.16691,-1.14685 0.16693,3.64731 0.16693,1.19348 0.1669,-0.47964 0.16693,-2.55277 0.16693,0.10117 0.16693,-0.68457 0.1669,2.38516 0.16693,0.21658 0.16693,-3.11957 0.16694,1.74555 0.1669,0.0206 0.16693,-3.92517 0.16693,5.2066 0.16693,-0.31207 0.1669,1.8718 0.16693,-2.91617 0.16693,-0.81946 0.16693,-0.44684 0.1669,1.28076 0.16694,0.20117 0.16693,0.73978 0.16693,-2.18365 0.1669,0.41607 0.16693,-1.01535 0.16693,-0.94363 0.1669,4.40564 0.16693,0.79584 0.16693,-0.75104 0.16694,-2.94351 0.1669,0.0496 0.16693,-0.35093 0.16693,2.58167 0.16693,0.58673 0.1669,-3.16162 0.16693,1.08963 0.16693,0.005 0.16693,-3.86127 0.1669,5.15161 0.16694,0.46289 0.16693,1.52658 0.1669,-3.35824 0.16693,-1.16962 0.16693,-0.23657 0.1669,1.4057 0.16693,0.99167 0.16693,0.55597 0.16693,-2.55271 0.1669,0.38514 0.16694,-1.49292 0.16693,-0.7147 0.16693,5.45719 0.1669,0.33209 0.16693,-1.1593 0.16693,-3.4126 0.16693,-0.0594 0.1669,-0.0456 0.16693,2.8367 0.16693,1.17996 0.16694,-3.32544 0.1669,0.31852 0.16693,-0.13672 0.16693,-3.7414 0.1669,5.19825 0.16693,1.54113 0.16693,0.9513 0.16693,-3.89072 0.1669,-1.60388 0.16693,-0.0815 0.16694,1.60699 0.16693,1.93143 0.1669,0.46332 0.16693,-3.11789 0.16693,0.13873 0.16693,-1.92328 0.1669,-0.43585 0.16693,6.8143 0.16693,-0.0579 0.16694,-1.80036 0.1669,-4.04132 0.16693,-0.26233 0.16693,0.25403 0.1669,3.22116 0.16693,2.10675 0.16693,-3.68255 0.16693,-0.67438 0.1669,-0.45309 0.16693,-3.58057 0.16694,5.40802 0.16693,3.17902 0.1669,0.0459 0.16693,-4.68972 0.16693,-2.21604 0.16693,0.004 0.1669,1.94397 0.16693,3.11997 0.16693,0.57937 0.16693,-4.057 0.16691,-0.45755 0.16693,-2.3577 0.16693,-0.0565 0.16693,7.90692 0.1669,0.5503 0.16693,-2.90094 0.16693,-5.01947 0.1669,-0.65314 0.16693,0.58493 0.16693,3.90045 0.16694,3.61731 0.1669,-4.39011 0.16693,-2.1517 0.16693,-1.08963 0.16693,-3.39874 0.1669,5.93887 0.16693,5.96231 0.16693,-1.46765 0.16693,-6.13034 0.1669,-3.25833 0.16694,-0.0409 0.16693,2.57107 0.16693,4.85837 0.1669,1.19067 0.16693,-5.871 0.16693,-1.77679 0.16693,-2.97007 0.1669,0.55399 0.16693,9.30145 0.16693,2.62992 0.16691,-5.15265 0.16693,-6.93564 0.16693,-1.54624 0.16693,1.02222 0.1669,5.36133 0.16693,6.47034 0.16693,-5.90525 0.16693,-5.00677 0.1669,-2.60916 0.16693,-3.26752 0.16694,7.32053 0.16693,9.333 0.1669,-2.00891 0.16693,-9.59469 0.16693,-5.74198 0.1669,-0.53369 0.16693,4.03613 0.16693,8.51297 0.1669,3.26935 0.16693,-10.73849 0.16694,-5.58676 0.16693,-4.63596 0.1669,1.85297 0.16693,13.21707 0.16693,8.85904 0.16693,-12.13193 0.1669,-13.05341 0.16693,-4.94323 0.16693,1.6213 0.16694,10.11759 0.1669,15.33929 0.16693,-11.44143 0.16693,-15.62497 0.16693,-9.75452 0.1669,-4.57858 0.16693,12.80407 0.16693,22.11875 0.1669,-2.96506 0.16693,-29.52206 0.16694,-22.6731 0.16693,-8.82303 0.1669,8.98987 0.16693,30.38876 0.16693,19.79776 0.16693,-66.13458 0.1669,-71.8694 0.16693,-74.26185 0.16693,-62.114003 0.16693,-36.296527 0.16691,-16.489672 0.16693,12.69285 0.16693,42.411655 0.16693,60.084867 0.1669,72.48823 0.16693,73.44763 0.16693,66.02341 0.1669,-19.78436 0.16693,-30.87967 0.16693,-9.94602 0.16694,12.59857 0.16693,19.68723 0.1669,26.54288 0.16693,2.94488 0.16693,-19.12295 0.1669,-9.60272 0.16693,0.51403 0.16693,10.74601 0.16693,16.37234 0.16694,11.20767 0.1669,-15.31256 0.16693,-11.53366 0.1669,0.0315 0.16693,6.87732 0.16693,7.14142 0.16693,15.85407 0.16693,-12.69037 0.1669,-6.90772 0.16693,-3.97647 0.16693,2.78369 0.16691,7.30246 0.16693,10.59076 0.16693,-3.43496 0.16693,-8.84855 0.16693,-4.95007 0.1669,4.00717 0.16693,2.9715 0.1669,6.63654 0.16693,1.95718 0.16693,-6.33395 0.16694,-3.90198 0.16693,-1.07141 0.16693,3.62634 0.1669,6.07104 0.16693,5.50528 0.1669,-6.62826 0.16693,-6.60065 0.16693,0.47421 0.16693,3.38392 0.16694,1.23391 0.1669,8.79373 0.16693,-6.475 0.16693,-2.81699 0.1669,-2.77157 0.16693,1.09289 0.16693,3.5918 0.16693,5.70062 0.16693,-1.41357 0.1669,-5.1846 0.16694,-3.43735 0.1669,3.19882 0.16693,0.70493 0.16693,3.19686 0.16693,1.86011 0.16693,-3.43988 0.1669,-2.29965 0.16693,-1.19669 0.16693,2.11866 0.1669,3.56637 0.16694,3.88013 0.16693,-4.03049 0.1669,-4.95712 0.16693,0.72241 0.16693,2.39237 0.16693,-0.46445 0.16693,6.45544 0.1669,-4.33511 0.16693,-1.31839 0.1669,-2.25562 0.16694,0.52567 0.16693,2.31683 0.16693,3.86463 0.16693,-0.70645 0.1669,-3.6001 0.16693,-2.75797 0.16693,2.82373 0.1669,-0.117 0.16693,1.78619 0.16693,1.81989 0.16694,-2.16843 0.16693,-1.54233 0.1669,-1.24746 0.16693,1.47363 0.16693,2.45813 0.1669,3.03445 0.16693,-2.73922 0.16693,-4.09833 0.16693,0.83072 0.16694,1.90039 0.1669,-1.21573 0.16693,5.26263 0.1669,-3.24322 0.16693,-0.54074 0.16693,-1.97196 0.16693,0.22431 0.16693,1.69186 0.1669,2.89951 0.16693,-0.37302 0.16694,-2.69177 0.1669,-2.36429 0.16693,2.5603 0.16693,-0.50369 0.16693,1.02698 0.16693,1.79294 0.1669,-1.45844 0.16693,-1.09781 0.16693,-1.28564 0.1669,1.1188 0.16694,1.84619 0.16693,2.4917 0.16693,-1.95883 0.16693,-3.54797 0.1669,0.871 0.16693,1.59244 0.1669,-1.60639 0.16693,4.52317 0.16693,-2.5748 0.16693,-0.067 0.16694,-1.79059 0.1669,0.0278 0.16693,1.33185 0.16693,2.30261 0.1669,-0.18524 0.16693,-2.0979 0.16693,-2.10168 0.16693,2.34451 0.16693,-0.70535 0.1669,0.5585 0.16694,1.77087 0.16693,-1.00857 0.1669,-0.80496 0.16693,-1.31824 0.16693,0.89587 0.16693,1.46604 0.16693,2.10757 0.1669,-1.4375 0.16693,-3.15173 0.1669,0.87451 0.16694,1.37354 0.16693,-1.82346 0.16693,4.00952 0.16693,-2.11914 0.1669,0.24844 0.16693,-1.66201 0.16693,-0.11594 0.1669,1.10464 0.16693,1.89557 0.16693,-0.0639 0.16694,-1.67966 0.16693,-1.91 0.1669,2.156 0.16693,-0.81359 0.1669,0.24472 0.16693,1.75113 0.16693,-0.70057 0.16693,-0.59832 0.16693,-1.34592 0.1669,0.74371 0.16694,1.21152 0.16693,1.81894 0.1669,-1.06607 0.16693,-2.84451 0.16693,0.85656 0.1669,1.20529 0.16693,-1.94494 0.16693,3.62491 0.16693,-1.78537 0.16694,0.46969 0.1669,-1.56329 0.16693,-0.22861 0.1669,0.95264 0.16693,1.59909 0.16693,0.0236 0.16693,-1.37051 0.16693,-1.76111 0.1669,1.98636 0.16693,-0.86978 0.16694,0.023 0.1669,1.7326 0.16693,-0.47839 0.16693,-0.44638 0.16693,-1.36841 0.16693,0.63376 0.1669,1.03171 0.16693,1.59268 0.16693,-0.78852 0.1669,-2.59411 0.16694,0.8255 0.16693,1.06927 0.16693,-2.00915 0.16693,3.32113 0.1669,-1.52786 0.16693,0.62927 0.1669,-1.4822 0.16693,-0.32117 0.16693,0.84683 0.16693,1.37268 0.16694,0.0924 0.1669,-1.13376 0.16693,-1.64017 0.16693,1.83146 0.1669,-0.89521 0.16693,-0.1394 0.16693,1.71475 0.16693,-0.31219 0.16693,-0.332 0.1669,-1.38538 0.16694,0.55084 0.16693,0.89923 0.1669,1.40958 0.16693,-0.57318 0.16693,-2.38266 0.16693,0.78631 0.16693,0.95539 0.1669,-2.03699 0.16693,3.07156 0.1669,-1.32132 0.16694,0.74527 0.16693,-1.4115 0.16693,-0.39956 0.16693,0.77109 0.1669,1.19339 0.16693,0.14971 0.16693,-0.94732 0.1669,-1.53845 0.16693,1.68893 0.16694,-0.90182 0.16693,-0.26157 0.16693,1.69723 0.1669,-0.18447 0.16693,-0.24521 0.16693,-1.39652 0.1669,0.48627 0.16693,0.79813 0.16693,1.25766 0.16693,-0.40098 0.16694,-2.19937 0.1669,0.7421 0.16693,0.85773 0.1669,-2.04078 0.16693,2.8602 0.16693,-1.15057 0.16693,0.8284 0.16693,-1.34634 0.1669,-0.46741 0.16693,0.71567 0.16694,1.04736 0.1669,0.19922 0.16693,-0.79697 0.16693,-1.45068 0.16693,1.55731 0.16693,-0.89685 0.1669,-0.35504 0.16693,1.6799 0.16693,-0.0844 0.1669,-0.1799 0.16694,-1.40146 0.16693,0.43463 0.16693,0.71844 0.1669,1.12928 0.16693,-0.25986 0.16693,-2.03729 0.1669,0.69488 0.16693,0.77255 0.16693,-2.02822 0.1669,2.67688 0.16694,-1.00596 0.16693,0.88495 0.16693,-1.28308 0.16693,-0.52694 0.1669,0.67437 0.16693,0.92572 0.1669,0.24286 0.16693,-0.67303 0.16693,-1.37332 0.16693,1.43536 0.16694,-0.88467 0.1669,-0.4274 0.16693,1.66256 0.16693,-0.005 0.1669,-0.13217 0.16693,-1.39975 0.16693,0.39233 0.16693,0.65378 0.16693,1.01917 0.1669,-0.14197 0.16694,-1.89163 0.16693,0.64602 0.1669,0.6973 0.16693,-2.00436 0.16693,2.51486 0.0434,-0.2291"
             style="fill:none;stroke:#0072bd;stroke-width:0.66666698;stroke-linecap:butt;stroke-linejoin:round;stroke-miterlimit:10;stroke-dasharray:none;stroke-opacity:1"
             id="path4264"
             inkscape:connector-curvature="0" />
        </g>
      </g>
    </g>
  </g>
</svg>
