<?xml version="1.0" encoding="UTF-8" standalone="no"?>
<!-- Created with Inkscape (http://www.inkscape.org/) -->

<svg
   xmlns:dc="http://purl.org/dc/elements/1.1/"
   xmlns:cc="http://creativecommons.org/ns#"
   xmlns:rdf="http://www.w3.org/1999/02/22-rdf-syntax-ns#"
   xmlns:svg="http://www.w3.org/2000/svg"
   xmlns="http://www.w3.org/2000/svg"
   xmlns:sodipodi="http://sodipodi.sourceforge.net/DTD/sodipodi-0.dtd"
   xmlns:inkscape="http://www.inkscape.org/namespaces/inkscape"
   width="588.96252mm"
   height="199.49583mm"
   viewBox="0 0 588.96252 199.49583"
   version="1.1"
   id="svg8"
   inkscape:version="0.92.2 (5c3e80d, 2017-08-06)"
   sodipodi:docname="ETSIT_logo.svg">
  <defs
     id="defs2" />
  <sodipodi:namedview
     id="base"
     pagecolor="#ffffff"
     bordercolor="#666666"
     borderopacity="1.0"
     inkscape:pageopacity="0.0"
     inkscape:pageshadow="2"
     inkscape:zoom="0.7"
     inkscape:cx="727.8474"
     inkscape:cy="241.79795"
     inkscape:document-units="mm"
     inkscape:current-layer="layer1"
     showgrid="false"
     fit-margin-top="0"
     fit-margin-left="0"
     fit-margin-right="0"
     fit-margin-bottom="0"
     inkscape:window-width="1366"
     inkscape:window-height="705"
     inkscape:window-x="-8"
     inkscape:window-y="-8"
     inkscape:window-maximized="1" />
  <metadata
     id="metadata5">
    <rdf:RDF>
      <cc:Work
         rdf:about="">
        <dc:format>image/svg+xml</dc:format>
        <dc:type
           rdf:resource="http://purl.org/dc/dcmitype/StillImage" />
        <dc:title></dc:title>
      </cc:Work>
    </rdf:RDF>
  </metadata>
  <g
     inkscape:label="Layer 1"
     inkscape:groupmode="layer"
     id="layer1"
     transform="translate(250.05017,-1.70646)"
     style="display:inline">
    <path
       inkscape:connector-curvature="0"
       id="path832"
       d="M -250.05017,101.45438 V 1.70646 H 44.43109 338.91235 v 99.74792 99.74791 H 44.43109 -250.05017 Z"
       style="fill:#ffffff;fill-opacity:1;stroke-width:0.26458335" />
    <path
       inkscape:connector-curvature="0"
       id="path828"
       d="m -154.42507,147.09963 c -2.32868,-0.50671 -5.25928,-2.07618 -6.85341,-3.67031 -1.8767,-1.87671 -3.23202,-4.69021 -3.58728,-7.44682 -0.16348,-1.26858 -0.24234,-6.99317 -0.19682,-14.2875 l 0.076,-12.17083 h 4.36562 4.36563 l 0.13229,13.09687 c 0.0728,7.20328 0.2392,13.335 0.36986,13.62604 1.85723,4.13693 7.48274,4.44562 9.6433,0.52917 0.38568,-0.69912 0.45365,-2.37099 0.57017,-14.02292 l 0.1323,-13.22916 h 4.36562 4.36563 l 0.0752,12.7 c 0.0497,8.39851 -0.0238,13.28249 -0.21715,14.41979 -1.28007,7.53094 -9.2627,12.27134 -17.6069,10.45567 z m 25.45255,-0.28445 c -0.21149,-0.55112 -0.21387,-36.45386 -0.002,-37.00479 0.14158,-0.36897 1.10481,-0.41797 8.13594,-0.41392 8.6237,0.005 10.32808,0.19223 13.0369,1.43236 1.87155,0.85683 4.29334,3.28658 5.20746,5.2246 2.577,5.46346 0.91698,12.11582 -3.81125,15.27321 -2.50251,1.67111 -3.69416,1.95384 -8.7588,2.07809 -3.09106,0.0758 -4.49994,0.20747 -4.69155,0.43835 -0.16772,0.20209 -0.30136,2.83408 -0.34481,6.79095 l -0.071,6.46097 -4.26871,0.0725 c -3.71855,0.0632 -4.28973,0.0178 -4.43177,-0.35237 z m 16.48957,-21.80466 c 2.97072,-1.51555 2.83438,-5.53245 -0.24051,-7.08583 -1.00099,-0.50569 -1.6002,-0.59532 -3.97985,-0.59532 -1.82612,0 -2.91197,0.11054 -3.11894,0.3175 -0.33405,0.33406 -0.46695,6.65809 -0.1569,7.46607 0.26136,0.68108 6.11724,0.60107 7.4962,-0.10242 z m 25.772767,21.89402 c -0.336709,-0.53389 -12.242422,-36.53278 -12.25322,-37.04964 -0.0088,-0.42316 0.37678,-0.46303 4.479137,-0.46303 h 4.488815 l 0.920689,2.97657 c 0.506381,1.63711 1.882386,6.18798 3.057793,10.11306 1.175406,3.92508 2.253472,7.25287 2.395704,7.3951 0.163269,0.16327 0.349128,0.16595 0.504158,0.007 0.135057,-0.13824 1.510366,-4.5161 3.056242,-9.72858 1.545878,-5.21247 2.920714,-9.76661 3.055189,-10.12031 l 0.244501,-0.64309 h 4.504466 c 3.437469,0 4.504469,0.0787 4.504469,0.33215 0,0.18269 -2.778042,8.66589 -6.173421,18.85157 l -6.173415,18.51941 -3.198747,0.0741 c -2.377736,0.0551 -3.253573,-0.0128 -3.41236,-0.26458 z M 54.32606,93.28158 c -4.62621,-1.32442 -8.23344,-5.15871 -9.29592,-9.88107 -0.61656,-2.74035 -0.62215,-14.57423 -0.008,-17.29897 1.12861,-5.00852 4.53748,-8.57487 9.5956,-10.03887 2.08118,-0.60237 6.05223,-0.6133 8.3045,-0.0229 3.71986,0.97519 6.62003,3.23647 8.3339,6.49799 0.93154,1.77271 1.80141,4.45918 1.57094,4.85146 -0.0641,0.10914 -2.07212,0.19844 -4.46218,0.19844 h -4.34554 l -0.6586,-1.29969 c -1.07172,-2.11492 -2.99424,-3.10434 -5.3766,-2.76706 -3.41572,0.48358 -4.55996,3.26476 -4.55504,11.07127 0.006,8.60115 1.27011,11.23589 5.39869,11.24738 2.11106,0.006 3.49512,-0.80319 4.48485,-2.62168 l 0.7308,-1.34272 h 4.30501 c 2.36779,0 4.37134,0.0663 4.45236,0.14734 0.27943,0.27941 -0.63701,3.16454 -1.57216,4.94948 -1.68701,3.22005 -5.06319,5.73226 -8.7526,6.5128 -2.09214,0.44262 -6.25657,0.33876 -8.14983,-0.20325 z m -62.01789,0.10758 c 0,-0.0789 -2.73843,-8.44117 -6.08541,-18.58274 -3.34698,-10.14157 -6.08542,-18.53397 -6.08542,-18.6498 0,-0.11581 2.02701,-0.21058 4.50447,-0.21058 4.4888,0 4.50529,0.002 4.74163,0.62381 0.13044,0.34309 1.50772,4.8377 3.06061,9.98802 1.5529,5.15032 2.95027,9.51809 3.10528,9.70616 0.15501,0.18806 0.37322,0.2476 0.48492,0.13229 0.11169,-0.11531 1.52833,-4.66687 3.14808,-10.11457 1.61975,-5.4477 3.0049,-10.00184 3.07812,-10.12031 0.0732,-0.11847 2.15016,-0.2154 4.61542,-0.2154 4.10022,0 4.48057,0.0395 4.46197,0.46302 -0.0112,0.25466 -2.77939,8.67834 -6.15156,18.71927 l -6.13123,18.25625 -3.37344,0.0741 c -1.85539,0.0407 -3.37344,0.009 -3.37344,-0.0695 z m 23.67058,-0.20039 c -0.07,-0.18335 -0.0965,-8.6082 -0.0588,-18.72189 l 0.0685,-18.38855 4.42955,-0.0725 4.42955,-0.0725 0.0684,14.75691 0.0684,14.7569 7.9375,0.1323 7.9375,0.13229 v 3.83646 3.83645 l -12.37658,0.0688 c -9.76008,0.0542 -12.40348,-0.002 -12.50389,-0.26458 z M -250.05017,40.36163 v -1.35352 l 14.22136,0.0685 14.22135,0.0684 0.0814,1.12448 0.0814,1.12448 h -13.8842 c -7.63631,0 -14.07253,0.0723 -14.30271,0.1606 -0.34802,0.13355 -0.41852,-0.0674 -0.41852,-1.19293 z m 182.65278,-0.31587 c -1.99111,-0.3326 -3.959125,-1.1799 -5.812653,-2.50255 -2.681422,-1.91342 -4.281355,-4.40798 -5.060318,-7.88985 -0.615966,-2.75328 -0.602908,-14.30254 0.01932,-17.09273 1.112533,-4.98879 3.931571,-8.03402 9.368701,-10.12043 1.23884,-0.47539 2.08104,-0.58741 4.46347,-0.5937 1.67478,-0.004 3.20951,0.12233 3.57189,0.29499 0.34945,0.16651 1.23068,0.50864 1.95828,0.76029 3.91943,1.35558 7.01802,4.84921 8.15186,9.19118 0.21395,0.81931 0.3227,1.55595 0.24166,1.63699 -0.081,0.081 -2.08961,0.14734 -4.46349,0.14734 h -4.31614 l -0.5115,-0.99218 c -1.06019,-2.05649 -2.5002,-2.97657 -4.65863,-2.97657 -2.48937,0 -4.34562,1.52663 -4.88073,4.01404 -0.47075,2.18825 -0.64209,8.75112 -0.31227,11.96081 0.33466,3.2567 0.92427,4.65878 2.36811,5.6313 1.15804,0.78 2.97854,1.0397 4.37258,0.62376 1.12846,-0.33671 3.08252,-2.09599 3.08252,-2.77527 0,-0.20176 0.18709,-0.55394 0.41577,-0.78261 0.34184,-0.34185 1.12985,-0.41506 4.43177,-0.41173 2.2088,0.002 4.16921,0.10127 4.35647,0.22008 0.52546,0.33339 -0.78552,4.154 -2.1017,6.12499 -2.91581,4.36646 -8.67467,6.53583 -14.68496,5.53185 z m 32.59517,0.0129 c -3.6358,-0.5699 -7.93887,-3.60417 -9.50719,-6.7039 -1.38891,-2.74512 -1.54346,-3.76121 -1.67505,-11.01221 -0.17145,-9.44813 0.35398,-12.12861 3.03938,-15.50521 1.21775,-1.53119 3.67495,-3.2781 5.54765,-3.94404 0.69459,-0.24699 1.54881,-0.58531 1.89826,-0.75182 0.84097,-0.40071 6.62726,-0.39809 7.46052,0.003 0.34945,0.16836 1.17115,0.50481 1.82599,0.74766 2.71946,1.0085 5.77805,3.68669 6.9913,6.12178 1.43576,2.88169 1.59914,4.10915 1.59815,12.00673 -0.001,7.92566 -0.20009,9.45168 -1.59128,12.19706 -1.42106,2.80433 -4.51877,5.33442 -7.755,6.33399 -2.02161,0.62441 -5.60323,0.85605 -7.83273,0.50658 z m 5.02863,-8.15788 c 0.5881,-0.26714 1.38865,-0.86525 1.77898,-1.32913 1.23218,-1.46436 1.38508,-2.51863 1.38508,-9.55062 0,-6.8052 -0.12533,-7.73059 -1.26732,-9.35739 -1.51855,-2.16321 -5.79664,-2.30422 -7.65228,-0.25222 -1.20468,1.33215 -1.37326,2.31847 -1.48044,8.66164 -0.14639,8.66351 0.27012,10.32375 2.92141,11.64494 1.60495,0.79978 2.84098,0.85215 4.31457,0.18279 z m -167.84898,7.82168 c -0.21385,-0.25767 -0.31979,-4.53778 -0.36855,-14.88934 l -0.0684,-14.52771 -4.55118,-0.0723 -4.55119,-0.0723 -0.079,-4.09523 -0.079,-4.09523 13.93818,3.8e-4 13.93818,3.8e-4 -0.0476,4.0349 -0.0476,4.03489 -4.40458,0.0724 c -3.25031,0.0534 -4.48045,0.16384 -4.69408,0.42124 -0.19996,0.24095 -0.31065,4.84159 -0.35792,14.87654 l -0.0684,14.52772 -4.12937,0.0727 c -3.23743,0.057 -4.1942,-0.005 -4.42949,-0.28894 z m 24.36442,0.17224 c -0.26474,-0.10663 -0.33193,-4.05393 -0.32393,-19.02911 l 0.0101,-18.89456 h 12.8069 12.80691 l -0.0476,4.0349 -0.0476,4.03489 -8.20209,0.1323 -8.20208,0.13229 -0.0749,3.15395 c -0.0557,2.34536 0.0121,3.20919 0.26458,3.36939 0.18673,0.11849 3.34903,0.21725 7.02732,0.21948 l 6.6878,0.004 -0.0732,3.90261 -0.0732,3.9026 -6.87916,0.13229 -6.87917,0.13229 -0.074,3.37344 c -0.0407,1.85539 -0.0407,3.39888 0,3.42998 0.0407,0.0311 3.76499,0.12039 8.27613,0.19843 l 8.20208,0.1419 0.074,3.53527 c 0.0499,2.38102 -0.0255,3.6552 -0.23083,3.9026 -0.2525,0.30425 -2.40104,0.36375 -12.50945,0.34645 -6.71252,-0.0115 -12.35489,-0.0814 -12.53861,-0.15543 z m 32.54375,0 c -0.26473,-0.10663 -0.33193,-4.05393 -0.32393,-19.02911 l 0.0101,-18.89456 4.55727,-5e-5 4.55726,-5e-5 -0.0706,14.71814 c -0.0509,10.62072 0.0124,14.81814 0.22756,15.07735 0.23607,0.28445 1.90275,0.3738 8.00806,0.42931 l 7.70995,0.0701 0.074,3.53527 c 0.0499,2.38102 -0.0255,3.6552 -0.23084,3.9026 -0.25233,0.30405 -2.36218,0.36374 -12.24486,0.34645 -6.567,-0.0115 -12.09031,-0.0814 -12.27403,-0.15543 z m 30.75434,-0.15181 c -0.0684,-0.18333 -0.15445,-8.75701 -0.19113,-19.05263 l -0.0667,-18.71929 12.832293,-3.5e-4 12.832292,-3.5e-4 -0.07905,4.09762 -0.07905,4.09762 -8.123039,0.07 -8.123036,0.07 -0.0749,3.15395 c -0.0557,2.34536 0.0121,3.20919 0.26458,3.36939 0.18674,0.11849 3.349029,0.21725 7.02732,0.21948 l 6.687804,0.004 -0.07322,3.90261 -0.07322,3.9026 -6.879167,0.13229 -6.879167,0.13229 -0.0747,3.28642 c -0.0557,2.45142 0.0115,3.34111 0.26458,3.50168 0.18658,0.11839 3.884532,0.21708 8.217666,0.21931 l 7.878429,0.004 -0.07322,3.90261 -0.07322,3.9026 -12.50887,0.0687 c -9.867145,0.0542 -12.535155,-0.002 -12.633325,-0.26458 z m 99.68525,0.15181 c -0.26474,-0.10663 -0.33193,-4.05393 -0.32393,-19.02911 l 0.0101,-18.89456 4.42498,0.0134 4.42497,0.0134 4.14985,8.25487 c 2.88778,5.74436 4.28069,8.25486 4.58008,8.25486 0.29934,0 1.69319,-2.5109 4.5814,-8.25298 l 4.15117,-8.25299 4.49792,-0.0153 4.49791,-0.0153 -0.13229,18.9839 -0.13229,18.9839 -3.83646,0.076 c -2.11005,0.0418 -4.10435,0.01 -4.43177,-0.0712 l -0.59531,-0.14714 v -8.57831 c 0,-4.95995 -0.10306,-8.642 -0.24434,-8.72931 -0.31414,-0.19414 -0.79325,0.51591 -3.33896,4.94843 L 9.9188,31.07528 H 6.98898 4.05916 l -2.21181,-3.9026 c -2.23982,-3.952 -2.82626,-4.82865 -3.23017,-4.82865 -0.12297,0 -0.22358,3.91632 -0.22358,8.70294 0,7.69187 -0.0486,8.7216 -0.41851,8.86354 -0.49912,0.19153 -7.76978,0.17767 -8.24989,-0.0157 z"
       style="fill:#266293;stroke-width:0.26458335" />
    <path
       id="path830"
       style="fill:#909293;stroke-width:1.00000012"
       d="m 1410.666,0 c -15.6075,0 -27.7726,5.1282877 -38.0801,16.054688 -11.0435,11.706715 -12.5703,18.689658 -12.5703,57.445312 0,31.13722 0.7273,37.32512 5.5156,47.1582 5.812,11.92687 18.8415,21.81021 32.7325,24.82813 27.9856,6.08009 54.0495,-9.22944 60.9355,-35.79102 1.5087,-5.81941 0.6895,-6.65701 -6.5156,-6.67969 -5.2496,-0.0167 -8.6836,1.31152 -8.6836,3.35938 0,0.71781 -1.3671,4.039 -3.0371,7.38086 -10.5115,21.03538 -38.493,25.34493 -55.3184,8.51953 -7.0182,-7.01817 -8.6247,-12.38368 -9.7715,-32.623046 -1.0056,-17.748246 0.1238,-45.95833 2.1153,-52.830078 1.6839,-5.810646 7.0819,-13.03359 12.3887,-16.580078 19.0146,-12.7077641 43.8036,-5.043341 51.8378,16.027343 l 2.377,6.230469 7.2187,0.294922 c 8.8156,0.359131 9.2081,-0.222614 6.2207,-9.199219 C 1451.0191,12.514783 1433.3727,0 1410.666,0 Z M 1284.8848,0.01953125 C 1278.854,-0.05582205 1272.9265,0.5265321 1267.918,1.8339844 1248.972,6.7797577 1237.7773,21.140655 1237.7773,40.5 c 0,13.772901 4.6011,23.319845 14.4473,29.980469 6.9051,4.671118 14.2475,6.863052 33.4609,9.984375 18.2493,2.964661 23.3226,5.049718 27.8047,11.425781 2.6576,3.780435 3.0507,5.260897 3.3614,12.669925 0.2951,7.0419 0,9.11147 -1.8282,12.89062 -3.9756,8.2125 -11.4834,12.73626 -24.3007,14.64258 -14.6022,2.17183 -28.818,-1.39526 -40.3985,-10.13867 -2.8814,-2.1755 -5.5789,-3.95508 -5.9941,-3.95508 -1.1934,0 -9.3301,8.2952 -9.3301,9.51172 0,0.60261 1.4625,2.4897 3.25,4.19336 7.4722,7.12176 18.8253,12.29205 31.2812,14.25 8.2561,1.2974 25.8494,0.48556 32.4688,-1.49805 19.4236,-5.82062 29.9229,-18.27538 30.8125,-36.55469 0.4966,-10.204219 -1.1967,-17.118972 -5.9434,-24.285152 -6.5851,-9.941783 -15.7214,-14.27545 -36.9355,-17.519532 -20.363,-3.113915 -26.2175,-5.239847 -31.7363,-11.52539 -7.6021,-8.658218 -6.4631,-24.033097 2.4394,-32.935547 C 1266.7187,15.554665 1270.244,14.5 1284.5,14.5 c 12.1364,0 13.395,0.184583 18.957,2.789062 3.2768,1.534375 7.4096,3.896923 9.1836,5.25 1.774,1.353109 3.5756,2.460938 4.0039,2.460938 1.2257,0 9.3555,-8.289431 9.3555,-9.539062 0,-1.4431 -6.9901,-6.4355481 -13.8691,-9.9062505 -6.8553,-3.4586929 -17.1948,-5.40956742 -27.2461,-5.53515625 z m -160.8321,0.97851563 -0.039,70.91601512 c -0.034,63.406938 0.1286,71.083738 1.5449,72.499998 1.3948,1.39503 6.5819,1.58399 43.4316,1.58399 23.0158,0 42.5578,-0.27369 43.4278,-0.60743 1.214,-0.46563 1.582,-2.09288 1.582,-7 0,-3.51582 -0.1124,-6.49113 -0.25,-6.61132 -0.1375,-0.12031 -16.675,-0.45785 -36.75,-0.75 l -36.5,-0.53125 v -25 -25.000003 l 30.416,-0.263672 c 20.4049,-0.177713 30.8547,-0.63003 31.75,-1.373047 1.3591,-1.127962 1.8279,-8.411303 0.7266,-11.28125 -0.5349,-1.393927 -4.1923,-1.582031 -30.7988,-1.582031 -22.1502,0 -30.5123,-0.318891 -31.3926,-1.199219 -1.3768,-1.376806 -1.7339,-46.412977 -0.3848,-48.537109 0.5952,-0.937172 9.5022,-1.300819 36.7344,-1.5 l 35.9492,-0.263672 0.2969,-6.7500001 0.2949,-6.75000002 h -45.0195 z M 904.86133,1 c 0.43208,0.4052126 0.86927,0.8065535 1.29101,1.2207031 C 905.97423,1.8088503 905.78598,1.4032165 905.59375,1 Z m 0.96289,0 c 0.11647,0.08011 0.23299,0.160136 0.34961,0.2402344 0.21913,0.054934 0.44106,0.094966 0.66211,0.140625 C 906.8663,1.2550836 906.8953,1.1254695 906.92578,1 Z m 586.17378,0 0.02,50.75 c 0.014,40.216939 0.3143,52.15476 1.4512,57.51953 3.8428,18.14955 17.9994,32.14438 36.5878,36.17578 28.1344,6.0997 54.812,-8.66322 61.4063,-33.98047 1.2827,-4.92434 1.5332,-14.423135 1.5332,-58.175778 V 1 h -7.9649 -7.9667 l -0.051,51.873047 c -0.056,57.309693 -0.1379,58.174753 -6.3262,66.332033 -3.8871,5.1239 -11.2914,10.31802 -17.0332,11.94726 -2.2865,0.64884 -7.3082,1.17969 -11.1582,1.17969 -3.85,0 -8.8698,-0.53085 -11.1563,-1.17969 -9.2679,-2.62979 -18.3029,-11.43024 -21.5332,-20.97461 -0.9134,-2.69873 -1.3284,-17.715125 -1.5605,-56.42773 L 1507.9316,1 h -7.9668 z M 1633,1 v 71.916016 c 0,56.597664 0.2663,72.023374 1.25,72.419924 v 0.002 c 1.8021,0.72707 84.2792,0.77918 86.168,0.0547 1.214,-0.46594 1.582,-2.09289 1.582,-7 0,-3.51613 -0.1124,-6.49114 -0.25,-6.61133 -0.1375,-0.1203 -16.675,-0.45784 -36.75,-0.75 L 1648.5,130.5 v -25 -25 l 30.416,-0.265625 c 20.4049,-0.177713 30.8547,-0.628076 31.75,-1.371094 1.3591,-1.127962 1.8279,-8.411303 0.7266,-11.28125 C 1710.8577,66.188104 1707.2002,66 1680.5938,66 c -22.1502,0 -30.5123,-0.318891 -31.3926,-1.199219 -1.3768,-1.376806 -1.7339,-46.412977 -0.3848,-48.537109 0.5952,-0.937172 9.5022,-1.302772 36.7344,-1.501953 L 1721.5,14.5 1721.7969,7.75 1722.0918,1 h -44.5469 z m 121,0 v 71.298828 c 0,54.122232 0.2883,71.589092 1.1992,72.500002 v 0.002 c 0.8954,0.89537 11.9186,1.19922 43.4297,1.19922 47.5809,0 45.3711,0.36523 45.3711,-7.5 0,-7.77626 1.4197,-7.5 -38.5723,-7.5 H 1770 V 66 1 h -8 z M 183.39062,1.0722656 c -1.76183,0.012197 -3.53667,0.02436 -5.03515,0.041016 1.52172,0.086136 3.04669,0.2825433 4.56055,0.5527344 z m -8.56835,0.091797 c -9.40374,0.1535576 -12.76975,0.4432785 -13.78516,1 2.82157,-0.2087099 5.95266,0.2045668 8.5,0.4179687 1.72105,-0.8063084 3.49226,-1.2372424 5.28516,-1.4179687 z m 445.24804,0.3007813 c -0.24191,0.028165 -0.49251,0.1375999 -0.74414,0.3027343 0.60126,0.4791596 1.2025,0.9592068 1.79492,1.4375 -1.96318,-2.0419428 -1.1763,-1.2591607 0.60547,0.2832031 -0.32073,-1.3331177 -0.81706,-1.9341855 -1.38281,-2.0234374 h -0.0352 c -0.0786,-0.00955 -0.15764,-0.00939 -0.23828,0 z m 5.09961,0.025391 c 0.003,0.019899 0.003,0.04081 0.006,0.060547 0.0201,0.1259079 0.024,0.074665 0.0137,-0.060547 z m 1279.46878,0.00781 -26.1914,71.0000001 c -18.4638,50.050965 -25.8987,71.368805 -25.1973,72.250005 1.0954,1.3762 12.4432,1.73189 14.4551,0.45312 0.6629,-0.4213 3.4918,-7.2479 6.2851,-15.17187 2.7934,-7.92401 5.5705,-14.99751 6.166,-15.71875 1.5464,-1.86323 61.1257,-1.92286 62.5665,-0.0625 0.5323,0.68749 3.1374,7.47884 5.7871,15.09179 2.6496,7.61295 5.4692,14.4947 6.2675,15.29297 2.0458,2.04586 14.5838,1.51439 14.9747,-0.63476 0.15,-0.825 -11.3716,-33.225 -25.6036,-72.000005 L 1918.2715,1.4980469 h -6.8164 z M 998.8125,12.212891 c -0.1404,0.0322 -0.28302,0.06201 -0.42578,0.09375 -0.0141,0.0335 -0.027,0.06435 -0.041,0.09766 0.052,-0.01528 0.12011,-0.03509 0.35547,-0.09961 0.0375,-0.0301 0.0741,-0.06133 0.11133,-0.0918 z m -0.27734,0.226562 c -0.0699,0.0034 -0.13927,0.0097 -0.20899,0.01367 -0.0269,0.06426 -0.0518,0.125892 -0.0781,0.189453 0.094,-0.06964 0.19491,-0.131457 0.28711,-0.203125 z m 1.63284,0.625 c -0.17852,0.486786 -0.35753,0.97312 -0.53128,1.460938 0.14126,0.04827 0.28369,0.09619 0.42378,0.144531 l 0.8379,-1.074219 c -0.217,-0.160629 -0.4863,-0.355 -0.7304,-0.53125 z m 911.1992,13.203125 c 0.1983,0.0029 0.4101,0.107334 0.6211,0.31836 1.0935,1.093424 25.0117,69.017605 25.0117,71.029296 0,1.142174 -4.4526,1.382813 -25.5,1.382813 -21.6367,0 -25.5,-0.219903 -25.5,-1.453125 0,-1.061556 18.1773,-53.252925 24.541,-70.462891 0.1999,-0.540496 0.4956,-0.819261 0.8262,-0.814453 z m -1621.834,2.03125 c -0.1183,-0.0068 0.15958,0.708752 0.52735,1.609375 0.23433,0.04908 0.49545,0.07323 0.77343,0.07422 -0.33783,-0.463524 -0.62645,-0.884113 -1.00976,-1.386719 -0.15437,-0.202406 -0.24732,-0.294367 -0.29102,-0.296875 z m 1.22852,3.335938 c 0.13897,0.339257 0.26881,0.654938 0.39648,0.982422 0.40999,-0.05397 1.08398,0.294705 1.61914,0.640624 -0.41877,-0.3232 -1.09127,-0.864025 -2.01562,-1.623046 z m -1.12891,7.371093 c -0.003,-0.08469 -1.04263,1.168245 -1.63281,2.058594 v 0.138672 c 0.52839,-0.662813 1.0578,-1.324774 1.53125,-2.023437 0.0709,-0.104577 0.10208,-0.159248 0.10156,-0.173829 z m 87.66016,19.285157 c 0.12739,0.932362 0.2179,1.849303 0.22656,2.722656 0.0593,0.01085 0.11847,0.02233 0.17774,0.0332 -0.089,-1.246071 -0.22409,-2.131714 -0.4043,-2.755859 z m 629.61913,72.849604 c -0.048,0.91492 0.028,1.75565 0.2617,2.37305 0.5831,-0.51125 0.9166,-0.91967 1.0489,-1.24414 -0.1959,-0.32493 -0.3913,-0.65018 -0.5977,-0.9707 -0.2012,-0.0671 -0.4409,-0.1193 -0.7129,-0.15821 z m -268.99608,2.83985 c -1.09952,1.13421 -2.22486,2.24245 -3.34766,3.35351 1.44177,-1.04438 2.82721,-2.16395 4.15625,-3.35351 -0.26948,0.002 -0.53911,-0.002 -0.80859,0 z m -541.44532,8.43945 c 0.0622,1.66664 0.12699,2.84574 0.19532,2.91406 0.10424,0.10423 0.95321,0.20081 2.15625,0.28907 -0.22344,-0.50314 -0.30655,-0.68961 -0.57227,-1.2793 -0.0855,-0.11179 -0.1702,-0.22427 -0.25586,-0.33594 -0.15083,0.0902 -0.94763,-0.78874 -1.52344,-1.58789 z m 1.90625,2.0918 c 0.16838,0.33308 0.3757,0.73399 0.58008,1.11914 0.0746,0.005 0.19148,0.008 0.26953,0.0137 -0.2822,-0.37845 -0.56306,-0.75723 -0.84961,-1.13281 z m -5.82422,14.64258 c -0.98085,-0.005 -2.03613,0.0102 -3.11914,0.0508 l -7.87695,0.29492 -8.22461,14.42969 c -4.5244,7.9367 -7.99925,14.79925 -7.7207,15.25 0.27859,0.45071 3.16931,0.82031 6.42383,0.82031 h 5.91796 l 10.45313,-14.75 c 5.74987,-8.11249 10.10617,-15.10774 9.67969,-15.54492 -0.31986,-0.32794 -2.59063,-0.53544 -5.53321,-0.55078 z m 439.77539,43.30664 c -23.49384,0.19069 -43.91024,15.54211 -48.57031,38.03906 -0.8332,4.02232 -1.23462,15.88838 -1.21875,36 0.026,32.89625 0.77295,38.79124 6.1836,48.73242 5.16464,9.48915 17.8848,19.09356 29.38281,22.18555 7.19874,1.93576 22.02144,1.96103 29.35937,0.0488 12.45558,-3.24427 23.24706,-11.74476 29.18946,-22.99414 3.76813,-7.13341 6.43744,-15.70768 5.4082,-17.37305 -0.49104,-0.79434 -3.05871,-1.09686 -7.60742,-0.89844 l -6.86524,0.29883 -2.375,6.23047 c -3.05883,8.0231 -9.61871,15.33829 -17.01172,18.96875 C 643.17265,334.17056 641.3808,334.5 633,334.5 c -8.17269,0 -10.26844,-0.36552 -15,-2.61328 -11.3896,-5.4107 -17.28799,-14.51175 -19.13477,-29.52539 -1.66615,-13.54526 -0.58074,-55.35165 1.61915,-62.33399 4.89019,-15.52221 17.47602,-23.77686 34.79296,-22.82226 13.62232,0.75088 22.98736,7.23996 28.39844,19.67578 3.93502,9.04346 3.38601,8.59028 10.83008,8.91797 3.73807,0.16452 7.16464,-0.0689 7.61523,-0.51953 0.4506,-0.45056 0.22724,-3.05988 -0.49609,-5.79883 -5.08397,-19.25053 -19.59053,-32.67224 -39.07617,-36.15039 -3.44499,-0.61493 -6.8644,-0.89638 -10.22071,-0.86914 z m 702.93558,0.004 c -3.7313,0.0159 -7.3754,0.29917 -10.6719,0.8711 -16.1516,2.80225 -26.5989,10.04581 -32.4316,22.48828 -2.4174,5.1569 -2.6602,6.77162 -2.6602,17.67578 0,11.06343 0.2072,12.39424 2.6602,17.04102 4.9056,9.29329 14.623,16.2536 26.9023,19.27148 2.5099,0.61686 10.3849,2.05402 17.5,3.19336 16.2904,2.60848 19.4663,3.56942 23.9102,7.23242 5.5071,4.53948 7.8437,9.97968 7.8437,18.26172 0,8.00655 -2.0499,12.99651 -7.4785,18.19922 -5.5028,5.27391 -12.0161,7.5598 -23.0723,8.0957 -15.9212,0.77174 -27.4189,-2.6514 -37.664,-11.21094 -2.3596,-1.97136 -4.4833,-3.58398 -4.7188,-3.58398 -1.4191,0 -9.3828,8.57534 -9.3828,10.10352 0,2.18959 8.3146,9.00962 15.3027,12.55078 2.7067,1.37159 8.1328,3.33599 12.0586,4.36523 9.2405,2.42249 29.5649,2.66085 38.1778,0.44922 13.8373,-3.55321 24.2106,-11.42978 29.2734,-22.23242 2.4365,-5.19855 2.6828,-6.81349 2.6602,-17.23633 -0.03,-13.16383 -1.5079,-17.7125 -8.1465,-25.06055 -7.6699,-8.48976 -13.5932,-10.86597 -36.1582,-14.50781 -24.1602,-3.8993 -31.6441,-8.26425 -34.2657,-19.97852 -1.6097,-7.19262 -0.1225,-15.22868 3.8731,-20.92968 9.5869,-13.6791 34.8501,-15.32044 53.2051,-3.45703 l 6.334,4.09375 4.4863,-4.48633 c 2.9757,-2.97574 4.2792,-5.02343 3.873,-6.08203 -0.8529,-2.22278 -11.7795,-9.11279 -18.3476,-11.57032 -6.2304,-2.33109 -14.8538,-3.5917 -23.0625,-3.55664 z m 702.5156,0.125 c -7.9227,0.1493 -15.896,1.99376 -23.2188,5.65821 -7.3028,3.65457 -16.3569,12.12497 -19.8808,18.59961 -5.383,9.89023 -6.1133,15.75628 -6.1133,49.15234 0,40.40568 1.3731,46.21104 13.8223,58.49023 6.7838,6.69109 13.589,10.74208 21.7168,12.92774 6.9954,1.8813 21.9303,1.9473 28.7636,0.12891 12.8834,-3.42902 25.2324,-12.89379 30.5723,-23.43165 5.0036,-9.87405 5.8461,-16.78196 5.8574,-48.11523 0.015,-37.39234 -1.5918,-45.23369 -11.5879,-56.58984 -9.868,-11.21073 -24.8065,-17.10535 -39.9316,-16.82032 z M 298.5,202.625 c -23.11797,0 -42.22772,13.29277 -48.21094,33.5332 -1.22925,4.15843 -1.67874,11.91797 -2.02344,35.01953 -0.62807,42.1135 0.86752,49.62539 12.28321,61.72657 6.71319,7.11636 13.31246,11.30395 22.39648,14.21093 6.8363,2.18775 22.35855,2.44528 29.6875,0.49415 7.98864,-2.12712 16.83251,-7.34979 22.38281,-13.21876 5.80797,-6.14074 12.21406,-18.66916 12.37696,-24.20507 L 347.5,306.5 h -6.89062 c -5.11514,0 -7.09034,0.38655 -7.66407,1.5 -0.42512,0.825 -2.01194,4.17527 -3.52734,7.44531 -3.31888,7.16175 -9.15167,13.2312 -15.91797,16.56641 -4.29747,2.11823 -6.40498,2.46522 -15,2.47656 -9.09377,0.0105 -10.52646,-0.25523 -15.80469,-2.92773 -9.68133,-4.90186 -15.54874,-12.91007 -17.60351,-24.02539 -1.41925,-7.67498 -1.41914,-55.38762 -0.002,-63.06055 C 268.23841,227.44912 280.94292,217 298.5,217 c 9.73689,0 16.97268,2.69339 23.01758,8.56836 4.06307,3.94885 10.48042,15.01344 10.48242,18.07422 10e-4,1.70955 2.50395,2.35742 9.11328,2.35742 7.47731,0 8.03161,-1.10857 4.98047,-9.94141 -2.93998,-8.511 -6.88866,-14.62908 -13.44531,-20.83007 C 323.38591,206.4684 312.9734,202.625 298.5,202.625 Z m 1287.6602,1.18164 c -15.9944,-0.007 -31.0954,0.5834 -31.5528,1.77539 -0.7931,2.06684 -0.7931,138.76914 0,140.83594 v 0.002 c 0.4776,1.24464 2.1792,1.58203 7.9844,1.58203 h 7.3789 l 0.2637,-29.25 0.2656,-29.25 24.5,-0.58789 c 26.1242,-0.62676 29.7232,-1.21539 38.3574,-6.27539 6.4902,-3.80349 14.142,-12.69746 16.6836,-19.39062 1.3306,-3.50412 2.3812,-9.06304 2.6934,-14.2461 1.3187,-21.90962 -9.2234,-37.32985 -29.666,-43.39062 -4.0268,-1.19471 -20.9139,-1.79781 -36.9082,-1.80469 z M 1804,203.90234 V 275.95117 348 h 7.5 c 4.125,0 7.5969,-0.11243 7.7148,-0.25 0.1178,-0.1375 0.4552,-14.42499 0.75,-31.75 l 0.5352,-31.5 16.1074,-0.27344 c 12.7138,-0.21634 16.3481,0.0148 17.25,1.10156 0.6284,0.75727 7.707,14.15688 15.7305,29.7754 8.0234,15.61848 15.2342,29.40895 16.0234,30.64648 1.3031,2.04363 2.2129,2.25 9.9121,2.25 5.0261,0 8.4766,-0.41053 8.4766,-1.00781 0,-0.55408 -7.2255,-14.78766 -16.0566,-31.63086 -8.8311,-16.84324 -15.8372,-31.19317 -15.5704,-31.88867 0.267,-0.69547 2.655,-1.99668 5.3067,-2.89258 10.7223,-3.62253 19.5219,-13.2477 22.8808,-25.02539 2.6368,-9.24499 1.612,-21.73067 -2.4609,-30.00391 -3.9249,-7.97261 -11.9429,-15.5353 -19.8535,-18.72851 -5.5618,-2.24489 -6.8483,-2.33083 -39.9961,-2.6211 z m -1611.39844,0.0859 C 187.96208,203.99164 182.59585,204 176.39258,204 H 132 v 72 72 h 44.39258 C 226.01872,348 222,348.6577 222,340.54102 c 0,-2.3658 -0.60156,-4.79514 -1.33789,-5.40625 -0.91113,-0.75617 -12.77673,-1.1939 -37.25,-1.37305 L 147.5,333.5 147.23242,309.125 c -0.18852,-17.1428 0.069,-24.78354 0.8711,-25.75 0.92141,-1.11043 6.95649,-1.375 31.4121,-1.375 26.68033,0 30.34197,-0.18784 30.87696,-1.58203 1.10128,-2.86991 0.63259,-10.15329 -0.72656,-11.28125 -0.89526,-0.74302 -11.34509,-1.19346 -31.75,-1.3711 L 147.5,267.5 V 243 218.5 l 35.91211,-0.26367 c 24.47327,-0.17908 36.33887,-0.61493 37.25,-1.3711 0.73633,-0.61111 1.33789,-3.04045 1.33789,-5.40625 0,-7.10213 3.07791,-7.48555 -29.39844,-7.4707 z M 397.5,204 l -7.5,0.25 -7.5,0.25 -0.25781,70.5 c -0.14249,38.77497 -0.0374,71.08316 0.23437,71.79492 0.35675,0.93385 2.51726,1.21241 7.75977,1 L 397.5,347.5 l 0.25781,-55.83008 c 0.19556,-42.23913 0.54611,-55.73577 1.43555,-55.43945 0.6466,0.21555 17.69628,25.33885 37.88867,55.83008 L 473.79492,347.5 481.39844,347.79297 489,348.08398 V 276.04297 204 h -7.5 c -4.12501,0 -7.60266,0.11243 -7.72852,0.25 -0.12593,0.13754 -0.46351,25.44999 -0.75,56.25 L 472.5,316.5 435,260.25 Z m 133.5,0 v 71.33398 c 0,39.23335 0.31785,71.6518 0.70703,72.04102 0.38918,0.3902 3.6517,0.57589 7.25,0.41602 L 545.5,347.5 545.75586,275.75 546.01367,204 h -7.50781 z m 224.9707,0 c -4.48418,0 -6.91727,0.42047 -7.23437,1.25 C 742.21373,222.31219 697,346.14352 697,346.94531 c 0,0.77919 2.55592,1.04489 8.13477,0.84571 l 8.13671,-0.29102 5.25977,-14.8457 c 2.89289,-8.16488 5.672,-15.2579 6.17773,-15.76368 0.53141,-0.5309 13.97451,-0.80736 31.84571,-0.65429 l 30.92578,0.26367 5.51758,15.5 5.51757,15.5 8.24219,0.29102 C 811.29124,347.95078 815,347.71112 815,347.25977 815,346.61033 770.88643,225.57331 764.33594,208.25 L 762.72852,204 Z m 751.5488,0 c -6.9365,0 -7.519,0.16378 -8.0039,2.25 -0.2876,1.23749 -0.6342,25.20001 -0.7695,53.25 -0.2431,50.3771 -0.2729,51.05956 -2.4746,55.83008 -3.6742,7.96082 -7.7991,12.3119 -15.0567,15.88476 -6.2019,3.05314 -7.3791,3.28491 -16.6933,3.27735 -12.6222,-0.009 -18.2687,-2.24832 -25.4336,-10.08789 -8.7193,-9.54044 -8.4653,-7.64256 -9.0625,-67.4043 L 1429.5,204.5 h -7.5 -7.5 l 0.02,53.5 c 0.019,52.91565 0.044,53.56528 2.2539,59.41992 5.7967,15.35509 17.192,25.92667 32.3321,29.99805 7.2291,1.94411 22.9847,1.96952 30.3535,0.0508 17.1122,-4.45716 29.5686,-16.95369 34.0508,-34.16211 1.2294,-4.71961 1.4902,-14.83685 1.4902,-57.51758 V 204 Z M 1937,204 v 71.33398 c 0,39.23335 0.3178,71.6518 0.707,72.04102 0.3892,0.3902 3.6517,0.57589 7.25,0.41602 l 6.543,-0.29102 0.2559,-71.75 0.2578,-71.75 h -7.5078 z m 206.8398,0.0918 c -13.4518,1.4e-4 -17.4791,0.31027 -17.9785,1.09765 -0.9531,1.50323 -1.1848,138.80283 -0.2383,141.26953 0.5096,1.32802 1.9199,1.57052 7.75,1.33204 L 2140.5,347.5 2141,316 l 0.5,-31.5 h 17 17 l 16.3223,31.75 16.3222,31.75 h 8.9278 c 4.9099,0 8.9277,-0.27375 8.9277,-0.60938 0,-0.33519 -7.2,-14.43303 -16,-31.32812 -8.8,-16.89513 -16,-31.36599 -16,-32.15625 0,-0.8132 2.0879,-2.17754 4.8105,-3.14453 14.3328,-5.09057 23.1107,-16.78333 24.7715,-32.99414 1.7687,-17.26307 -6.198,-32.00626 -21.3418,-39.49414 l -7.6289,-3.77344 -33.959,-0.31055 c -6.7969,-0.0623 -12.3285,-0.0977 -16.8125,-0.0976 z M 6.5,204.5 v 6.5 6.5 l 20.5,0.5 20.5,0.5 0.257812,64.75 0.25586,64.75 H 55.5 62.984375 L 63.242188,283.25 63.5,218.5 84,218 l 20.5,-0.5 v -6.5 -6.5 h -49 z m 1676,0 -0.2578,70.5 c -0.1421,38.77497 -0.042,71.06652 0.2226,71.75977 0.3793,0.99242 9.8701,1.20522 44.7579,1 L 1771.5,347.5 V 341 334.5 L 1735,334 1698.5,333.5 V 308 282.5 l 31,-0.5 31,-0.5 v -6.5 -6.5 l -31,-0.5 -31,-0.5 V 243 218.5 l 36.5,-0.5 36.5,-0.5 V 211 204.5 H 1727 Z m 356.6172,12.65625 c 10.3161,-0.16721 16.6863,2.48521 23.9492,9.75586 7.0287,7.03608 8.7103,11.71297 10.0996,28.08789 1.3342,15.72544 0.3878,47.45181 -1.6484,55.26953 -2.6179,10.05063 -7.9493,16.54805 -17.5176,21.3457 -4.3538,2.1831 -7.1672,2.82061 -13.5,3.0625 -11.6976,0.44648 -18.9352,-2.36352 -26.7012,-10.36523 -7.7524,-7.98773 -9.8023,-18.10588 -9.791,-48.28711 0.013,-31.22895 2.102,-40.95372 10.6055,-49.375 6.4117,-6.34972 12.5638,-8.9399 22.3867,-9.42383 0.7242,-0.0357 1.4294,-0.0592 2.1172,-0.0703 z M 1820,217.87109 l 24.25,0.31446 c 27.4042,0.35527 28.7902,0.68995 36.0137,8.68554 4.5139,4.99635 6.0874,10.6037 5.5078,19.62891 -0.6549,10.19701 -4.4173,16.11454 -13.2578,20.84961 -3.7347,2.00028 -5.6969,2.17231 -28.2637,2.46484 L 1820,270.12891 V 244 Z m 351.7773,0.30274 c 17.5058,0.0173 21.8344,1.19284 27.502,5.88867 6.1856,5.125 8.1973,10.01726 8.1973,19.9375 0,6.84794 -0.4293,9.30629 -2.209,12.65234 -2.9032,5.4584 -8.5907,10.05454 -14.6992,11.87696 -6.6445,1.98251 -48.3702,2.15303 -49.1192,0.20117 -0.2676,-0.69789 -0.3642,-12.2854 -0.2168,-25.75 L 2141.5,218.5 l 21.9258,-0.26953 c 3.081,-0.0379 5.8507,-0.0591 8.3515,-0.0566 z M 1570.5,218.5 h 23 c 25.9836,0 29.3351,0.66711 35.7988,7.13086 5.2402,5.24009 7.0732,9.76606 7.5176,18.55078 0.7078,13.99242 -5.2004,24.20417 -16.3848,28.32227 -6.8636,2.5246 -47.3309,3.52635 -49.2461,1.21875 -0.9051,-1.09134 -1.1492,-8.35665 -0.9511,-28.34571 z m -814.20703,10.76367 c 1.2909,0.4303 25.88392,70.64093 25.15625,71.81836 v 0.002 c -0.73765,1.19169 -50.15133,1.20961 -50.88867,0.0156 -0.81287,-1.31524 24.58541,-72.21828 25.73242,-71.83594 z m 463.96683,10.17578 c -0.047,0.72295 -0.082,1.4447 0,2.16016 0.019,0.16256 0.2338,0.52545 0.3105,0.38086 0.1177,-0.22174 -0.2569,-1.25391 0.207,-0.66406 -0.1619,-0.62539 -0.3248,-1.25101 -0.5175,-1.87696 z m -179.3965,103.59766 c -0.2275,0.003 -0.3967,0.003 -0.6426,0.008 -0.4371,0.45687 -0.8705,0.91821 -1.3125,1.36914 1.1055,-0.17929 1.826,-0.31385 2.5762,-0.45312 -0.2091,-0.31407 -0.4113,-0.60756 -0.6211,-0.92383 z m -23.8672,1.68359 c -0.013,0.18224 -0.034,0.36427 -0.039,0.54688 0.081,-0.0289 0.2441,-0.0951 0.3321,-0.12696 -0.097,-0.14055 -0.1952,-0.28017 -0.293,-0.41992 z m 831.293,60.44532 c -13.9199,0.17405 -23.9769,3.79643 -32.2871,11.49023 -6.9756,6.45812 -10.5898,13.35974 -11.9219,22.76563 -2.2585,15.94835 3.668,30.2449 15.3847,37.11132 6.7816,3.97429 14.1333,6.05839 31.5899,8.95313 18.9693,3.14559 24.0589,5.18475 28.4277,11.39648 2.5389,3.60979 3.0399,5.37351 3.3653,11.82031 0.4958,9.8185 -0.9817,14.48157 -6.2618,19.76172 -5.4409,5.44086 -13.4112,8.48925 -24.0449,9.19727 -13.9526,0.92893 -26.4033,-2.74005 -36.5722,-10.7793 -2.7011,-2.13509 -5.2465,-3.88281 -5.6543,-3.88281 -1.4954,0 -9.3165,8.46705 -9.3165,10.08594 0,2.29447 9.1374,9.14881 17.2754,12.95703 3.7022,1.73246 9.9931,3.77122 13.9786,4.53125 10.6429,2.02968 29.4096,1.25768 37.746,-1.55274 20.1615,-6.79687 29.8066,-20.4962 28.8125,-40.92382 -0.5061,-10.40021 -3.5219,-17.80711 -9.8085,-24.09375 -6.7533,-6.75326 -14.0999,-9.55042 -33.8555,-12.89258 -21.5752,-3.64997 -28.602,-6.62449 -32.8906,-13.91992 -2.3568,-4.00967 -2.7533,-5.78084 -2.7344,-12.19141 0.027,-8.83529 2.0992,-13.62017 8.3437,-19.26172 5.1249,-4.63007 12.2303,-6.73828 22.709,-6.73828 10.0989,0 19.1868,2.61625 26.4512,7.61328 5.8653,4.03461 7.2502,3.8375 12.6426,-1.79101 3.4942,-3.6471 2.857,-4.85879 -5.543,-10.54883 -8.2728,-5.60387 -17.222,-8.31536 -29.627,-8.97266 -2.1524,-0.11405 -4.2203,-0.15963 -6.2089,-0.13476 z m -833.7188,0.006 c -6.8948,-0.0729 -14.57155,0.9012 -19.74413,2.69726 -15.67573,5.44301 -27.02335,17.59334 -30.9414,33.13086 -1.96732,7.80374 -1.98115,67.12033 -0.0156,75 4.19456,16.82385 18.05318,30.11812 35.91016,34.44727 17.88467,4.33583 36.95447,-0.96221 49.74407,-13.82032 6.411,-6.44541 9.7309,-12.1902 12.0684,-20.88281 1.5763,-5.86817 3.0744,-33.94108 2.0312,-38.09766 l -0.6718,-2.68164 -25.2266,0.26758 L 1012.5,475.5 v 6.5 6.5 l 17.5,0.5 17.5,0.5 0.293,6.60938 c 0.4054,9.16183 -2.0552,20.06347 -5.8672,26.0039 -12.9195,20.1332 -44.40911,20.75256 -57.68557,1.13477 -5.55991,-8.21552 -6.44331,-15.32069 -6.0039,-48.24805 0.43253,-32.41153 1.02533,-35.60802 8.09765,-43.64258 5.22607,-5.93714 10.29049,-9.04722 17.92192,-11.00195 16.4044,-4.20261 32.4836,3.45817 39.8242,18.97461 1.6051,3.39318 2.9175,6.68385 2.9179,7.3125 0,1.66783 2.4758,2.35742 8.461,2.35742 7.3565,0 8.0485,-1.14279 5.5644,-9.18555 -5.3644,-17.36776 -19.9074,-30.38499 -37.8437,-33.87304 -2.5016,-0.48648 -5.4735,-0.7367 -8.6074,-0.76953 z m 710.9277,0.44921 c -10.1861,0 -12.9069,0.35338 -18,2.33203 -11.9968,4.66152 -22.0079,13.14328 -26.8007,22.70704 -4.763,9.50419 -5.1993,13.56233 -5.1993,48.33984 0,35.45851 0.3764,38.40098 6.2969,49.33984 5.2246,9.65318 18.4066,19.05772 30.9844,22.10743 17.0106,4.12388 35.5583,-0.5922 48.3672,-12.29883 6.0434,-5.52333 9.7574,-11.65237 12.5137,-20.64844 1.6237,-5.29931 1.8378,-9.79524 1.8378,-38.5 0,-34.77751 -0.4362,-38.83565 -5.1992,-48.33984 -4.7928,-9.56376 -14.804,-18.04552 -26.8008,-22.70704 -5.0931,-1.9788 -7.8139,-2.33203 -18,-2.33203 z m 283.6172,0.36133 c -13.5716,0.0352 -26.1496,0.45046 -26.916,1.2168 -1.7799,1.77985 -1.7365,140.85803 0.051,142.67383 0.9751,0.99416 7.7373,1.18586 30.75,0.86914 24.7859,-0.34114 30.3789,-0.69209 35,-2.1875 17.9499,-5.80868 27.1928,-16.05303 31.6309,-35.05664 1.5936,-6.82371 1.8691,-12.19065 1.8691,-36.5 0,-30.94489 -0.5781,-35.37491 -6.1074,-46.76758 -5.6143,-11.56789 -19.0834,-20.92058 -33.3926,-23.1875 -4.747,-0.75194 -19.3131,-1.09578 -32.8848,-1.06055 z m -430.666,0.0332 c -21.2812,-0.0127 -29.3689,0.30452 -30.248,1.1836 -1.7715,1.77135 -1.7333,140.86829 0.039,142.64062 0.8007,0.80073 3.5474,1.13669 7.75,0.94922 L 1562.5,550.5 1563,519 l 0.5,-31.5 16.6094,-0.27539 c 13.2102,-0.21759 16.8423,0.0118 17.7597,1.11719 0.6344,0.76433 7.9458,14.61233 16.2461,30.77343 8.3004,16.16111 15.5507,29.94727 16.1114,30.63477 1.2206,1.49662 16.3471,1.74996 17.25,0.28906 0.3262,-0.52785 -6.6226,-14.69105 -15.4414,-31.47461 C 1623.2165,501.78082 1616,487.42396 1616,486.66016 c 0,-0.76385 2.1375,-2.1999 4.75,-3.18946 10.5967,-4.01386 18.6121,-11.64632 22.3887,-21.32422 3.1527,-8.08025 3.1303,-23.25913 -0.039,-31.39453 -2.7544,-7.06359 -10.1428,-15.37021 -16.9805,-19.09179 -8.8496,-4.81656 -15.6795,-5.62564 -47.6699,-5.64454 z m -749.12889,0.13282 c -0.90656,-0.017 -1.958,0.002 -3.18359,0.0566 l -6.63672,0.29297 -0.25781,71 c -0.14249,39.05 -0.0374,71.5832 0.23437,72.29492 0.35671,0.93388 2.51726,1.21241 7.75977,1 l 7.26367,-0.29492 0.25781,-55.75 c 0.16071,-34.67777 0.62111,-55.75 1.2168,-55.75 0.52675,0 17.44862,24.86248 37.60351,55.25 20.15521,30.38751 37.15724,55.591 37.78321,56.00781 0.62596,0.41684 4.06369,0.64173 7.63867,0.5 l 6.5,-0.25781 v -72 -72 h -7.5 -7.5 l -0.25781,55.75 c -0.14211,30.66251 -0.64874,55.75 -1.125,55.75 -0.4763,0 -17.16555,-24.53647 -37.08789,-54.52539 -19.92231,-29.98893 -36.90545,-55.20823 -37.74024,-56.04297 -0.84098,-0.84113 -2.24906,-1.23012 -4.96875,-1.28125 z m 549.21489,0.01 c -0.8383,-0.0182 -1.7452,-0.006 -2.6973,0.0391 l -6.3379,0.30078 -0.2578,71 c -0.1425,39.05 -0.046,71.56246 0.2168,72.25 0.63,1.64919 12.6984,1.69157 14.3398,0.0508 0.9105,-0.91053 1.1992,-18.12967 1.1992,-71.37891 0,-59.23241 -0.2197,-70.36005 -1.4121,-71.34961 -0.637,-0.52862 -2.5332,-0.85718 -5.0488,-0.91211 z m -1320.841841,0.002 c -3.07713,-4.6e-4 -6.459025,0.0226 -10.193359,0.0625 l -26,0.27734 -0.259766,71 c -0.142185,39.05 -0.02729,71.60153 0.253907,72.33789 0.762859,1.99667 57.904618,1.08011 65.005859,-1.04297 17.57885,-5.25562 27.49662,-15.86318 32.23438,-34.48242 2.63969,-10.3756 2.57671,-62.64338 -0.0879,-73.04102 C 115.03749,427.1888 107.11463,417.38257 94.5,411.38714 85.876342,407.28853 79.233272,406.16378 57.693359,406.16058 Z m 713.843751,0 c -0.83884,-0.0183 -1.74637,-0.006 -2.69922,0.0391 l -6.33789,0.29883 -0.25781,71 c -0.14249,39.05 -0.0459,71.56246 0.21679,72.25 h 0.002 c 0.62986,1.64919 12.69847,1.69157 14.33984,0.0508 C 777.71003,548.87706 778,531.66916 778,478.41992 c 0,-59.23241 -0.21974,-70.36005 -1.41211,-71.34961 -0.63723,-0.52877 -2.53425,-0.85537 -5.05078,-0.91015 z m 454.92579,0 c -2.5165,0.0547 -4.4136,0.38132 -5.0508,0.91015 -1.9635,1.62977 -2.1313,140.8082 -0.1719,142.76758 0.8007,0.80069 3.5473,1.13864 7.75,0.95117 l 6.5098,-0.29101 0.5,-55.75 c 0.275,-30.66274 0.8567,-55.86281 1.293,-56 0.4363,-0.13728 17.5363,24.95002 38,55.75 l 37.207,56 h 7 7 v -72 -72 h -7 -7 l -0.5,55.5 c -0.3241,35.98057 -0.8515,55.47119 -1.498,55.41601 -0.5484,-0.0469 -17.6485,-25.02388 -38,-55.50195 l -37.002,-55.41406 -6.3379,-0.29883 c -0.9528,-0.0451 -1.8604,-0.0573 -2.6992,-0.0391 z m -543.12696,0.24218 c 0.30454,0.57025 0.58802,1.15236 0.875,1.73243 0.15641,-0.19115 0.31664,-0.39194 0.47265,-0.58204 -0.44609,-0.38641 -0.89536,-0.77025 -1.34765,-1.15039 z m 416.16406,0.0957 -0.2578,71 c -0.1421,39.05 -0.044,71.56652 0.2207,72.25976 0.3794,0.99243 9.8699,1.20523 44.7578,1 l 44.2773,-0.25976 v -6.5 -6.5 l -36.5,-0.5 -36.5,-0.5 v -25.5 -25.5 l 31,-0.5 31,-0.5 v -6.5 -6.5 l -31,-0.5 -31,-0.5 v -25 -25 l 36.5,-0.5 36.5,-0.5 v -6.5 -6.5 H 1144 Z m -942,0.002 -0.25781,71 c -0.14249,39.05 -0.0442,71.56652 0.2207,72.25977 h 0.002 c 0.37928,0.99246 9.86994,1.20522 44.75782,1 L 246.5,550.5 V 544 537.5 L 210,537 173.5,536.5 V 511 485.5 l 31,-0.5 31,-0.5 v -6.5 -6.5 l -31,-0.5 -31,-0.5 v -25 -25 L 210,420 246.5,419.5 V 413 406.5 H 202 Z m 1269,0 -0.2578,71 c -0.1421,39.05 -0.044,71.56652 0.2207,72.25977 0.3794,0.99242 9.8698,1.20522 44.7578,1 l 44.2773,-0.26172 v -6.5 -6.5 l -36.5,-0.5 -36.5,-0.5 -0.2675,-25.73438 -0.2657,-25.73633 31.2657,-0.26367 L 1504.5,484.5 v -6.5 -6.5 l -31,-0.5 -31,-0.5 v -25 -25 l 36.5,-0.5 36.5,-0.5 V 413 406.5 H 1471 Z m 692,0 -0.2578,71 c -0.1421,39.05 -0.042,71.56652 0.2226,72.25977 0.3793,0.99246 9.8699,1.20522 44.7579,1 l 44.2773,-0.26172 v -6.5 -6.5 l -36.5,-0.5 -36.5,-0.5 -0.2676,-25.73438 -0.2656,-25.73633 31.2656,-0.26367 L 2196.5,484.5 v -6.5 -6.5 l -31,-0.5 -31,-0.5 v -25 -25 l 36.5,-0.5 36.5,-0.5 V 413 406.5 H 2163 Z m -393,12.74023 c 9.2483,0 18.4958,3.78742 25.418,11.36133 7.7484,8.47805 8.3577,11.44159 8.8476,43.04297 0.2657,17.13963 0.01,29.78865 -0.6933,34.32227 -1.9907,12.83051 -8.2888,21.51648 -19.2246,26.50976 -12.9346,5.90589 -27.9147,3.4218 -38.1836,-6.33203 -9.4503,-8.97623 -11.0091,-17.12251 -10.4297,-54.5 0.4899,-31.60138 1.0992,-34.56492 8.8476,-43.04297 6.9222,-7.57391 16.1697,-11.36133 25.418,-11.36133 z m -145.832,0.74805 c 13.2058,0.0464 30.7389,1.02768 34.5449,2.4336 10.6876,3.94767 16.466,13.84502 15.5508,26.63671 -0.8616,12.0415 -8.0872,20.34292 -19.9121,22.87891 -2.723,0.58397 -14.1039,1.0625 -25.293,1.0625 -17.6284,0 -20.4252,-0.21139 -20.9512,-1.58203 -0.3341,-0.87001 -0.6074,-12.29124 -0.6074,-25.37891 0,-19.72312 0.2515,-24.00377 1.4707,-25.01562 0.9083,-0.75386 7.2738,-1.06298 15.1973,-1.03516 z m 430.4043,0.0801 c 2.5343,0.016 5.5653,0.0695 9.1738,0.15625 22.5095,0.54111 27.8086,1.93932 35.8457,9.45703 9.4458,8.83552 11.2943,18.04882 10.6719,53.21094 -0.3854,21.77098 -0.6858,25.36655 -2.5957,31.20898 -3.9716,12.14963 -13.3073,19.65996 -27.168,21.85352 -9.315,1.47428 -36.2819,1.36266 -37.8008,-0.15625 -0.9048,-0.90529 -1.1992,-15.01692 -1.1992,-57.37695 0,-48.63871 0.2014,-56.34541 1.4961,-57.41993 0.8407,-0.69786 3.9732,-0.9816 11.5762,-0.93359 z M 37.5,420.5 l 20,0.0488 c 19.09251,0.0474 20.280256,0.16535 26.15625,2.5957 7.398009,3.05991 11.2407,6.01492 14.769531,11.35547 5.301539,8.02329 5.914899,11.88092 6.335939,39.82422 0.5356,35.54604 -1.28566,44.37441 -11.007814,53.33594 -2.428497,2.23853 -7.080592,5.09411 -10.335937,6.3457 -5.223723,2.00836 -8.235197,2.33221 -25.650391,2.76172 -16.167987,0.39878 -19.827917,0.23786 -20.259766,-0.89063 -0.290236,-0.757 -0.410444,-27.02694 -0.267578,-58.37695 z m 491.42188,36.31445 c -0.14641,0.0101 -0.29305,0.0192 -0.43946,0.0293 0.13894,0.0595 0.27743,0.10897 0.41602,0.16211 0.008,-0.0638 0.0152,-0.12765 0.0234,-0.19141 z m -6.11524,41.33203 c 0.003,0.0344 0.006,0.0698 0.01,0.10547 0.14975,-0.006 0.29956,-0.0131 0.44921,-0.0176 -0.008,-0.0111 -0.015,-0.0221 -0.0234,-0.0332 -0.1451,-0.0185 -0.29028,-0.0363 -0.43555,-0.0547 z m -65.44336,30.97266 c -0.007,0.006 -0.0122,0.0114 -0.0195,0.0176 -0.11758,0.19962 -0.15933,0.2768 -0.25781,0.44922 0.0942,-0.0675 0.18956,-0.13255 0.2832,-0.20117 10e-4,-0.0495 0.002,-0.20711 0.004,-0.25391 -0.003,-0.003 -0.006,-0.009 -0.01,-0.0117 z m 8.97852,16.87891 c -0.006,0.0273 0.008,0.061 0.008,0.0918 0.024,-0.0187 0.0443,-0.0379 0.0684,-0.0566 -0.0253,-0.012 -0.0519,-0.0249 -0.0762,-0.0351 z M 1748.2773,564 l -8.1386,14.18555 c -4.4762,7.80174 -8.1387,14.77675 -8.1387,15.5 0,0.93615 1.6787,1.31445 5.8262,1.31445 4.7762,0 6.1894,-0.40533 7.8457,-2.25 C 1748.9158,589.13662 1765,566.00804 1765,564.95703 1765,564.42253 1761.3028,564 1756.6387,564 Z m -8.3125,43.78906 c -17.9543,0.0784 -35.5626,9.86883 -43.291,24.06836 -5.6044,10.29725 -6.1736,14.78398 -6.1738,48.64258 -3e-4,33.38842 0.5841,38.7464 5.2324,47.94531 5.3103,10.50905 18.1982,20.80418 30.1797,24.10938 6.7271,1.85575 23.6074,1.77285 30.1563,-0.14844 11.9494,-3.5057 24.3186,-13.31497 29.3789,-23.30078 4.6017,-9.081 5.5527,-17.34602 5.5527,-48.23633 0,-39.12971 -1.8224,-46.71421 -14.1465,-58.90625 -9.5456,-9.44338 -22.0234,-14.23884 -36.8887,-14.17383 z m -433.5605,0.0391 c -14.8529,-0.0976 -25.8003,4.01479 -36.1172,13.56641 -6.7049,6.20757 -10.4766,12.49966 -13.0176,21.71094 -1.5127,5.48375 -1.7656,10.88232 -1.7656,37.89453 0,33.7302 0.5264,38.25916 5.5996,48.20312 5.0009,9.80263 16.552,18.97921 28.8418,22.91211 7.9947,2.55825 23.8233,2.50943 32.2715,-0.0996 12.4294,-3.83878 22.3637,-12.16759 28.0527,-23.51562 3.2889,-6.56039 5.7246,-14.89304 4.793,-16.40039 -0.4911,-0.79434 -3.0586,-1.09686 -7.6074,-0.89844 l -6.8653,0.29883 -2.375,6.23047 c -2.9196,7.65796 -9.6749,15.41677 -16.6074,19.07422 -4.6116,2.43322 -6.127,2.69506 -15.6074,2.6875 -9.1159,-0.007 -11.1591,-0.33086 -15.5,-2.46289 -8.1166,-3.98646 -14.0782,-10.8731 -16.7383,-19.33399 -2.1324,-6.7827 -2.2617,-8.86128 -2.2617,-36.19531 0,-24.90395 0.2559,-29.92673 1.8105,-35.5625 2.4833,-9.00189 7.5015,-15.35611 15.6446,-19.81055 5.6581,-3.09517 7.5079,-3.57838 15,-3.92383 6.951,-0.32026 9.5982,0.002 14.1914,1.73438 8.0176,3.02309 14.1295,8.77648 17.914,16.86523 1.7234,3.68353 3.474,7.37227 3.8907,8.19727 0.9794,1.9392 13.9901,2.71453 15.1113,0.90039 0.8721,-1.41101 -1.4375,-9.7116 -4.2852,-15.40039 -8.5502,-17.08135 -24.2856,-26.53997 -44.373,-26.67188 z m 248.4766,0.0156 c -15.5025,-0.11108 -27.813,5.09958 -38.295,16.21094 C 1505.7994,635.4887 1504,643.63397 1504,681 c 0,37.36603 1.7994,45.51103 12.5859,56.94531 6.6652,7.06541 15.0805,12.33471 23.3262,14.60938 2.5235,0.69615 9.1596,1.30633 14.7481,1.35547 16.4301,0.1446 26.138,-3.77404 36.6445,-14.79102 6.5425,-6.86041 11.7432,-17.033 12.0195,-23.51172 L 1603.5,711.5 h -6.8906 c -5.12,0 -7.088,0.38553 -7.6543,1.5 -0.4192,0.825 -2.1712,4.5137 -3.8946,8.19727 -3.7845,8.08875 -9.8964,13.84217 -17.914,16.86523 -4.6066,1.73877 -7.2127,2.05393 -14.1465,1.7168 -12.9455,-0.62929 -21.8712,-5.58455 -27.5664,-15.30274 -4.4032,-7.51343 -5.3984,-15.5299 -5.3984,-43.47656 0,-28.45856 1.0291,-36.33395 5.7421,-43.95703 C 1531.4547,627.85985 1542.626,622 1554.4551,622 c 15.3689,0 26.6302,7.99302 32.2031,22.85938 0.9566,2.55166 2.2127,4.97093 2.791,5.375 0.5782,0.40387 3.8804,0.74244 7.332,0.75 7.6362,0.0186 8.2306,-0.8893 5.7735,-8.8418 -2.3475,-7.59772 -5.9292,-13.58967 -11.9043,-19.91406 -9.2528,-9.79363 -20.3964,-14.27441 -35.7695,-14.38477 z m -1018.63285,0.043 c -14.25045,0.0481 -25.26685,3.97665 -34.87891,12.4375 -10.25885,9.03016 -13.94062,17.96237 -15.5332,37.67578 -1.22521,15.16588 -0.51041,49.20807 1.22851,58.5 3.06948,16.40183 14.84933,29.40676 31.91016,35.22461 h 0.002 c 7.71454,2.6297 23.40679,3.08494 31.52149,0.91406 11.77413,-3.14986 21.10035,-9.91493 27.70507,-20.09765 3.9888,-6.14945 8.45634,-18.66187 7.32032,-20.5 C 585.16781,711.46687 581.743,711 577.9082,711 c -5.74786,0 -7.07577,0.30732 -7.56445,1.75 -3.85399,11.37759 -10.18408,19.46593 -18.8457,24.08398 -4.50339,2.40087 -6.04294,2.66602 -15.5,2.66602 -9.43457,0 -11.00735,-0.26895 -15.5,-2.65039 -11.50908,-6.10073 -16.87866,-14.79893 -18.47071,-29.91602 -1.27048,-12.07755 -1.27802,-39.726 -0.0117,-51.74414 1.2491,-11.8577 3.81153,-17.78984 10.36133,-23.98437 7.4239,-7.02119 14.55977,-9.52298 25.62305,-8.98047 14.20709,0.69664 22.70318,6.66488 29.21875,20.52539 l 3.87695,8.25 h 6.98438 c 5.06554,0 7.12956,-0.38415 7.51953,-1.40039 0.86091,-2.24353 -3.96246,-14.80214 -8.05273,-20.96484 -9.06333,-13.65449 -23.30571,-20.8089 -41.29883,-20.74805 z M 665.5,607.90234 c -15.8528,0.0126 -26.64619,4.26086 -37.06055,14.58789 -12.01285,11.91213 -13.76367,19.35534 -13.76367,58.50977 0,30.46277 0.89019,38.34095 5.37695,47.60938 4.78466,9.88345 15.75665,18.96656 27.92383,23.11523 5.02398,1.71303 8.85277,2.2311 16.66602,2.25 12.19958,0.031 20.19823,-2.12551 28.92773,-7.79688 11.75566,-7.63744 18.07257,-17.03424 20.61914,-30.67773 1.79963,-9.6342 1.79889,-59.41542 -0.004,-68.94531 C 709.78671,623.24506 690.43389,607.88345 665.5,607.90234 Z m -472.89844,1.08594 C 187.96208,608.9904 182.59585,609 176.39258,609 H 132 v 72 72 h 44.83594 44.83594 l 0.21093,-5.83984 c 0.14317,-3.96779 -0.23359,-6.20601 -1.17383,-6.98633 -0.97133,-0.80614 -12.085,-1.22767 -37.29687,-1.41211 L 147.5,738.5 v -25 -25 l 30.78711,-0.5 c 34.21274,-0.55563 32.68164,-0.20434 32.68164,-7.5 0,-7.29555 1.5311,-6.94437 -32.68164,-7.5 L 147.5,672.5 V 648 623.5 l 35.91211,-0.26367 c 24.47327,-0.17908 36.33887,-0.61493 37.25,-1.3711 0.73633,-0.61111 1.33789,-3.04041 1.33789,-5.40625 0,-7.1021 3.07794,-7.48555 -29.39844,-7.4707 z M 414.65234,609 c -39.98067,0 -44.50115,0.16257 -45.05859,1.61523 -0.34095,0.88804 -0.60276,33.28804 -0.58008,72 L 369.05273,753 h 45.01954 45.01953 L 458.79492,746.25 458.5,739.5 422,739 385.5,738.5 v -25 -25 l 31,-0.53711 c 17.05002,-0.29499 31.11243,-0.63246 31.25,-0.75 0.1372,-0.1175 0.25,-3.13791 0.25,-6.71289 0,-3.57502 -0.11243,-6.59535 -0.25,-6.71289 -0.13754,-0.11754 -14.19998,-0.45482 -31.25,-0.75 L 385.5,672.5 V 648 623.5 l 36.5,-0.5 36.5,-0.5 0.29492,-6.75 0.29688,-6.75 z M 752,609 v 72 72 h 7.49219 7.49023 l 0.25977,-52.25 c 0.15193,-30.66047 0.63449,-52.17778 1.16797,-52.07422 0.49999,0.0971 9.17302,18.09711 19.27343,40 10.10038,21.90289 19.114,40.38672 20.03125,41.07422 1.88134,1.41026 10.08527,1.66236 12.11914,0.37305 0.73346,-0.46492 9.50848,-18.74379 19.5,-40.6211 9.99156,-21.87726 18.61602,-39.71621 19.16602,-39.64062 0.64811,0.089 1.09195,18.26038 1.25977,51.63867 l 0.25781,51.5 h 7.96484 7.96485 l 0.0391,-70.38477 c 0.0212,-38.71196 -0.23917,-71.11196 -0.58008,-72 -0.49274,-1.2839 -2.1296,-1.61523 -7.98828,-1.61523 -7.03404,0 -7.43082,0.12575 -8.79492,2.76367 -1.38958,2.68717 -39.46608,87.34778 -42.33399,94.12695 -1.21636,2.87539 -1.6393,3.17986 -2.78125,2 C 812.76571,707.12554 802.37445,685.125 790.41406,659 778.45363,632.875 768.23709,610.9375 767.71094,610.25 767.09824,609.44938 764.10212,609 759.37695,609 Z m 459.6074,0 c -5.8823,0 -7.5237,0.33054 -8.0136,1.61523 -0.341,0.88804 -0.6028,33.28804 -0.5801,72 L 1203.0527,753 h 7.9727 7.9746 v -72 -72 z m 216.8672,0 c -5.9432,0 -6.3317,0.14738 -7.2715,2.75 -2.3467,6.49875 -50.1172,136.01158 -51.0996,138.53906 l -1.084,2.78711 8.625,-0.28711 8.625,-0.28906 5.2617,-14.8457 c 2.8931,-8.16488 5.6721,-15.25794 6.1778,-15.76368 0.5314,-0.5309 13.9601,-0.80932 31.8086,-0.65624 l 30.8886,0.26562 5.5469,15.74609 5.5469,15.74805 8.25,0.002 c 4.5375,0.002 8.25,-0.2844 8.25,-0.63671 0,-1.34676 -51.3319,-140.92249 -52.2637,-142.10938 -0.5991,-0.76312 -3.428,-1.25 -7.2617,-1.25 z m -501.73827,0.0977 c -1.00713,-0.005 -2.31118,0.0401 -4.01563,0.10937 L 915.5,609.5 915.20508,660 c -0.31427,53.89621 -0.0272,58.2387 4.48242,67.79297 5.17924,10.97295 17.84046,21.34544 30.22461,24.76172 7.51691,2.07364 24.77579,1.78636 32.30469,-0.53907 17.26696,-5.3329 29.7622,-19.45839 32.7461,-37.01562 0.7326,-4.31089 1.0085,-23.17076 0.8203,-56 L 1015.5,609.5 h -7.5 -7.5 l -0.51562,52.5 c -0.5844,59.48697 -0.35874,57.75047 -8.71876,67.04883 -6.63608,7.38126 -12.77349,10.2048 -23.36328,10.74414 -16.21545,0.82583 -26.8138,-4.77542 -33.06836,-17.47656 L 931.5,715.54492 931.25391,664.52344 c -0.13539,-28.06262 -0.48563,-52.05514 -0.7793,-53.31641 -0.37806,-1.62417 -0.71688,-2.09338 -3.73828,-2.10937 z m 224.67967,0.041 c -2.7221,0.0379 -4.1265,0.37825 -4.5605,1.0625 -0.4533,0.71463 -0.8285,26.02555 -0.8399,56.24805 -0.012,43.93368 -0.2662,54.71041 -1.2656,53.75 -0.6875,-0.66066 -17.675,-25.83934 -37.75,-55.95117 L 1070.5,609.5 h -7.5 -7.5 l -0.2559,71.75 -0.2578,71.75 h 8.0078 8.0059 v -56 c 0,-31.69618 0.3833,-56 0.8828,-56 0.4854,0 17.5707,25.19999 37.9668,56 l 37.084,56 h 7.5391 7.541 l -0.2578,-71.75 -0.2559,-71.75 -6.9102,-0.29883 c -1.213,-0.0525 -2.2664,-0.0751 -3.1738,-0.0625 z m 772,0 c -2.7221,0.0379 -4.1265,0.37825 -4.5605,1.0625 -0.4533,0.71463 -0.8285,26.02555 -0.8399,56.24805 -0.012,43.93368 -0.2662,54.71041 -1.2656,53.75 -0.6875,-0.66066 -17.675,-25.83934 -37.75,-55.95117 L 1842.5,609.5 h -7.5 -7.5 l -0.2559,71.75 -0.2578,71.75 h 8.0078 8.0059 v -56 c 0,-31.84736 0.383,-56 0.8867,-56 0.4871,0 17.5731,25.19999 37.9707,56 l 37.0879,56 h 7.5332 7.5352 l -0.2578,-71.75 -0.2559,-71.75 -6.9102,-0.29883 c -1.213,-0.0525 -2.2664,-0.0751 -3.1738,-0.0625 z m -280,0.002 c -2.7226,0.038 -4.1307,0.37667 -4.5683,1.06055 -0.4573,0.71463 -0.8258,33.13633 -0.8145,72.04883 l 0.019,70.75 h 7.9805 7.9805 l -0.2578,-71.75 -0.2559,-71.75 -6.9102,-0.29883 c -1.2124,-0.0525 -2.2662,-0.0701 -3.1738,-0.0606 z M 6.5,609.5 v 6.5 6.5 l 20.5,0.5 20.5,0.5 0.257812,64.75 0.25586,64.75 H 55.5 62.984375 L 63.242188,688.25 63.5,623.5 84,623 l 20.5,-0.5 v -6.5 -6.5 h -49 z m 247,0 -0.25586,71.75 -0.25781,71.75 h 45.05273 45.05274 L 342.79492,746.25 342.5,739.5 306,739 269.5,738.5 269,674 268.5,609.5 H 261 Z m 1487.9004,12.52539 c 7.1523,0.13457 14.2933,2.39035 20.2051,6.84961 6.2814,4.73817 10.8967,12.42981 12.3027,20.50391 1.4164,8.15244 1.4188,55.4809 0,63.15625 -2.0492,11.08501 -8.2167,19.51161 -17.666,24.13476 -4.5265,2.21458 -7.2009,2.78236 -14.1621,3.00196 -4.7194,0.14864 -9.7051,-0.0997 -11.0801,-0.55079 -9.0226,-2.95993 -17.2356,-9.82786 -20.7812,-17.38476 C 1707.0648,715.02041 1706,704.74439 1706,681 c 0,-32.27898 1.7251,-40.4634 10.3574,-49.14062 6.6345,-6.67188 15.8471,-10.00701 25.043,-9.83399 z M 665,622.5 c 11.15316,8.7e-4 16.12852,1.81295 23.4043,8.51953 9.3493,8.61789 11.55141,18.22863 11.57031,50.48047 0.011,20.48115 -1.29992,33.06182 -4.13086,39.64258 -2.76461,6.42644 -11.14523,14.07843 -18.38477,16.78711 -7.42614,2.77844 -17.99464,2.72006 -25.44726,-0.14063 -7.52072,-2.8868 -16.08305,-11.47818 -18.4043,-18.46679 -4.81109,-14.48493 -4.86832,-61.99209 -0.0898,-76.375 2.1805,-6.56489 9.19346,-14.16687 16.2793,-17.64649 C 654.8277,622.82999 656.61833,622.49936 665,622.5 Z m 764.0586,11.47656 c 0.1914,0.036 0.3958,0.14387 0.5684,0.31641 1.2576,1.2576 25.3271,70.97143 24.7988,71.82617 -0.7329,1.18605 -50.1453,1.14157 -50.8789,-0.0449 -0.4918,-0.79563 23.8455,-70.8007 25.0234,-71.97852 0.1179,-0.11797 0.2969,-0.1551 0.4883,-0.11914 z"
       transform="matrix(0.26458333,0,0,0.26458333,-250.05017,1.70646)"
       inkscape:connector-curvature="0" />
  </g>
  <g
     inkscape:groupmode="layer"
     id="layer2"
     inkscape:label="Layer 2" />
</svg>
