<?xml version="1.0" encoding="UTF-8" standalone="no"?>
<svg
   xmlns:dc="http://purl.org/dc/elements/1.1/"
   xmlns:cc="http://creativecommons.org/ns#"
   xmlns:rdf="http://www.w3.org/1999/02/22-rdf-syntax-ns#"
   xmlns:svg="http://www.w3.org/2000/svg"
   xmlns="http://www.w3.org/2000/svg"
   xmlns:sodipodi="http://sodipodi.sourceforge.net/DTD/sodipodi-0.dtd"
   xmlns:inkscape="http://www.inkscape.org/namespaces/inkscape"
   height="1664"
   viewBox="0 0 1152 1664"
   width="1152"
   version="1.1"
   id="svg3"
   sodipodi:docname="microphoneIcon.svg"
   inkscape:version="0.92.2 (5c3e80d, 2017-08-06)">
  <metadata
     id="metadata9">
    <rdf:RDF>
      <cc:Work
         rdf:about="">
        <dc:format>image/svg+xml</dc:format>
        <dc:type
           rdf:resource="http://purl.org/dc/dcmitype/StillImage" />
        <dc:title></dc:title>
      </cc:Work>
    </rdf:RDF>
  </metadata>
  <defs
     id="defs7" />
  <sodipodi:namedview
     pagecolor="#ffffff"
     bordercolor="#666666"
     borderopacity="1"
     objecttolerance="10"
     gridtolerance="10"
     guidetolerance="10"
     inkscape:pageopacity="0"
     inkscape:pageshadow="2"
     inkscape:window-width="1366"
     inkscape:window-height="705"
     id="namedview5"
     showgrid="false"
     fit-margin-top="0"
     fit-margin-left="0"
     fit-margin-right="0"
     fit-margin-bottom="0"
     inkscape:zoom="0.13169643"
     inkscape:cx="1472"
     inkscape:cy="64"
     inkscape:window-x="-8"
     inkscape:window-y="-8"
     inkscape:window-maximized="1"
     inkscape:current-layer="svg3" />
  <path
     id="global"
     d="m 1152,704 v 128 q 0,221 -147.5,384.5 Q 857,1380 640,1404 v 132 h 256 q 26,0 45,19 19,19 19,45 0,26 -19,45 -19,19 -45,19 H 256 q -26,0 -45,-19 -19,-19 -19,-45 0,-26 19,-45 19,-19 45,-19 H 512 V 1404 Q 295,1380 147.5,1216.5 0,1053 0,832 V 704 q 0,-26 19,-45 19,-19 45,-19 26,0 45,19 19,19 19,45 v 128 q 0,185 131.5,316.5 Q 391,1280 576,1280 761,1280 892.5,1148.5 1024,1017 1024,832 V 704 q 0,-26 19,-45 19,-19 45,-19 26,0 45,19 19,19 19,45 z M 896,320 v 512 q 0,132 -94,226 -94,94 -226,94 -132,0 -226,-94 -94,-94 -94,-226 V 320 Q 256,188 350,94 444,0 576,0 q 132,0 226,94 94,94 94,226 z"
     inkscape:connector-curvature="0" />
</svg>
