<?xml version="1.0" encoding="UTF-8" standalone="no"?>
<!-- Created with Inkscape (http://www.inkscape.org/) -->

<svg
   xmlns:dc="http://purl.org/dc/elements/1.1/"
   xmlns:cc="http://creativecommons.org/ns#"
   xmlns:rdf="http://www.w3.org/1999/02/22-rdf-syntax-ns#"
   xmlns:svg="http://www.w3.org/2000/svg"
   xmlns="http://www.w3.org/2000/svg"
   xmlns:sodipodi="http://sodipodi.sourceforge.net/DTD/sodipodi-0.dtd"
   xmlns:inkscape="http://www.inkscape.org/namespaces/inkscape"
   width="489.72534mm"
   height="136.52501mm"
   viewBox="0 0 489.72534 136.52501"
   version="1.1"
   id="svg687"
   sodipodi:docname="PPT_basicSimulationG.svg"
   inkscape:version="0.92.2 (5c3e80d, 2017-08-06)">
  <defs
     id="defs681" />
  <sodipodi:namedview
     id="base"
     pagecolor="#ffffff"
     bordercolor="#666666"
     borderopacity="1.0"
     inkscape:pageopacity="0.0"
     inkscape:pageshadow="2"
     inkscape:zoom="0.24748737"
     inkscape:cx="189.19249"
     inkscape:cy="927.15485"
     inkscape:document-units="mm"
     inkscape:current-layer="layer1"
     showgrid="false"
     fit-margin-top="0"
     fit-margin-left="0"
     fit-margin-right="0"
     fit-margin-bottom="0"
     inkscape:window-width="1366"
     inkscape:window-height="705"
     inkscape:window-x="-8"
     inkscape:window-y="-8"
     inkscape:window-maximized="1" />
  <metadata
     id="metadata684">
    <rdf:RDF>
      <cc:Work
         rdf:about="">
        <dc:format>image/svg+xml</dc:format>
        <dc:type
           rdf:resource="http://purl.org/dc/dcmitype/StillImage" />
        <dc:title></dc:title>
      </cc:Work>
    </rdf:RDF>
  </metadata>
  <g
     inkscape:label="Layer 1"
     inkscape:groupmode="layer"
     id="layer1"
     transform="translate(157.82443,-373.42679)">
    <path
       style="fill:#000000;stroke-width:0.26458335"
       d="m -52.5387,509.68721 c 0,-0.14552 -0.238125,-0.26458 -0.529167,-0.26458 -0.291041,0 -0.529166,-0.11906 -0.529166,-0.26458 0,-0.14552 -0.238125,-0.26459 -0.529167,-0.26459 -0.291042,0 -0.529167,-0.11906 -0.529167,-0.26458 0,-0.14552 -0.181181,-0.26458 -0.402627,-0.26458 -0.490312,0 -3.301539,-2.76149 -3.301539,-3.24313 0,-0.18932 -0.238125,-0.51585 -0.529167,-0.72562 -0.291042,-0.20978 -0.529167,-0.59325 -0.529167,-0.85216 0,-0.25892 -0.119062,-0.47076 -0.264583,-0.47076 -0.145521,0 -0.264584,-0.23813 -0.264584,-0.52917 0,-0.29104 -0.119062,-0.52916 -0.264583,-0.52916 -0.145521,0 -0.264583,-0.35719 -0.264583,-0.79375 0,-0.43657 -0.119063,-0.79375 -0.264584,-0.79375 -0.14552,0 -0.264583,-0.35719 -0.264583,-0.79375 0,-0.43657 -0.119062,-0.79375 -0.264583,-0.79375 -0.145521,0 -0.264584,-0.35719 -0.264584,-0.79375 0,-0.43657 -0.119062,-0.79375 -0.264583,-0.79375 -0.145521,0 -0.264583,-0.59532 -0.264583,-1.32292 0,-0.7276 -0.119063,-1.32292 -0.264584,-1.32292 -0.146992,0 -0.264583,-0.70555 -0.264583,-1.5875 0,-0.88194 -0.117591,-1.5875 -0.264583,-1.5875 -0.167569,0 -0.264584,-1.94027 -0.264584,-5.29166 0,-3.35139 0.09701,-5.29167 0.264584,-5.29167 0.151191,0 0.264583,-0.79375 0.264583,-1.85208 0,-1.05834 0.113392,-1.85209 0.264583,-1.85209 0.145521,0 0.264584,-0.59531 0.264584,-1.32291 0,-0.72761 0.119062,-1.32292 0.264583,-1.32292 0.154339,0 0.264583,-0.88194 0.264583,-2.11667 0,-1.23472 0.110244,-2.11666 0.264584,-2.11666 0.166589,0 0.264583,-1.76389 0.264583,-4.7625 0,-2.99861 -0.09799,-4.7625 -0.264583,-4.7625 -0.146992,0 -0.264584,-0.70556 -0.264584,-1.5875 0,-0.88195 -0.117591,-1.5875 -0.264583,-1.5875 -0.145521,0 -0.264583,-0.59532 -0.264583,-1.32292 0,-0.72761 -0.119063,-1.32292 -0.264584,-1.32292 -0.145521,0 -0.264583,-0.35719 -0.264583,-0.79375 0,-0.43656 -0.119063,-0.79375 -0.264583,-0.79375 -0.145521,0 -0.264584,-0.35719 -0.264584,-0.79375 0,-0.43656 -0.119062,-0.79375 -0.264583,-0.79375 -0.145521,0 -0.264583,-0.23812 -0.264583,-0.52916 0,-0.29105 -0.119063,-0.52917 -0.264584,-0.52917 -0.145521,0 -0.264583,-0.21184 -0.264583,-0.47076 0,-0.25891 -0.238125,-0.64239 -0.529167,-0.85216 -0.291041,-0.20977 -0.529166,-0.53684 -0.529166,-0.72683 0,-0.63713 -2.322757,-2.71275 -3.035745,-2.71275 -0.367633,0 -0.668422,-0.11906 -0.668422,-0.26458 0,-0.14553 -0.47625,-0.26459 -1.058334,-0.26459 h -1.058333 v -1.05833 -1.05833 h 1.058333 c 0.582084,0 1.058334,-0.11907 1.058334,-0.26459 0,-0.14552 0.300789,-0.26458 0.668422,-0.26458 0.712988,0 3.035745,-2.07563 3.035745,-2.71275 0,-0.18999 0.238125,-0.51706 0.529166,-0.72683 0.291042,-0.20978 0.529167,-0.59325 0.529167,-0.85216 0,-0.25892 0.119062,-0.47076 0.264583,-0.47076 0.145521,0 0.264584,-0.23813 0.264584,-0.52917 0,-0.29104 0.119062,-0.52916 0.264583,-0.52916 0.145521,0 0.264583,-0.35719 0.264583,-0.79375 0,-0.43657 0.119063,-0.79375 0.264584,-0.79375 0.14552,0 0.264583,-0.35719 0.264583,-0.79376 0,-0.43656 0.119062,-0.79375 0.264583,-0.79375 0.145521,0 0.264584,-0.59531 0.264584,-1.32291 0,-0.72761 0.119062,-1.32292 0.264583,-1.32292 0.146992,0 0.264583,-0.70555 0.264583,-1.5875 0,-0.88194 0.117592,-1.5875 0.264584,-1.5875 0.166589,0 0.264583,-1.76389 0.264583,-4.7625 0,-2.99861 -0.09799,-4.7625 -0.264583,-4.7625 -0.15434,0 -0.264584,-0.88194 -0.264584,-2.11667 0,-1.23472 -0.110244,-2.11666 -0.264583,-2.11666 -0.145521,0 -0.264583,-0.59531 -0.264583,-1.32292 0,-0.7276 -0.119063,-1.32292 -0.264584,-1.32292 -0.151191,0 -0.264583,-0.79375 -0.264583,-1.85208 0,-1.05833 -0.113392,-1.85208 -0.264583,-1.85208 -0.167569,0 -0.264584,-1.94028 -0.264584,-5.29167 0,-3.35139 0.09701,-5.29167 0.264584,-5.29167 0.146992,0 0.264583,-0.70555 0.264583,-1.5875 0,-0.88194 0.117591,-1.5875 0.264583,-1.5875 0.145521,0 0.264584,-0.59531 0.264584,-1.32291 0,-0.72761 0.119062,-1.32292 0.264583,-1.32292 0.145521,0 0.264583,-0.35719 0.264583,-0.79375 0,-0.43656 0.119063,-0.79375 0.264584,-0.79375 0.145521,0 0.264583,-0.35719 0.264583,-0.79375 0,-0.43656 0.119063,-0.79375 0.264583,-0.79375 0.145521,0 0.264584,-0.23812 0.264584,-0.52917 0,-0.29104 0.119062,-0.52916 0.264583,-0.52916 0.145521,0 0.264583,-0.33091 0.264583,-0.73534 0,-0.43182 0.218422,-0.89277 0.529167,-1.11675 0.291042,-0.20977 0.529167,-0.56696 0.529167,-0.79375 0,-0.22679 0.238125,-0.58397 0.529167,-0.79375 0.291041,-0.20977 0.529166,-0.53684 0.529166,-0.72683 0,-0.44947 2.263281,-2.71275 2.712752,-2.71275 0.189987,0 0.517059,-0.23812 0.726832,-0.52917 0.209772,-0.29104 0.593243,-0.52916 0.852159,-0.52916 0.258916,0 0.470757,-0.11907 0.470757,-0.26459 0,-0.14552 0.357188,-0.26458 0.793751,-0.26458 0.436562,0 0.79375,-0.11906 0.79375,-0.26458 0,-0.14552 0.47625,-0.26459 1.058333,-0.26459 0.96034,0 1.058333,0.063 1.058333,0.68036 0,0.94162 -0.585814,1.43631 -1.700892,1.43631 -0.519719,0 -0.944941,0.11906 -0.944941,0.26458 0,0.14552 -0.182563,0.26459 -0.405694,0.26459 -0.495146,0 -2.24014,1.69949 -2.24014,2.18173 0,0.191 -0.238125,0.51891 -0.529166,0.72868 -0.291042,0.20978 -0.529167,0.59325 -0.529167,0.85216 0,0.25892 -0.119063,0.47076 -0.264583,0.47076 -0.145521,0 -0.264584,0.35719 -0.264584,0.79375 0,0.43656 -0.119062,0.79375 -0.264583,0.79375 -0.145521,0 -0.264583,0.35719 -0.264583,0.79375 0,0.43656 -0.119063,0.79375 -0.264584,0.79375 -0.145521,0 -0.264583,0.35719 -0.264583,0.79375 0,0.43656 -0.119063,0.79375 -0.264583,0.79375 -0.145521,0 -0.264584,0.59531 -0.264584,1.32292 0,0.7276 -0.119062,1.32291 -0.264583,1.32291 -0.151191,0 -0.264583,0.79375 -0.264583,1.85209 0,1.05833 -0.113393,1.85208 -0.264584,1.85208 -0.167568,0 -0.264583,1.94028 -0.264583,5.29167 0,3.35139 0.09701,5.29166 0.264583,5.29166 0.15434,0 0.264584,0.88195 0.264584,2.11667 0,1.23472 0.110243,2.11667 0.264583,2.11667 0.156789,0 0.264583,0.97014 0.264583,2.38125 0,1.41111 0.107794,2.38125 0.264584,2.38125 0.167989,0 0.264583,2.02847 0.264583,5.55625 0,3.52778 -0.09659,5.55625 -0.264583,5.55625 -0.151191,0 -0.264584,0.79375 -0.264584,1.85208 0,1.05833 -0.113392,1.85208 -0.264583,1.85208 -0.145521,0 -0.264583,0.47625 -0.264583,1.05834 0,0.58208 -0.119063,1.05833 -0.264584,1.05833 -0.145521,0 -0.264583,0.47625 -0.264583,1.05833 0,0.58209 -0.119063,1.05834 -0.264584,1.05834 -0.14552,0 -0.264583,0.35719 -0.264583,0.79375 0,0.43656 -0.119062,0.79375 -0.264583,0.79375 -0.145521,0 -0.264584,0.23812 -0.264584,0.52917 0,0.29104 -0.119062,0.52916 -0.264583,0.52916 -0.145521,0 -0.264583,0.23813 -0.264583,0.52917 0,0.29104 -0.119063,0.52917 -0.264584,0.52917 -0.14552,0 -0.264583,0.21184 -0.264583,0.47075 0,0.25892 -0.238125,0.64239 -0.529167,0.85216 -0.291041,0.20977 -0.529166,0.5363 -0.529166,0.72562 0,0.48164 -2.811227,3.24313 -3.30154,3.24313 -0.226237,0 -0.402627,0.23183 -0.402627,0.52917 0,0.29734 0.17639,0.52917 0.402627,0.52917 0.490313,0 3.30154,2.76149 3.30154,3.24313 0,0.18932 0.238125,0.51584 0.529166,0.72562 0.291042,0.20977 0.529167,0.59324 0.529167,0.85215 0,0.25892 0.119063,0.47076 0.264583,0.47076 0.145521,0 0.264584,0.23813 0.264584,0.52917 0,0.29104 0.119062,0.52917 0.264583,0.52917 0.145521,0 0.264583,0.23812 0.264583,0.52916 0,0.29104 0.119063,0.52917 0.264584,0.52917 0.145521,0 0.264583,0.35719 0.264583,0.79375 0,0.43656 0.119063,0.79375 0.264583,0.79375 0.145521,0 0.264584,0.47625 0.264584,1.05833 0,0.58209 0.119062,1.05834 0.264583,1.05834 0.145521,0 0.264584,0.47625 0.264584,1.05833 0,0.58208 0.119062,1.05833 0.264583,1.05833 0.151191,0 0.264583,0.79375 0.264583,1.85209 0,1.05833 0.113393,1.85208 0.264584,1.85208 0.167989,0 0.264583,2.02847 0.264583,5.55625 0,3.52778 -0.09659,5.55625 -0.264583,5.55625 -0.15434,0 -0.264584,0.88194 -0.264584,2.11667 0,1.23472 -0.110244,2.11666 -0.264583,2.11666 -0.15679,0 -0.264583,0.97014 -0.264583,2.38125 0,1.41111 -0.107794,2.38125 -0.264584,2.38125 -0.167568,0 -0.264583,1.94028 -0.264583,5.29167 0,3.35139 0.09701,5.29167 0.264583,5.29167 0.151191,0 0.264584,0.79375 0.264584,1.85208 0,1.05833 0.113392,1.85208 0.264583,1.85208 0.145521,0 0.264583,0.47625 0.264583,1.05834 0,0.58208 0.119063,1.05833 0.264584,1.05833 0.14552,0 0.264583,0.35719 0.264583,0.79375 0,0.43656 0.119062,0.79375 0.264583,0.79375 0.145521,0 0.264584,0.35719 0.264584,0.79375 0,0.43656 0.119062,0.79375 0.264583,0.79375 0.145521,0 0.264583,0.35719 0.264583,0.79375 0,0.43656 0.119063,0.79375 0.264584,0.79375 0.14552,0 0.264583,0.21184 0.264583,0.47076 0,0.25891 0.238125,0.64238 0.529167,0.85216 0.291041,0.20977 0.529166,0.53684 0.529166,0.72683 0,0.48186 2.278923,2.71275 2.771162,2.71275 0.222112,0 0.403839,0.11906 0.403839,0.26458 0,0.14552 0.47625,0.26459 1.058333,0.26459 0.999538,0 1.058333,0.0441 1.058333,0.79375 v 0.79375 h -1.5875 c -0.881943,0 -1.5875,-0.11759 -1.5875,-0.26459 z m 218.79008,-7.1234 c -1.13509,-1.13509 -1.02785,-2.15175 0.68262,-6.47123 0.79992,-2.02001 1.45439,-4.07384 1.45439,-4.56406 0,-0.80078 -0.0756,-0.89131 -0.74424,-0.89131 -0.93703,0 -1.95043,1.02976 -2.66894,2.71198 -0.38946,0.9119 -0.68455,1.25677 -1.07534,1.25677 -0.69165,0 -0.67538,-0.35652 0.0914,-2.00312 0.86183,-1.85086 2.3296,-3.02396 3.78354,-3.02396 0.61484,0 1.41542,0.13556 1.77906,0.30124 0.60592,0.27608 1.4804,1.63825 1.4804,2.306 0,0.15307 -0.71438,2.12527 -1.5875,4.38266 -0.87313,2.25739 -1.5875,4.46564 -1.5875,4.90722 0,0.70383 0.0918,0.80288 0.74424,0.80288 0.93007,0 1.94533,-1.01993 2.6887,-2.70102 0.62447,-1.41225 0.80857,-1.58972 1.32075,-1.27318 0.57689,0.35655 -0.39942,2.57802 -1.71755,3.90805 -1.02708,1.03635 -1.22245,1.12448 -2.4925,1.12448 -1.17039,0 -1.49466,-0.11657 -2.15149,-0.7734 z m 11.74319,0.3387 c -0.0918,-0.23908 0.40497,-2.78366 1.10381,-5.65462 1.36332,-5.60059 1.4101,-6.61068 0.30618,-6.61068 -0.8304,0 -1.39835,0.68966 -1.97919,2.40334 -0.3733,1.10138 -0.62399,1.45348 -1.08299,1.52105 -0.54833,0.0807 -0.58164,0.0157 -0.40656,-0.79375 0.28278,-1.30745 1.35559,-3.3002 2.03157,-3.77368 1.3239,-0.9273 3.84194,-0.28358 4.47371,1.14369 l 0.34409,0.77735 0.77444,-0.65165 c 1.42277,-1.19718 2.69904,-1.68468 4.41052,-1.68468 4.05707,0 4.86569,2.21609 2.90783,7.96908 -1.25736,3.69463 -1.3521,4.73092 -0.43257,4.73092 0.95573,0 2.0248,-1.00321 2.70277,-2.53622 0.67961,-1.5367 0.89998,-1.76256 1.41134,-1.44651 0.79426,0.49088 -1.09625,3.85456 -2.60485,4.63469 -1.2152,0.62841 -2.75063,0.52211 -3.67334,-0.2543 -1.21034,-1.01843 -1.21518,-1.58339 -0.0439,-5.1118 1.33376,-4.01774 1.53765,-5.36168 0.94966,-6.25908 -0.35448,-0.54101 -0.65198,-0.66845 -1.56051,-0.66845 -1.54416,0 -2.76452,0.72218 -4.09196,2.42149 -1.00328,1.28434 -1.23849,1.87994 -2.16353,5.47866 -0.57081,2.22072 -1.1802,4.20916 -1.35414,4.41876 -0.43772,0.52743 -1.81342,0.49096 -2.02239,-0.0536 z m 23.05891,-0.0449 c -4.93106,-2.32173 -3.55031,-9.71603 2.33416,-12.49986 1.30995,-0.61971 2.00625,-0.77851 3.41426,-0.77868 2.90801,-2.7e-4 4.18441,0.80091 4.18441,2.62672 0,1.5291 -1.21848,2.49327 -2.37125,1.87634 -0.74001,-0.39605 -0.71183,-1.67596 0.0526,-2.38814 0.50271,-0.46835 0.53258,-0.58874 0.19844,-0.8 -0.58312,-0.36869 -2.79948,-0.30877 -3.78325,0.10228 -2.02007,0.84403 -3.59466,3.34783 -4.16497,6.62277 -0.35602,2.0445 -0.0527,3.30228 0.99515,4.12651 1.49141,1.17315 5.49852,0.41505 7.68112,-1.45318 1.13832,-0.97436 1.51268,-1.1065 1.80317,-0.63648 0.289,0.4676 -1.48844,2.10857 -3.05684,2.82215 -2.0215,0.91973 -5.72955,1.11288 -7.287,0.37957 z m -236.05703,-5.7789 c -1.651084,-0.58463 -3.625228,-2.49393 -4.557961,-4.40824 -1.406237,-2.88611 -1.714476,-4.75721 -1.707936,-10.36765 0.0065,-5.58794 0.306726,-7.4092 1.703877,-10.33666 3.144422,-6.58854 11.96488,-6.5346 15.079854,0.0922 1.338151,2.8468 1.661081,4.87022 1.656072,10.37673 -0.0052,5.70879 -0.397518,7.96784 -1.845942,10.62907 -0.929934,1.7086 -2.922069,3.49461 -4.496155,4.03095 -1.525773,0.51989 -4.339601,0.51197 -5.831809,-0.0164 z m 4.888358,-1.1819 c 0.652224,-0.31574 1.435933,-0.9812 1.7917,-1.52136 1.254223,-1.9043 1.510982,-3.60916 1.645888,-10.9286 0.141195,-7.66084 -0.10205,-10.37496 -1.107686,-12.35948 -2.11065,-4.16517 -7.130833,-3.76872 -8.922917,0.70465 -0.588188,1.46823 -0.607066,1.77615 -0.611931,9.98163 -0.0055,9.21811 0.119713,10.29486 1.438603,12.37454 0.808786,1.27532 2.523659,2.30928 3.830656,2.30963 0.426998,1.1e-4 1.298057,-0.25234 1.935687,-0.56101 z m 308.967132,1.31564 c -2.05973,-0.75976 -3.30729,-2.43173 -3.30729,-4.43243 0,-1.3561 0.70694,-2.14283 1.9255,-2.14283 1.12885,0 1.95882,0.60076 2.17221,1.57231 0.21211,0.96572 -0.18997,1.75126 -1.21566,2.37501 l -0.78832,0.47942 1.00364,0.48214 c 1.58454,0.76118 4.17761,0.66627 5.66854,-0.20747 2.62504,-1.53836 3.90258,-4.65164 4.30374,-10.48782 l 0.13404,-1.94994 -0.74507,1.17488 c -1.37303,2.16503 -3.0062,2.99221 -5.54516,2.80856 -2.95268,-0.21358 -5.54964,-2.15294 -7.02075,-5.24292 -0.76811,-1.61345 -0.81875,-1.90794 -0.81875,-4.7625 0,-2.82982 0.0525,-3.14236 0.74985,-4.46691 1.82605,-3.46814 4.80052,-5.41087 8.2845,-5.41087 4.18219,0 7.01845,2.73733 8.45281,8.15799 0.3833,1.44848 0.49167,2.83225 0.49731,6.35 0.006,3.98709 -0.0632,4.72328 -0.61217,6.48229 -1.28447,4.11536 -3.53494,7.14233 -6.40427,8.61402 -1.18276,0.60665 -1.84864,0.75454 -3.69199,0.82 -1.23693,0.0439 -2.60615,-0.0519 -3.04271,-0.21293 z m 5.48188,-11.61398 c 3.01984,-0.83869 4.36335,-3.94785 4.09752,-9.48254 -0.21193,-4.4129 -0.88318,-6.15039 -2.81096,-7.27628 -2.71979,-1.58845 -6.21353,0.48035 -6.82382,4.04068 -0.33454,1.95157 -0.22841,7.69396 0.16815,9.09865 0.60131,2.13005 2.04081,3.43897 4.25286,3.86715 0.0728,0.0141 0.57507,-0.0974 1.11625,-0.24766 z m 18.27098,11.48024 c -1.65108,-0.58463 -3.62524,-2.49393 -4.55797,-4.40824 -1.40624,-2.88611 -1.71448,-4.75721 -1.70792,-10.36765 0.007,-5.58794 0.30671,-7.4092 1.70387,-10.33666 3.14441,-6.58854 11.96488,-6.5346 15.07985,0.0922 1.33815,2.8468 1.66108,4.87022 1.65608,10.37673 -0.005,5.70879 -0.39751,7.96784 -1.84595,10.62907 -0.92993,1.7086 -2.92206,3.49461 -4.49614,4.03095 -1.52577,0.51989 -4.33962,0.51197 -5.83182,-0.0164 z m 4.88837,-1.1819 c 0.65222,-0.31574 1.43592,-0.9812 1.79168,-1.52136 1.25423,-1.9043 1.51098,-3.60916 1.64589,-10.9286 0.14121,-7.66084 -0.10205,-10.37496 -1.10768,-12.35948 -2.11066,-4.16517 -7.13084,-3.76872 -8.92291,0.70465 -0.5882,1.46823 -0.60706,1.77615 -0.61193,9.98163 -0.006,9.21811 0.1197,10.29486 1.43859,12.37454 0.80878,1.27532 2.52368,2.30928 3.83067,2.30963 0.42698,1.1e-4 1.29804,-0.25234 1.93569,-0.56101 z m -167.87864,0.42605 c -2.57059,-1.30675 -3.86805,-3.71937 -3.82344,-7.10974 0.0528,-4.01531 2.3255,-7.94946 6.08745,-10.53775 3.12965,-2.15327 7.39085,-2.41363 9.84684,-0.60164 2.01809,1.48888 3.03398,3.87964 3.33328,7.84422 l 0.17978,2.38158 0.79843,-1.27856 c 1.05373,-1.68736 2.21729,-4.27093 2.85854,-6.34698 0.40592,-1.31425 0.63092,-1.67846 1.03695,-1.67846 0.36748,0 0.51853,0.18062 0.51853,0.62003 0,1.60822 -2.28243,6.67076 -4.15319,9.21201 -1.08693,1.47651 -1.13847,1.63072 -1.13847,3.40636 0,1.8774 0.5204,3.69493 1.05796,3.69493 0.69289,0 1.78604,-0.82515 2.26062,-1.70643 0.53642,-0.99605 1.2363,-1.16067 1.39656,-0.32849 0.1184,0.61484 -1.09099,2.19047 -2.06984,2.69666 -1.12744,0.58302 -2.68174,0.49951 -3.69869,-0.19872 -0.72102,-0.49505 -1.09638,-1.01162 -2.03809,-2.80484 -0.0268,-0.0511 -0.4446,0.20905 -0.92839,0.57805 -0.48379,0.36901 -1.8128,1.11408 -2.95331,1.65571 -1.84793,0.87758 -2.35172,0.99696 -4.62785,1.09659 -2.36215,0.10341 -2.65867,0.0587 -3.94367,-0.59453 z m 6.90139,-1.05404 c 1.28834,-0.43739 3.85882,-1.8822 4.8205,-2.70947 0.52414,-0.45087 0.53705,-0.64458 0.3756,-5.62632 -0.18031,-5.56352 -0.4024,-6.56989 -1.76339,-7.99079 -2.39975,-2.5054 -7.31634,0.12108 -9.12379,4.87399 -1.43909,3.78422 -1.97985,8.38427 -1.16888,9.94296 0.40257,0.77374 1.37417,1.74052 2.00951,1.99953 0.63781,0.26003 3.49015,-0.0281 4.85045,-0.4899 z m 83.52039,0.66004 c 0,-0.88194 0.0882,-1.05833 0.52917,-1.05833 0.29104,0 0.52917,-0.11907 0.52917,-0.26459 0,-0.14552 0.23812,-0.26458 0.52916,-0.26458 0.29104,0 0.52917,-0.11906 0.52917,-0.26458 0,-0.14552 0.35719,-0.26459 0.79375,-0.26459 0.43656,0 0.79375,-0.11906 0.79375,-0.26458 0,-0.14552 0.23812,-0.26458 0.52917,-0.26458 0.29104,0 0.52916,-0.11907 0.52916,-0.26459 0,-0.14552 0.23813,-0.26458 0.52917,-0.26458 0.29104,0 0.52917,-0.11906 0.52917,-0.26458 0,-0.14552 0.35718,-0.26459 0.79375,-0.26459 0.43656,0 0.79375,-0.11906 0.79375,-0.26458 0,-0.14552 0.23812,-0.26458 0.52916,-0.26458 0.29104,0 0.52917,-0.11907 0.52917,-0.26459 0,-0.14552 0.23812,-0.26458 0.52917,-0.26458 0.29104,0 0.52916,-0.11906 0.52916,-0.26458 0,-0.14552 0.35719,-0.26459 0.79375,-0.26459 0.43657,0 0.79375,-0.11906 0.79375,-0.26458 0,-0.14552 0.23813,-0.26458 0.52917,-0.26458 0.29104,0 0.52917,-0.11907 0.52917,-0.26459 0,-0.14552 0.23812,-0.26458 0.52916,-0.26458 0.29104,0 0.52917,-0.11906 0.52917,-0.26458 0,-0.14552 0.35719,-0.26459 0.79375,-0.26459 0.43656,0 0.79375,-0.11906 0.79375,-0.26458 0,-0.14552 0.23813,-0.26458 0.52917,-0.26458 0.29104,0 0.52916,-0.11907 0.52916,-0.26459 0,-0.14552 0.23813,-0.26458 0.52917,-0.26458 0.29104,0 0.52917,-0.11906 0.52917,-0.26458 0,-0.14552 0.23812,-0.26459 0.52916,-0.26459 0.29105,0 0.52917,-0.11906 0.52917,-0.26458 0,-0.14552 0.35719,-0.26458 0.79375,-0.26458 0.43656,0 0.79375,-0.11907 0.79375,-0.26459 0,-0.14552 0.23813,-0.26458 0.52917,-0.26458 0.29104,0 0.52916,-0.11906 0.52916,-0.26458 0,-0.14552 0.23813,-0.26459 0.52917,-0.26459 0.35277,0 0.52917,-0.17639 0.52917,-0.52916 0,-0.35278 -0.1764,-0.52917 -0.52917,-0.52917 -0.29104,0 -0.52917,-0.11906 -0.52917,-0.26458 0,-0.14552 -0.23812,-0.26459 -0.52916,-0.26459 -0.29104,0 -0.52917,-0.11906 -0.52917,-0.26458 0,-0.14552 -0.35719,-0.26458 -0.79375,-0.26458 -0.43656,0 -0.79375,-0.11907 -0.79375,-0.26459 0,-0.14552 -0.23812,-0.26458 -0.52917,-0.26458 -0.29104,0 -0.52916,-0.11906 -0.52916,-0.26458 0,-0.14552 -0.23813,-0.26459 -0.52917,-0.26459 -0.29104,0 -0.52917,-0.11906 -0.52917,-0.26458 0,-0.14552 -0.23812,-0.26458 -0.52916,-0.26458 -0.29104,0 -0.52917,-0.11907 -0.52917,-0.26459 0,-0.14552 -0.35719,-0.26458 -0.79375,-0.26458 -0.43656,0 -0.79375,-0.11906 -0.79375,-0.26458 0,-0.14552 -0.23813,-0.26459 -0.52917,-0.26459 -0.29104,0 -0.52916,-0.11906 -0.52916,-0.26458 0,-0.14552 -0.23813,-0.26458 -0.52917,-0.26458 -0.29104,0 -0.52917,-0.11907 -0.52917,-0.26459 0,-0.14552 -0.35718,-0.26458 -0.79375,-0.26458 -0.43656,0 -0.79375,-0.11906 -0.79375,-0.26458 0,-0.14552 -0.23812,-0.26459 -0.52916,-0.26459 -0.29105,0 -0.52917,-0.11906 -0.52917,-0.26458 0,-0.14552 -0.23813,-0.26458 -0.52917,-0.26458 -0.29104,0 -0.52916,-0.11907 -0.52916,-0.26459 0,-0.14552 -0.35719,-0.26458 -0.79375,-0.26458 -0.43657,0 -0.79375,-0.11906 -0.79375,-0.26458 0,-0.14552 -0.23813,-0.26459 -0.52917,-0.26459 -0.29104,0 -0.52917,-0.11906 -0.52917,-0.26458 0,-0.14552 -0.23812,-0.26458 -0.52916,-0.26458 -0.29105,0 -0.52917,-0.11907 -0.52917,-0.26459 0,-0.14552 -0.35719,-0.26458 -0.79375,-0.26458 -0.43656,0 -0.79375,-0.11906 -0.79375,-0.26458 0,-0.14552 -0.23813,-0.26459 -0.52917,-0.26459 -0.29104,0 -0.52916,-0.11906 -0.52916,-0.26458 0,-0.14552 -0.23813,-0.26458 -0.52917,-0.26458 -0.44098,0 -0.52917,-0.17639 -0.52917,-1.05834 0,-0.88194 0.0882,-1.05833 0.52917,-1.05833 0.29104,0 0.52917,0.11906 0.52917,0.26458 0,0.14552 0.35718,0.26459 0.79375,0.26459 0.43656,0 0.79375,0.11906 0.79375,0.26458 0,0.14552 0.23812,0.26458 0.52916,0.26458 0.29104,0 0.52917,0.11906 0.52917,0.26459 0,0.14552 0.23812,0.26458 0.52917,0.26458 0.29104,0 0.52916,0.11906 0.52916,0.26458 0,0.14552 0.35719,0.26459 0.79375,0.26459 0.43657,0 0.79375,0.11906 0.79375,0.26458 0,0.14552 0.23813,0.26458 0.52917,0.26458 0.29104,0 0.52917,0.11907 0.52917,0.26459 0,0.14552 0.23812,0.26458 0.52916,0.26458 0.29104,0 0.52917,0.11906 0.52917,0.26458 0,0.14552 0.35719,0.26459 0.79375,0.26459 0.43656,0 0.79375,0.11906 0.79375,0.26458 0,0.14552 0.23812,0.26458 0.52917,0.26458 0.29104,0 0.52916,0.11907 0.52916,0.26459 0,0.14552 0.23813,0.26458 0.52917,0.26458 0.29104,0 0.52917,0.11906 0.52917,0.26458 0,0.14552 0.35718,0.26459 0.79375,0.26459 0.43656,0 0.79375,0.11906 0.79375,0.26458 0,0.14552 0.23812,0.26458 0.52916,0.26458 0.29105,0 0.52917,0.11907 0.52917,0.26459 0,0.14552 0.23813,0.26458 0.52917,0.26458 0.29104,0 0.52916,0.11906 0.52916,0.26458 0,0.14552 0.35719,0.26459 0.79375,0.26459 0.43657,0 0.79375,0.11906 0.79375,0.26458 0,0.14552 0.23813,0.26458 0.52917,0.26458 0.29104,0 0.52917,0.11907 0.52917,0.26459 0,0.14552 0.23812,0.26458 0.52916,0.26458 0.29105,0 0.52917,0.11906 0.52917,0.26458 0,0.14552 0.35719,0.26459 0.79375,0.26459 0.43656,0 0.79375,0.11906 0.79375,0.26458 0,0.14552 0.23813,0.26458 0.52917,0.26458 0.29104,0 0.52916,0.11907 0.52916,0.26459 0,0.14552 0.23813,0.26458 0.52917,0.26458 0.29104,0 0.52917,0.11906 0.52917,0.26458 0,0.14552 0.35718,0.26459 0.79375,0.26459 0.43656,0 0.79375,0.11906 0.79375,0.26458 0,0.14552 0.23812,0.26458 0.52916,0.26458 0.29105,0 0.52917,0.11907 0.52917,0.26459 0,0.14552 0.23813,0.26458 0.52917,0.26458 0.35277,0 0.52916,0.17639 0.52916,0.52917 0,0.35277 -0.17639,0.52916 -0.52916,0.52916 -0.29104,0 -0.52917,0.11907 -0.52917,0.26459 0,0.14552 -0.23812,0.26458 -0.52917,0.26458 -0.29104,0 -0.52916,0.11906 -0.52916,0.26458 0,0.14552 -0.35719,0.26459 -0.79375,0.26459 -0.43657,0 -0.79375,0.11906 -0.79375,0.26458 0,0.14552 -0.23813,0.26458 -0.52917,0.26458 -0.29104,0 -0.52917,0.11907 -0.52917,0.26459 0,0.14552 -0.23812,0.26458 -0.52916,0.26458 -0.29104,0 -0.52917,0.11906 -0.52917,0.26458 0,0.14552 -0.35719,0.26459 -0.79375,0.26459 -0.43656,0 -0.79375,0.11906 -0.79375,0.26458 0,0.14552 -0.23812,0.26458 -0.52917,0.26458 -0.29104,0 -0.52916,0.11907 -0.52916,0.26459 0,0.14552 -0.23813,0.26458 -0.52917,0.26458 -0.29104,0 -0.52917,0.11906 -0.52917,0.26458 0,0.14552 -0.35718,0.26459 -0.79375,0.26459 -0.43656,0 -0.79375,0.11906 -0.79375,0.26458 0,0.14552 -0.23812,0.26458 -0.52916,0.26458 -0.29104,0 -0.52917,0.11907 -0.52917,0.26459 0,0.14552 -0.23812,0.26458 -0.52917,0.26458 -0.29104,0 -0.52916,0.11906 -0.52916,0.26458 0,0.14552 -0.35719,0.26459 -0.79375,0.26459 -0.43657,0 -0.79375,0.11906 -0.79375,0.26458 0,0.14552 -0.23813,0.26458 -0.52917,0.26458 -0.29104,0 -0.52917,0.11907 -0.52917,0.26459 0,0.14552 -0.23812,0.26458 -0.52916,0.26458 -0.29105,0 -0.52917,0.11906 -0.52917,0.26458 0,0.14552 -0.35719,0.26459 -0.79375,0.26459 -0.43656,0 -0.79375,0.11906 -0.79375,0.26458 0,0.14552 -0.23813,0.26458 -0.52917,0.26458 -0.29104,0 -0.52916,0.11907 -0.52916,0.26459 0,0.14552 -0.23813,0.26458 -0.52917,0.26458 -0.29104,0 -0.52917,0.11906 -0.52917,0.26458 0,0.14552 -0.35718,0.26459 -0.79375,0.26459 -0.43656,0 -0.79375,0.11906 -0.79375,0.26458 0,0.14552 -0.23812,0.26458 -0.52916,0.26458 -0.29105,0 -0.52917,0.11907 -0.52917,0.26459 0,0.14552 -0.23813,0.26458 -0.52917,0.26458 -0.29104,0 -0.52916,0.11906 -0.52916,0.26458 0,0.14552 -0.35719,0.26459 -0.79375,0.26459 -0.43657,0 -0.79375,0.11906 -0.79375,0.26458 0,0.14552 -0.23813,0.26458 -0.52917,0.26458 -0.44098,0 -0.52917,-0.17639 -0.52917,-1.05833 z m -60.84485,-10.8305 c -0.41315,-0.77198 -0.33552,-1.19018 0.33848,-1.82336 1.06079,-0.99657 2.56262,-0.63197 2.56262,0.62213 0,1.34492 -2.3119,2.30218 -2.9011,1.20123 z m 154.24277,-5.83823 c 0,-0.14552 -0.23812,-0.26458 -0.52916,-0.26458 -0.29104,0 -0.52917,-0.11907 -0.52917,-0.26459 0,-0.14552 -0.18256,-0.26458 -0.40568,-0.26458 -0.52663,0 -2.24015,-1.71351 -2.24015,-2.24014 0,-0.22313 -0.11907,-0.40569 -0.26459,-0.40569 -0.14552,0 -0.26458,-0.23813 -0.26458,-0.52917 0,-0.29104 -0.11906,-0.52917 -0.26458,-0.52917 -0.15119,0 -0.26459,-0.79375 -0.26459,-1.85208 0,-1.05833 0.1134,-1.85208 0.26459,-1.85208 0.14552,0 0.26458,-0.23813 0.26458,-0.52917 0,-0.29104 0.11906,-0.52917 0.26458,-0.52917 0.14552,0 0.26459,-0.18256 0.26459,-0.40569 0,-0.52663 1.71352,-2.24014 2.24015,-2.24014 0.22312,0 0.40568,-0.11906 0.40568,-0.26458 0,-0.14553 0.23813,-0.26459 0.52917,-0.26459 0.29104,0 0.52916,-0.11906 0.52916,-0.26458 0,-0.15119 0.79375,-0.26458 1.85209,-0.26458 1.05833,0 1.85208,0.11339 1.85208,0.26458 0,0.14552 0.23813,0.26458 0.52917,0.26458 0.29104,0 0.52916,0.11906 0.52916,0.26459 0,0.14552 0.18257,0.26458 0.40569,0.26458 0.52663,0 2.24015,1.71351 2.24015,2.24014 0,0.22313 0.11906,0.40569 0.26458,0.40569 0.14552,0 0.26458,0.23813 0.26458,0.52917 0,0.29104 0.11907,0.52917 0.26459,0.52917 0.15118,0 0.26458,0.79375 0.26458,1.85208 0,1.05833 -0.1134,1.85208 -0.26458,1.85208 -0.14552,0 -0.26459,0.23813 -0.26459,0.52917 0,0.29104 -0.11906,0.52917 -0.26458,0.52917 -0.14552,0 -0.26458,0.18256 -0.26458,0.40569 0,0.52663 -1.71352,2.24014 -2.24015,2.24014 -0.22312,0 -0.40569,0.11906 -0.40569,0.26458 0,0.14552 -0.23812,0.26459 -0.52916,0.26459 -0.29104,0 -0.52917,0.11906 -0.52917,0.26458 0,0.15119 -0.79375,0.26458 -1.85208,0.26458 -1.05834,0 -1.85209,-0.11339 -1.85209,-0.26458 z m 3.175,-1.5875 c 0,-0.14552 0.23813,-0.26458 0.52917,-0.26458 0.29104,0 0.52917,-0.11907 0.52917,-0.26459 0,-0.14552 0.18708,-0.26458 0.41576,-0.26458 0.53475,0 1.17174,-0.63699 1.17174,-1.17173 0,-0.22867 0.11906,-0.41577 0.26458,-0.41577 0.14552,0 0.26458,-0.23813 0.26458,-0.52917 0,-0.29104 0.11907,-0.52916 0.26459,-0.52916 0.14552,0 0.26458,-0.59532 0.26458,-1.32292 0,-0.72761 -0.11906,-1.32292 -0.26458,-1.32292 -0.14552,0 -0.26459,-0.23812 -0.26459,-0.52916 0,-0.29105 -0.11906,-0.52917 -0.26458,-0.52917 -0.14552,0 -0.26458,-0.1871 -0.26458,-0.41578 0,-0.53473 -0.63699,-1.17172 -1.17174,-1.17172 -0.22868,0 -0.41576,-0.11906 -0.41576,-0.26458 0,-0.14553 -0.23813,-0.26459 -0.52917,-0.26459 -0.29104,0 -0.52917,-0.11906 -0.52917,-0.26458 0,-0.14552 -0.59531,-0.26458 -1.32291,-0.26458 -0.72761,0 -1.32292,0.11906 -1.32292,0.26458 0,0.14552 -0.23812,0.26458 -0.52917,0.26458 -0.29104,0 -0.52916,0.11906 -0.52916,0.26459 0,0.14552 -0.18709,0.26458 -0.41577,0.26458 -0.53475,0 -1.17173,0.63699 -1.17173,1.17172 0,0.22868 -0.11907,0.41578 -0.26459,0.41578 -0.14552,0 -0.26458,0.23812 -0.26458,0.52917 0,0.29104 -0.11906,0.52916 -0.26458,0.52916 -0.14552,0 -0.26459,0.59531 -0.26459,1.32292 0,0.7276 0.11907,1.32292 0.26459,1.32292 0.14552,0 0.26458,0.23812 0.26458,0.52916 0,0.29104 0.11906,0.52917 0.26458,0.52917 0.14552,0 0.26459,0.1871 0.26459,0.41577 0,0.53474 0.63698,1.17173 1.17173,1.17173 0.22868,0 0.41577,0.11906 0.41577,0.26458 0,0.14552 0.23812,0.26459 0.52916,0.26459 0.29105,0 0.52917,0.11906 0.52917,0.26458 0,0.14552 0.59531,0.26458 1.32292,0.26458 0.7276,0 1.32291,-0.11906 1.32291,-0.26458 z M -155.8585,463.25116 c -1.8591,-0.6593 -2.42848,-1.94392 -1.58476,-3.57549 0.47488,-0.91832 1.1379,-1.31762 2.18782,-1.31762 1.6063,0 2.15448,1.73624 0.98645,3.12436 l -0.65946,0.78372 0.59331,0.15901 c 0.9387,0.25158 3.14484,0.18947 4.25903,-0.11991 1.23067,-0.34172 3.19901,-2.09315 3.90282,-3.47273 0.28186,-0.5525 0.79168,-2.18598 1.13294,-3.62997 l 0.62047,-2.62542 -1.3044,0.89727 c -1.48769,1.02335 -2.5877,1.29824 -4.47096,1.11728 -2.09173,-0.20099 -4.11173,-2.12498 -4.76845,-4.54181 -0.41213,-1.51667 -0.13757,-5.01993 0.53081,-6.77305 2.14582,-5.62837 8.02599,-9.5326 11.60619,-7.70612 0.60304,0.30765 1.30868,0.84075 1.5681,1.18467 l 0.47167,0.62531 0.73297,-0.78465 c 0.59769,-0.63983 0.86668,-0.75109 1.4574,-0.60283 0.81972,0.20574 1.11932,0.56272 1.11665,1.33049 -0.001,0.29104 -1.1762,5.19371 -2.61152,10.89481 -2.27228,9.02554 -2.71958,10.51869 -3.45979,11.54942 -1.06057,1.47682 -2.76587,2.71827 -4.63754,3.37611 -1.76898,0.62174 -6.05005,0.68155 -7.66975,0.10715 z m 8.46667,-10.14878 c 1.33451,-0.60721 3.35605,-2.64083 3.76748,-3.79002 0.17254,-0.4819 0.7931,-2.82654 1.37903,-5.21031 l 1.06532,-4.33411 -0.49029,-1.08984 c -1.24066,-2.75784 -3.53013,-3.1577 -5.8872,-1.02823 -1.36901,1.23682 -2.15474,2.6219 -2.96693,5.23005 -1.78857,5.74355 -1.83967,8.50548 -0.18479,9.98802 0.95017,0.85122 1.82582,0.9131 3.31738,0.23444 z m 123.957298,-1.35892 c 0,-0.29104 -0.119062,-0.52916 -0.264583,-0.52916 -0.145521,0 -0.264583,-0.35719 -0.264583,-0.79375 0,-0.43657 -0.119063,-0.79375 -0.264584,-0.79375 -0.145521,0 -0.264583,-0.35719 -0.264583,-0.79375 0,-0.43657 -0.119063,-0.79375 -0.264583,-0.79375 -0.145521,0 -0.264584,-0.47625 -0.264584,-1.05834 0,-0.58208 -0.119062,-1.05833 -0.264583,-1.05833 -0.145521,0 -0.264583,-0.35719 -0.264583,-0.79375 0,-0.43656 -0.119063,-0.79375 -0.264584,-0.79375 -0.145521,0 -0.264583,-0.35719 -0.264583,-0.79375 0,-0.43656 -0.119063,-0.79375 -0.264583,-0.79375 -0.145521,0 -0.264584,-0.35719 -0.264584,-0.79375 0,-0.43656 -0.119062,-0.79375 -0.264583,-0.79375 -0.145521,0 -0.264584,-0.47625 -0.264584,-1.05833 0,-0.58209 -0.119062,-1.05834 -0.264583,-1.05834 -0.145521,0 -0.264583,-0.35719 -0.264583,-0.79375 0,-0.43656 -0.119063,-0.79375 -0.264584,-0.79375 -0.14552,0 -0.264583,-0.35719 -0.264583,-0.79375 0,-0.43656 -0.119062,-0.79375 -0.264583,-0.79375 -0.145521,0 -0.264584,-0.47625 -0.264584,-1.05833 0,-0.58209 -0.119062,-1.05834 -0.264583,-1.05834 -0.145521,0 -0.264583,-0.35718 -0.264583,-0.79375 0,-0.43656 -0.119063,-0.79375 -0.264584,-0.79375 -0.14552,0 -0.264583,-0.35718 -0.264583,-0.79375 0,-0.43656 -0.119063,-0.79375 -0.264583,-0.79375 -0.145521,0 -0.264584,-0.47625 -0.264584,-1.05833 0,-0.58208 -0.119062,-1.05833 -0.264583,-1.05833 -0.145521,0 -0.264583,-0.35719 -0.264583,-0.79375 0,-0.43656 -0.119063,-0.79375 -0.264584,-0.79375 -0.145521,0 -0.264583,-0.35719 -0.264583,-0.79375 0,-0.43656 -0.119063,-0.79375 -0.264583,-0.79375 -0.145521,0 -0.264584,-0.35719 -0.264584,-0.79375 0,-0.43656 -0.119062,-0.79375 -0.264583,-0.79375 -0.145521,0 -0.264583,-0.47625 -0.264583,-1.05834 0,-0.58208 -0.119063,-1.05833 -0.264584,-1.05833 -0.145521,0 -0.264583,-0.35719 -0.264583,-0.79375 0,-0.43656 -0.119063,-0.79375 -0.264584,-0.79375 -0.14552,0 -0.264583,-0.35719 -0.264583,-0.79375 0,-0.43656 -0.119062,-0.79375 -0.264583,-0.79375 -0.145521,0 -0.264584,-0.47625 -0.264584,-1.05833 0,-0.58209 -0.06212,-1.05834 -0.138043,-1.05834 -0.263628,0 -3.036957,2.9005 -3.036957,3.17622 0,0.15251 -0.538467,0.81576 -1.196594,1.47389 -1.079632,1.07963 -1.236586,1.15659 -1.605775,0.78741 -0.369189,-0.36919 -0.27809,-0.53687 0.932011,-1.71555 0.737656,-0.7185 1.341192,-1.43975 1.341192,-1.60277 0,-0.16303 0.714375,-0.99761 1.5875,-1.85461 0.873125,-0.85701 1.5875,-1.68699 1.5875,-1.8444 0,-0.15741 0.538467,-0.82466 1.196594,-1.48279 1.055518,-1.05552 1.242679,-1.1505 1.5875,-0.80568 0.214998,0.21499 0.390906,0.69707 0.390906,1.07126 0,0.3742 0.119062,0.68036 0.264583,0.68036 0.145521,0 0.264584,0.35719 0.264584,0.79375 0,0.43656 0.119062,0.79375 0.264583,0.79375 0.145521,0 0.264583,0.47625 0.264583,1.05833 0,0.58208 0.119063,1.05833 0.264584,1.05833 0.14552,0 0.264583,0.35719 0.264583,0.79375 0,0.43657 0.119063,0.79375 0.264583,0.79375 0.145521,0 0.264584,0.35719 0.264584,0.79375 0,0.43657 0.119062,0.79375 0.264583,0.79375 0.145521,0 0.264583,0.35719 0.264583,0.79375 0,0.43657 0.119063,0.79375 0.264584,0.79375 0.145521,0 0.264583,0.47625 0.264583,1.05834 0,0.58208 0.119063,1.05833 0.264583,1.05833 0.145521,0 0.264584,0.35719 0.264584,0.79375 0,0.43656 0.119062,0.79375 0.264583,0.79375 0.145521,0 0.264583,0.35719 0.264583,0.79375 0,0.43656 0.119063,0.79375 0.264584,0.79375 0.145521,0 0.264583,0.47625 0.264583,1.05833 0,0.58209 0.119063,1.05834 0.264584,1.05834 0.14552,0 0.264583,0.35719 0.264583,0.79375 0,0.43656 0.119062,0.79375 0.264583,0.79375 0.145521,0 0.264584,0.35719 0.264584,0.79375 0,0.43656 0.119062,0.79375 0.264583,0.79375 0.145521,0 0.264583,0.47625 0.264583,1.05833 0,0.58208 0.119063,1.05834 0.264584,1.05834 0.14552,0 0.264583,0.35718 0.264583,0.79375 0,0.43656 0.119062,0.79375 0.264583,0.79375 0.145521,0 0.264584,0.35718 0.264584,0.79375 0,0.43656 0.119062,0.79375 0.264583,0.79375 0.145521,0 0.264583,0.35718 0.264583,0.79375 0,0.43656 0.119063,0.79375 0.264584,0.79375 0.145521,0 0.264583,0.47625 0.264583,1.05833 0,0.58208 0.119063,1.05833 0.264583,1.05833 0.145521,0 0.264584,0.35719 0.264584,0.79375 0,0.43656 0.119062,0.79375 0.264583,0.79375 0.145521,0 0.264583,0.35719 0.264583,0.79375 0,0.43656 0.119063,0.79375 0.264584,0.79375 0.145521,0 0.264583,-0.23812 0.264583,-0.52916 0,-0.29105 0.119063,-0.52917 0.264583,-0.52917 0.145521,0 0.264584,-0.47625 0.264584,-1.05833 0,-0.58209 0.119062,-1.05834 0.264583,-1.05834 0.145521,0 0.264583,-0.35719 0.264583,-0.79375 0,-0.43656 0.119063,-0.79375 0.264584,-0.79375 0.145521,0 0.264583,-0.35719 0.264583,-0.79375 0,-0.43656 0.119063,-0.79375 0.264584,-0.79375 0.14552,0 0.264583,-0.47625 0.264583,-1.05833 0,-0.58208 0.119062,-1.05833 0.264583,-1.05833 0.145521,0 0.264584,-0.35719 0.264584,-0.79375 0,-0.43657 0.119062,-0.79375 0.264583,-0.79375 0.145521,0 0.264583,-0.35719 0.264583,-0.79376 0,-0.43656 0.119063,-0.79375 0.264584,-0.79375 0.14552,0 0.264583,-0.47625 0.264583,-1.05833 0,-0.58208 0.119062,-1.05833 0.264583,-1.05833 0.145521,0 0.264584,-0.35719 0.264584,-0.79375 0,-0.43656 0.119062,-0.79375 0.264583,-0.79375 0.145521,0 0.264583,-0.47625 0.264583,-1.05834 0,-0.58208 0.119063,-1.05833 0.264584,-1.05833 0.145521,0 0.264583,-0.35719 0.264583,-0.79375 0,-0.43656 0.119063,-0.79375 0.264583,-0.79375 0.145521,0 0.264584,-0.35719 0.264584,-0.79375 0,-0.43656 0.119062,-0.79375 0.264583,-0.79375 0.145521,0 0.264583,-0.47625 0.264583,-1.05833 0,-0.58209 0.119063,-1.05834 0.264584,-1.05834 0.145521,0 0.264583,-0.35718 0.264583,-0.79375 0,-0.43656 0.119063,-0.79375 0.264583,-0.79375 0.145521,0 0.264584,-0.35718 0.264584,-0.79375 0,-0.43656 0.119062,-0.79375 0.264583,-0.79375 0.145521,0 0.264584,-0.47625 0.264584,-1.05833 0,-0.58208 0.119062,-1.05833 0.264583,-1.05833 0.145521,0 0.264583,-0.35719 0.264583,-0.79375 0,-0.43656 0.119063,-0.79375 0.264584,-0.79375 0.14552,0 0.264583,-0.35719 0.264583,-0.79375 0,-0.43656 0.119062,-0.79375 0.264583,-0.79375 0.145521,0 0.264584,-0.47625 0.264584,-1.05834 0,-0.58208 0.119062,-1.05833 0.264583,-1.05833 0.145521,0 0.264583,-0.35719 0.264583,-0.79375 0,-0.43656 0.119063,-0.79375 0.264584,-0.79375 0.14552,0 0.264583,-0.35719 0.264583,-0.79375 0,-0.43656 0.119062,-0.79375 0.264583,-0.79375 0.145521,0 0.264584,-0.47625 0.264584,-1.05833 0,-0.58209 0.119062,-1.05834 0.2645829,-1.05834 0.145521,0 0.264583,-0.35718 0.264583,-0.79375 0,-0.43656 0.119063,-0.79375 0.264584,-0.79375 0.145521,0 0.264583,-0.35718 0.264583,-0.79375 0,-0.43656 0.119063,-0.79375 0.264583,-0.79375 0.145521,0 0.264584,-0.47625 0.264584,-1.05833 0,-0.58208 0.119062,-1.05833 0.264583,-1.05833 0.145521,0 0.264583,-0.35719 0.264583,-0.79375 0,-0.43656 0.119063,-0.79375 0.264584,-0.79375 0.145521,0 0.264583,-0.35719 0.264583,-0.79375 0,-0.43656 0.119063,-0.79375 0.264583,-0.79375 0.14552,0 0.26458,-0.47625 0.26458,-1.05834 0,-0.58208 0.11907,-1.05833 0.26459,-1.05833 0.14552,0 0.26458,-0.35719 0.26458,-0.79375 0,-0.43656 0.11906,-0.79375 0.26458,-0.79375 0.14552,0 0.26459,-0.35719 0.26459,-0.79375 0,-0.43656 0.11906,-0.79375 0.26458,-0.79375 0.14552,0 0.26458,-0.47625 0.26458,-1.05833 0,-0.58209 0.11907,-1.05834 0.26459,-1.05834 0.14552,0 0.26458,-0.35718 0.26458,-0.79375 0,-0.43656 0.11906,-0.79375 0.26458,-0.79375 0.14552,0 0.26459,-0.35718 0.26459,-0.79375 0,-0.43656 0.11906,-0.79375 0.26458,-0.79375 0.14552,0 0.26458,-0.47625 0.26458,-1.05833 0,-0.58208 0.11907,-1.05833 0.26459,-1.05833 0.14552,0 0.26458,-0.35719 0.26458,-0.79375 0,-0.43657 0.11906,-0.79375 0.26458,-0.79375 0.14552,0 0.26459,-0.35719 0.26459,-0.79375 0,-0.43657 0.11906,-0.79375 0.26458,-0.79375 0.14552,0 0.26458,-0.47625 0.26458,-1.05834 0,-0.58208 0.11907,-1.05833 0.26459,-1.05833 0.14552,0 0.26458,-0.35719 0.26458,-0.79375 0,-0.43656 0.11906,-0.79375 0.26458,-0.79375 0.14552,0 0.26459,-0.35719 0.26459,-0.79375 0,-0.43656 0.11906,-0.79375 0.26458,-0.79375 0.14552,0 0.26458,-0.47625 0.26458,-1.05833 0,-0.58209 0.11907,-1.05834 0.26459,-1.05834 0.14552,0 0.26458,-0.35718 0.26458,-0.79375 v -0.79375 h 45.1114601 45.11146 v 0.66146 0.66146 h -44.31771 c -39.2171301,0 -44.3177101,0.0457 -44.3177101,0.39688 0,0.21828 -0.11906,0.39687 -0.26458,0.39687 -0.14552,0 -0.26459,0.35719 -0.26459,0.79375 0,0.43656 -0.11906,0.79375 -0.26458,0.79375 -0.14552,0 -0.26458,0.35719 -0.26458,0.79375 0,0.43656 -0.11906,0.79375 -0.26459,0.79375 -0.14552,0 -0.26458,0.47625 -0.26458,1.05833 0,0.58209 -0.11906,1.05834 -0.26458,1.05834 -0.14552,0 -0.26459,0.35718 -0.26459,0.79375 0,0.43656 -0.11906,0.79375 -0.26458,0.79375 -0.14552,0 -0.26458,0.35718 -0.26458,0.79375 0,0.43656 -0.11907,0.79375 -0.26459,0.79375 -0.14552,0 -0.26458,0.47625 -0.26458,1.05833 0,0.58208 -0.11906,1.05833 -0.26458,1.05833 -0.14552,0 -0.26459,0.35719 -0.26459,0.79375 0,0.43657 -0.11906,0.79375 -0.26458,0.79375 -0.14552,0 -0.26458,0.47625 -0.26458,1.05834 0,0.58208 -0.11907,1.05833 -0.26459,1.05833 -0.14552,0 -0.26458,0.35719 -0.26458,0.79375 0,0.43656 -0.11906,0.79375 -0.26458,0.79375 -0.14552,0 -0.26459,0.35719 -0.26459,0.79375 0,0.43656 -0.11906,0.79375 -0.26458,0.79375 -0.14552,0 -0.26458,0.47625 -0.26458,1.05833 0,0.58209 -0.11907,1.05834 -0.26459,1.05834 -0.14552,0 -0.26458,0.35719 -0.26458,0.79375 0,0.43656 -0.11906,0.79375 -0.26458,0.79375 -0.14552,0 -0.26459,0.35719 -0.26459,0.79375 0,0.43656 -0.11906,0.79375 -0.26458,0.79375 -0.14552,0 -0.26458,0.47625 -0.26458,1.05833 0,0.58208 -0.11907,1.05833 -0.26459,1.05833 -0.14552,0 -0.26458,0.35719 -0.26458,0.79375 0,0.43657 -0.11906,0.79375 -0.26458,0.79375 -0.14552,0 -0.26459,0.35719 -0.26459,0.79375 0,0.43657 -0.11906,0.79375 -0.26458,0.79375 -0.14552,0 -0.264583,0.47625 -0.264583,1.05834 0,0.58208 -0.119062,1.05833 -0.264583,1.05833 -0.145521,0 -0.264584,0.35719 -0.264584,0.79375 0,0.43656 -0.119062,0.79375 -0.264583,0.79375 -0.145521,0 -0.264583,0.35719 -0.264583,0.79375 0,0.43656 -0.119063,0.79375 -0.264584,0.79375 -0.14552,0 -0.264583,0.47625 -0.264583,1.05833 0,0.58209 -0.119062,1.05834 -0.264583,1.05834 -0.145521,0 -0.264584,0.35719 -0.264584,0.79375 0,0.43656 -0.119062,0.79375 -0.264583,0.79375 -0.1455209,0 -0.2645829,0.35719 -0.2645829,0.79375 0,0.43656 -0.119063,0.79375 -0.264584,0.79375 -0.145521,0 -0.264583,0.47625 -0.264583,1.05833 0,0.58208 -0.119063,1.05833 -0.264583,1.05833 -0.145521,0 -0.264584,0.35719 -0.264584,0.79375 0,0.43657 -0.119062,0.79375 -0.264583,0.79375 -0.145521,0 -0.264583,0.35719 -0.264583,0.79375 0,0.43657 -0.119063,0.79375 -0.264584,0.79375 -0.145521,0 -0.264583,0.47625 -0.264583,1.05834 0,0.58208 -0.119063,1.05833 -0.264583,1.05833 -0.145521,0 -0.264584,0.35719 -0.264584,0.79375 0,0.43656 -0.119062,0.79375 -0.264583,0.79375 -0.145521,0 -0.264583,0.35719 -0.264583,0.79375 0,0.43656 -0.119063,0.79375 -0.264584,0.79375 -0.145521,0 -0.264583,0.47625 -0.264583,1.05833 0,0.58209 -0.119063,1.05834 -0.264584,1.05834 -0.14552,0 -0.264583,0.35719 -0.264583,0.79375 0,0.43656 -0.119062,0.79375 -0.264583,0.79375 -0.145521,0 -0.264584,0.35719 -0.264584,0.79375 0,0.43656 -0.119062,0.79375 -0.264583,0.79375 -0.145521,0 -0.264583,0.47625 -0.264583,1.05833 0,0.58208 -0.119063,1.05833 -0.264584,1.05833 -0.14552,0 -0.264583,0.35719 -0.264583,0.79375 0,0.43657 -0.119062,0.79375 -0.264583,0.79375 -0.145521,0 -0.264584,0.35719 -0.264584,0.79375 0,0.43657 -0.119062,0.79376 -0.264583,0.79376 -0.145521,0 -0.264583,0.47625 -0.264583,1.05833 0,0.58208 -0.119063,1.05833 -0.264584,1.05833 -0.145521,0 -0.264583,0.35719 -0.264583,0.79375 0,0.43656 -0.119063,0.79375 -0.264583,0.79375 -0.145521,0 -0.264584,0.35719 -0.264584,0.79375 0,0.43656 -0.119062,0.79375 -0.264583,0.79375 -0.145521,0 -0.264583,0.47625 -0.264583,1.05834 0,0.58208 -0.119063,1.05833 -0.264584,1.05833 -0.145521,0 -0.264583,0.35719 -0.264583,0.79375 0,0.43656 -0.119063,0.79375 -0.264583,0.79375 -0.145521,0 -0.264584,0.35719 -0.264584,0.79375 0,0.43656 -0.119062,0.79375 -0.264583,0.79375 -0.145521,0 -0.264584,0.47625 -0.264584,1.05833 0,0.58209 -0.119062,1.05834 -0.264583,1.05834 -0.145521,0 -0.264583,0.35718 -0.264583,0.79375 0,0.43656 -0.119063,0.79375 -0.264584,0.79375 -0.14552,0 -0.264583,0.35718 -0.264583,0.79375 0,0.43656 -0.119062,0.79375 -0.264583,0.79375 -0.145521,0 -0.264584,0.23812 -0.264584,0.52916 0,0.41158 -0.176389,0.52917 -0.79375,0.52917 -0.61736,0 -0.79375,-0.11759 -0.79375,-0.52917 z m -96.572918,-4.49791 v -1.05834 h 13.49375 13.493748 v 1.05834 1.05833 h -13.493748 -13.49375 z m 147.240632,-3.60066 c -1.27815,-0.69634 -1.90197,-1.3903 -2.55432,-2.84152 -0.52256,-1.16247 -0.61183,-1.79129 -0.60665,-4.27345 0.006,-3.0251 0.47433,-4.73799 1.64972,-6.03776 1.26802,-1.4022 4.50278,-1.97355 6.48482,-1.1454 2.315,0.96727 3.48177,3.71931 3.31692,7.82355 -0.12408,3.08924 -0.92427,5.03657 -2.50927,6.10649 -1.26095,0.85117 -4.51433,1.05832 -5.78122,0.36809 z m 3.95967,-0.74413 c 1.53014,-0.63933 1.83979,-1.59184 1.94209,-5.97396 0.0995,-4.26287 -0.16153,-5.56989 -1.27776,-6.39779 -1.67802,-1.24457 -4.21032,-0.68952 -4.9527,1.08557 -0.52365,1.2521 -0.73547,5.77573 -0.37744,8.06068 0.47786,3.04964 2.21408,4.2499 4.66581,3.2255 z m 21.04345,-5.70938 v -4.7625 h -4.7625 -4.7625 v -0.79375 -0.79375 h 4.7625 4.7625 v -4.7625 -4.7625 h 0.79375 0.79375 v 4.7625 4.7625 h 4.7625 4.7625 v 0.79375 0.79375 h -4.7625 -4.7625 v 4.7625 4.7625 h -0.79375 -0.79375 z m -172.243752,2.64583 v -1.05833 h 13.49375 13.493748 v 1.05833 1.05834 H -106.5137 -120.00745 Z M 9.4549719,439.13793 c -0.0918,-0.23908 0.40498,-2.78367 1.1038301,-5.65463 1.3633,-5.60058 1.41008,-6.61067 0.30618,-6.61067 -0.83041,0 -1.3983601,0.68966 -1.9792001,2.40334 -0.3733,1.10138 -0.62399,1.45347 -1.083,1.52105 -0.54752,0.0806 -0.58133,0.0154 -0.40593,-0.7832 0.33644,-1.53179 1.10874,-3.04421 1.85374,-3.63023 1.2733301,-1.0016 3.6303401,-0.65178 4.4944701,0.66707 l 0.40993,0.62563 1.06668,-0.8572 c 0.92387,-0.74244 1.30341,-0.8685 2.83492,-0.94158 1.98126,-0.0945 2.86638,0.2339 3.45459,1.28186 0.49145,0.8756 0.2199,1.96015 -0.63028,2.5172 -1.55249,1.01724 -2.8661,-0.51323 -1.74362,-2.03147 l 0.57111,-0.77247 -1.26469,10e-4 c -2.84139,0.002 -3.93199,1.49627 -5.51299,7.55238 -0.63143,2.41873 -1.2879,4.56619 -1.45883,4.77215 -0.43332,0.52212 -1.8092101,0.48104 -2.0169101,-0.0602 z m 61.4344601,-0.0449 c -1.83374,-1.17436 -2.51354,-2.44202 -2.51354,-4.68708 0,-2.0622 0.85527,-4.0935 2.46527,-5.85509 2.41817,-2.64586 5.58571,-3.5072 7.67746,-2.0877 l 0.95615,0.64887 0.28646,-1.11189 c 0.15756,-0.61154 0.50332,-1.94532 0.76837,-2.96397 0.92152,-3.54169 0.91842,-3.30729 0.0438,-3.30729 -1.61398,0 -2.23323,-0.83607 -0.97388,-1.31487 0.74052,-0.28155 4.31602,-0.43159 4.55641,-0.1912 0.089,0.089 -0.88573,4.36361 -2.16613,9.49907 -2.46974,9.90573 -2.57859,10.79242 -1.32495,10.79242 0.81856,0 1.56315,-0.95234 2.00722,-2.56722 0.37222,-1.35361 0.65687,-1.69871 1.22221,-1.48176 0.6734,0.2584 -0.61458,3.7339 -1.70021,4.58785 -1.20371,0.94685 -3.58946,0.56762 -4.42193,-0.70288 l -0.40074,-0.61162 -1.2475,0.84192 c -1.60323,1.08201 -3.98154,1.31484 -5.23447,0.51244 z m 4.0783,-1.0963 c 1.74863,-0.89209 2.25172,-1.76318 3.18423,-5.51352 0.80965,-3.25621 0.83163,-3.47307 0.43062,-4.24854 -1.08657,-2.1012 -3.96395,-1.74949 -5.54799,0.67815 -1.71216,2.62399 -2.49982,7.79832 -1.37655,9.04298 0.64352,0.71306 1.96029,0.72934 3.30969,0.0409 z m 91.283648,-7.92875 c -1.13509,-1.13509 -1.02785,-2.15176 0.68262,-6.47123 0.79992,-2.02002 1.45439,-4.07384 1.45439,-4.56406 0,-0.80078 -0.0756,-0.89131 -0.74424,-0.89131 -0.93703,0 -1.95043,1.02976 -2.66894,2.71198 -0.38946,0.91189 -0.68455,1.25677 -1.07534,1.25677 -0.69165,0 -0.67538,-0.35652 0.0914,-2.00313 0.86183,-1.85086 2.3296,-3.02396 3.78354,-3.02396 0.61484,0 1.41542,0.13556 1.77906,0.30125 0.60592,0.27608 1.4804,1.63824 1.4804,2.306 0,0.15307 -0.71438,2.12526 -1.5875,4.38265 -0.87313,2.2574 -1.5875,4.46565 -1.5875,4.90723 0,0.70383 0.0918,0.80287 0.74424,0.80287 0.93007,0 1.94533,-1.01993 2.6887,-2.70102 0.62447,-1.41224 0.80857,-1.58971 1.32075,-1.27318 0.57689,0.35655 -0.39942,2.57802 -1.71755,3.90806 -1.02708,1.03635 -1.22245,1.12448 -2.4925,1.12448 -1.17039,0 -1.49466,-0.11657 -2.15149,-0.7734 z m 11.74319,0.3387 c -0.0918,-0.23908 0.40497,-2.78367 1.10381,-5.65463 1.36332,-5.60058 1.4101,-6.61067 0.30618,-6.61067 -0.8304,0 -1.39835,0.68966 -1.97919,2.40334 -0.3733,1.10138 -0.62399,1.45347 -1.08299,1.52105 -0.54833,0.0807 -0.58164,0.0157 -0.40656,-0.79375 0.28278,-1.30745 1.35559,-3.30021 2.03157,-3.77368 1.3239,-0.92731 3.84194,-0.28359 4.47371,1.14368 l 0.34409,0.77735 0.77444,-0.65164 c 1.42277,-1.19718 2.69904,-1.68469 4.41052,-1.68469 4.05707,0 4.86569,2.21609 2.90783,7.96908 -1.25736,3.69464 -1.3521,4.73092 -0.43257,4.73092 0.95573,0 2.0248,-1.0032 2.70277,-2.53622 0.67961,-1.53669 0.89998,-1.76255 1.41134,-1.4465 0.79426,0.49088 -1.09625,3.85456 -2.60485,4.63469 -1.2152,0.62841 -2.75063,0.52211 -3.67334,-0.25431 -1.21034,-1.01842 -1.21518,-1.58339 -0.0439,-5.11179 1.33376,-4.01774 1.53765,-5.36169 0.94966,-6.25909 -0.35448,-0.54101 -0.65198,-0.66844 -1.56051,-0.66844 -1.54416,0 -2.76452,0.72218 -4.09196,2.42149 -1.00328,1.28433 -1.23849,1.87994 -2.16353,5.47866 -0.57081,2.22072 -1.1802,4.20916 -1.35414,4.41876 -0.43772,0.52742 -1.81342,0.49095 -2.02239,-0.0536 z m 23.05891,-0.0449 c -4.93106,-2.32173 -3.55031,-9.71604 2.33416,-12.49986 1.30995,-0.61971 2.00625,-0.77852 3.41426,-0.77869 2.90801,-2.6e-4 4.18441,0.80092 4.18441,2.62673 0,1.52909 -1.21848,2.49327 -2.37125,1.87633 -0.74001,-0.39605 -0.71183,-1.67596 0.0526,-2.38813 0.50271,-0.46836 0.53258,-0.58874 0.19844,-0.80001 -0.58312,-0.36868 -2.79948,-0.30876 -3.78325,0.10228 -2.02007,0.84404 -3.59466,3.34783 -4.16497,6.62277 -0.35602,2.04451 -0.0527,3.30228 0.99515,4.12652 1.49141,1.17315 5.49852,0.41505 7.68112,-1.45319 1.13832,-0.97435 1.51268,-1.10649 1.80317,-0.63648 0.289,0.4676 -1.48844,2.10858 -3.05684,2.82216 -2.0215,0.91972 -5.72955,1.11287 -7.287,0.37957 z m 54.912,-1.90167 c 0,-0.14552 -0.35719,-0.26459 -0.79375,-0.26459 -0.43656,0 -0.79375,-0.11906 -0.79375,-0.26458 0,-0.14552 -0.23812,-0.26458 -0.52917,-0.26458 -0.29104,0 -0.52916,-0.11906 -0.52916,-0.26459 0,-0.14552 -0.35719,-0.26458 -0.79375,-0.26458 -0.43657,0 -0.79375,-0.11906 -0.79375,-0.26458 0,-0.14552 -0.23813,-0.26459 -0.52917,-0.26459 -0.29104,0 -0.52917,-0.11906 -0.52917,-0.26458 0,-0.14552 -0.35718,-0.26458 -0.79375,-0.26458 -0.43656,0 -0.79375,-0.11906 -0.79375,-0.26459 0,-0.14552 -0.23812,-0.26458 -0.52916,-0.26458 -0.29104,0 -0.52917,-0.11906 -0.52917,-0.26458 0,-0.14552 -0.35719,-0.26459 -0.79375,-0.26459 -0.43656,0 -0.79375,-0.11906 -0.79375,-0.26458 0,-0.14552 -0.23812,-0.26458 -0.52917,-0.26458 -0.29104,0 -0.52916,-0.11906 -0.52916,-0.26459 0,-0.14552 -0.23813,-0.26458 -0.52917,-0.26458 -0.29104,0 -0.52917,-0.11906 -0.52917,-0.26458 0,-0.14552 -0.35718,-0.26459 -0.79375,-0.26459 -0.43656,0 -0.79375,-0.11906 -0.79375,-0.26458 0,-0.14552 -0.23812,-0.26458 -0.52916,-0.26458 -0.29105,0 -0.52917,-0.11906 -0.52917,-0.26459 0,-0.14552 -0.35719,-0.26458 -0.79375,-0.26458 -0.43656,0 -0.79375,-0.11906 -0.79375,-0.26458 0,-0.14552 -0.23813,-0.26459 -0.52917,-0.26459 -0.29104,0 -0.52916,-0.11906 -0.52916,-0.26458 0,-0.14552 -0.35719,-0.26458 -0.79375,-0.26458 -0.43657,0 -0.79375,-0.11906 -0.79375,-0.26459 0,-0.14552 -0.23813,-0.26458 -0.52917,-0.26458 -0.29104,0 -0.52917,-0.11906 -0.52917,-0.26458 0,-0.14552 -0.35718,-0.26459 -0.79375,-0.26459 -0.43656,0 -0.79375,-0.11906 -0.79375,-0.26458 0,-0.14552 -0.23812,-0.26458 -0.52916,-0.26458 -0.29105,0 -0.52917,-0.11906 -0.52917,-0.26459 0,-0.14552 -0.35719,-0.26458 -0.79375,-0.26458 -0.43656,0 -0.79375,-0.11906 -0.79375,-0.26458 0,-0.14552 -0.23813,-0.26459 -0.52917,-0.26459 -0.29104,0 -0.52916,-0.11906 -0.52916,-0.26458 0,-0.14552 -0.23813,-0.26458 -0.52917,-0.26458 -0.44098,0 -0.52917,-0.17639 -0.52917,-1.05834 0,-0.88194 0.0882,-1.05833 0.52917,-1.05833 0.29104,0 0.52917,0.11906 0.52917,0.26458 0,0.14553 0.35718,0.26459 0.79375,0.26459 0.43656,0 0.79375,0.11906 0.79375,0.26458 0,0.14552 0.23812,0.26458 0.52916,0.26458 0.29104,0 0.52917,0.11907 0.52917,0.26459 0,0.14552 0.35719,0.26458 0.79375,0.26458 0.43656,0 0.79375,0.11906 0.79375,0.26458 0,0.14553 0.23812,0.26459 0.52917,0.26459 0.29104,0 0.52916,0.11906 0.52916,0.26458 0,0.14552 0.35719,0.26458 0.79375,0.26458 0.43657,0 0.79375,0.11907 0.79375,0.26459 0,0.14552 0.23813,0.26458 0.52917,0.26458 0.29104,0 0.52917,0.11906 0.52917,0.26458 0,0.14553 0.35718,0.26459 0.79375,0.26459 0.43656,0 0.79375,0.11906 0.79375,0.26458 0,0.14552 0.23812,0.26458 0.52916,0.26458 0.29104,0 0.52917,0.11907 0.52917,0.26459 0,0.14552 0.23812,0.26458 0.52917,0.26458 0.29104,0 0.52916,0.11906 0.52916,0.26458 0,0.14553 0.35719,0.26459 0.79375,0.26459 0.43657,0 0.79375,0.11906 0.79375,0.26458 0,0.14552 0.23813,0.26458 0.52917,0.26458 0.29104,0 0.52917,0.11907 0.52917,0.26459 0,0.14552 0.35718,0.26458 0.79375,0.26458 0.43656,0 0.79375,0.11906 0.79375,0.26458 0,0.14553 0.23812,0.26459 0.52916,0.26459 0.29105,0 0.52917,0.11906 0.52917,0.26458 0,0.14552 0.35719,0.26458 0.79375,0.26458 0.43656,0 0.79375,0.11907 0.79375,0.26459 0,0.14552 0.23813,0.26458 0.52917,0.26458 0.29104,0 0.52916,0.11906 0.52916,0.26458 0,0.14553 0.35719,0.26459 0.79375,0.26459 0.43657,0 0.79375,0.11906 0.79375,0.26458 0,0.14552 0.23813,0.26458 0.52917,0.26458 0.29104,0 0.52917,0.11907 0.52917,0.26459 0,0.14552 0.35718,0.26458 0.79375,0.26458 0.43656,0 0.79375,0.11906 0.79375,0.26458 0,0.14553 0.23812,0.26459 0.52916,0.26459 0.29105,0 0.52917,0.11906 0.52917,0.26458 0,0.14552 0.23813,0.26458 0.52917,0.26458 0.44098,0 0.52916,0.17639 0.52916,1.05834 0,0.88194 -0.0882,1.05833 -0.52916,1.05833 -0.29104,0 -0.52917,-0.11906 -0.52917,-0.26458 z m 22.88646,-3.74349 c -2.05973,-0.75976 -3.30729,-2.43173 -3.30729,-4.43244 0,-1.35609 0.70694,-2.14282 1.9255,-2.14282 1.12885,0 1.95882,0.60076 2.17221,1.57231 0.21211,0.96572 -0.18997,1.75125 -1.21566,2.375 l -0.78832,0.47942 1.00364,0.48215 c 1.58454,0.76117 4.17761,0.66627 5.66854,-0.20747 2.62504,-1.53837 3.90258,-4.65165 4.30374,-10.48782 l 0.13404,-1.94995 -0.74507,1.17488 c -1.37303,2.16504 -3.0062,2.99221 -5.54516,2.80856 -2.95268,-0.21357 -5.54964,-2.15294 -7.02075,-5.24292 -0.76811,-1.61344 -0.81875,-1.90794 -0.81875,-4.7625 0,-2.82981 0.0525,-3.14235 0.74985,-4.4669 1.82605,-3.46815 4.80052,-5.41087 8.2845,-5.41087 4.18219,0 7.01845,2.73733 8.45281,8.15798 0.3833,1.44849 0.49167,2.83226 0.49731,6.35 0.006,3.9871 -0.0632,4.72328 -0.61217,6.48229 -1.28447,4.11536 -3.53494,7.14234 -6.40427,8.61403 -1.18276,0.60665 -1.84864,0.75454 -3.69199,0.82 -1.23693,0.0439 -2.60615,-0.0519 -3.04271,-0.21293 z m 5.48188,-11.61399 c 3.01984,-0.83869 4.36335,-3.94785 4.09752,-9.48253 -0.21193,-4.4129 -0.88318,-6.15039 -2.81096,-7.27629 -2.71979,-1.58844 -6.21353,0.48036 -6.82382,4.04069 -0.33454,1.95157 -0.22841,7.69395 0.16815,9.09865 0.60131,2.13004 2.04081,3.43896 4.25286,3.86715 0.0728,0.0141 0.57507,-0.0974 1.11625,-0.24767 z m 18.27098,11.48025 c -1.65108,-0.58464 -3.62524,-2.49394 -4.55797,-4.40825 -1.40624,-2.88611 -1.71448,-4.75721 -1.70792,-10.36765 0.007,-5.58794 0.30671,-7.40919 1.70387,-10.33665 3.14441,-6.58855 11.96488,-6.53461 15.07985,0.0922 1.33815,2.84679 1.66108,4.87022 1.65608,10.37672 -0.005,5.70879 -0.39751,7.96784 -1.84595,10.62908 -0.92993,1.70859 -2.92206,3.49461 -4.49614,4.03095 -1.52577,0.51989 -4.33962,0.51196 -5.83182,-0.0164 z m 4.88837,-1.18191 c 0.65222,-0.31573 1.43592,-0.98119 1.79168,-1.52135 1.25423,-1.9043 1.51098,-3.60917 1.64589,-10.92861 0.14121,-7.66083 -0.10205,-10.37495 -1.10768,-12.35948 -2.11066,-4.16517 -7.13084,-3.76871 -8.92291,0.70466 -0.5882,1.46822 -0.60706,1.77615 -0.61193,9.98163 -0.006,9.2181 0.1197,10.29486 1.43859,12.37453 0.80878,1.27533 2.52368,2.30928 3.83067,2.30963 0.42698,1.2e-4 1.29804,-0.25234 1.93569,-0.56101 z m -167.87864,0.42606 c -2.57059,-1.30675 -3.86805,-3.71938 -3.82344,-7.10975 0.0528,-4.01531 2.3255,-7.94945 6.08745,-10.53774 3.12965,-2.15327 7.39085,-2.41363 9.84684,-0.60165 2.01809,1.48888 3.03398,3.87964 3.33328,7.84423 l 0.17978,2.38158 0.79843,-1.27857 c 1.05373,-1.68736 2.21729,-4.27092 2.85854,-6.34698 0.40592,-1.31425 0.63092,-1.67846 1.03695,-1.67846 0.36748,0 0.51853,0.18063 0.51853,0.62004 0,1.60822 -2.28243,6.67075 -4.15319,9.21201 -1.08693,1.4765 -1.13847,1.63072 -1.13847,3.40636 0,1.8774 0.5204,3.69492 1.05796,3.69492 0.69289,0 1.78604,-0.82515 2.26062,-1.70642 0.53642,-0.99605 1.2363,-1.16067 1.39656,-0.32849 0.1184,0.61484 -1.09099,2.19046 -2.06984,2.69665 -1.12744,0.58302 -2.68174,0.49951 -3.69869,-0.19871 -0.72102,-0.49505 -1.09638,-1.01163 -2.03809,-2.80485 -0.0268,-0.0511 -0.4446,0.20905 -0.92839,0.57806 -0.48379,0.36901 -1.8128,1.11408 -2.95331,1.65571 -1.84793,0.87758 -2.35172,0.99695 -4.62785,1.09659 -2.36215,0.1034 -2.65867,0.0587 -3.94367,-0.59453 z m 6.90139,-1.05404 c 1.28834,-0.4374 3.85882,-1.8822 4.8205,-2.70947 0.52414,-0.45088 0.53705,-0.64458 0.3756,-5.62633 -0.18031,-5.56351 -0.4024,-6.56989 -1.76339,-7.99079 -2.39975,-2.50539 -7.31634,0.12109 -9.12379,4.87399 -1.43909,3.78423 -1.97985,8.38428 -1.16888,9.94296 0.40257,0.77375 1.37417,1.74052 2.00951,1.99954 0.63781,0.26002 3.49015,-0.0281 4.85045,-0.4899 z m 109.44956,-2.77955 c 0,-0.14552 -0.35719,-0.26458 -0.79375,-0.26458 -0.43656,0 -0.79375,-0.11906 -0.79375,-0.26459 0,-0.14552 -0.23812,-0.26458 -0.52917,-0.26458 -0.29104,0 -0.52916,-0.11906 -0.52916,-0.26458 0,-0.14552 -0.23813,-0.26459 -0.52917,-0.26459 -0.29104,0 -0.52917,-0.11906 -0.52917,-0.26458 0,-0.14552 -0.35718,-0.26458 -0.79375,-0.26458 -0.43656,0 -0.79375,-0.11906 -0.79375,-0.26459 0,-0.14552 -0.23812,-0.26458 -0.52916,-0.26458 -0.29104,0 -0.52917,-0.11906 -0.52917,-0.26458 0,-0.14552 -0.23812,-0.26459 -0.52917,-0.26459 -0.29104,0 -0.52916,-0.11906 -0.52916,-0.26458 0,-0.14552 -0.35719,-0.26458 -0.79375,-0.26458 -0.43657,0 -0.79375,-0.11906 -0.79375,-0.26459 0,-0.14552 -0.23813,-0.26458 -0.52917,-0.26458 -0.29104,0 -0.52917,-0.11906 -0.52917,-0.26458 0,-0.14552 -0.23812,-0.26459 -0.52916,-0.26459 -0.29104,0 -0.52917,-0.11906 -0.52917,-0.26458 0,-0.14552 -0.35719,-0.26458 -0.79375,-0.26458 -0.43656,0 -0.79375,-0.11906 -0.79375,-0.26459 0,-0.14552 -0.23813,-0.26458 -0.52917,-0.26458 -0.29104,0 -0.52916,-0.11906 -0.52916,-0.26458 0,-0.14552 -0.23813,-0.26459 -0.52917,-0.26459 -0.29104,0 -0.52917,-0.11906 -0.52917,-0.26458 0,-0.14552 -0.35718,-0.26458 -0.79375,-0.26458 -0.43656,0 -0.79375,-0.11906 -0.79375,-0.26459 0,-0.14552 -0.23812,-0.26458 -0.52916,-0.26458 -0.29105,0 -0.52917,-0.11906 -0.52917,-0.26458 0,-0.14552 -0.23813,-0.26459 -0.52917,-0.26459 -0.29104,0 -0.52916,-0.11906 -0.52916,-0.26458 0,-0.14552 -0.35719,-0.26458 -0.79375,-0.26458 -0.43657,0 -0.79375,-0.11906 -0.79375,-0.26459 0,-0.14552 -0.23813,-0.26458 -0.52917,-0.26458 -0.29104,0 -0.52917,-0.11906 -0.52917,-0.26458 0,-0.14552 -0.23812,-0.26459 -0.52916,-0.26459 -0.29105,0 -0.52917,-0.11906 -0.52917,-0.26458 0,-0.14552 -0.35719,-0.26458 -0.79375,-0.26458 -0.43656,0 -0.79375,-0.11906 -0.79375,-0.26459 0,-0.14552 -0.23813,-0.26458 -0.52917,-0.26458 -0.29104,0 -0.52916,-0.11906 -0.52916,-0.26458 0,-0.14552 -0.23813,-0.26459 -0.52917,-0.26459 -0.35277,0 -0.52917,-0.17639 -0.52917,-0.52916 0,-0.35278 0.1764,-0.52917 0.52917,-0.52917 0.29104,0 0.52917,-0.11906 0.52917,-0.26458 0,-0.14552 0.23812,-0.26459 0.52916,-0.26459 0.29104,0 0.52917,-0.11906 0.52917,-0.26458 0,-0.14552 0.35719,-0.26458 0.79375,-0.26458 0.43656,0 0.79375,-0.11906 0.79375,-0.26459 0,-0.14552 0.23812,-0.26458 0.52917,-0.26458 0.29104,0 0.52916,-0.11906 0.52916,-0.26458 0,-0.14552 0.23813,-0.26459 0.52917,-0.26459 0.29104,0 0.52917,-0.11906 0.52917,-0.26458 0,-0.14552 0.35718,-0.26458 0.79375,-0.26458 0.43656,0 0.79375,-0.11906 0.79375,-0.26459 0,-0.14552 0.23812,-0.26458 0.52916,-0.26458 0.29104,0 0.52917,-0.11906 0.52917,-0.26458 0,-0.14552 0.23812,-0.26459 0.52917,-0.26459 0.29104,0 0.52916,-0.11906 0.52916,-0.26458 0,-0.14552 0.35719,-0.26458 0.79375,-0.26458 0.43657,0 0.79375,-0.11906 0.79375,-0.26459 0,-0.14552 0.23813,-0.26458 0.52917,-0.26458 0.29104,0 0.52917,-0.11906 0.52917,-0.26458 0,-0.14552 0.23812,-0.26459 0.52916,-0.26459 0.29104,0 0.52917,-0.11906 0.52917,-0.26458 0,-0.14552 0.35719,-0.26458 0.79375,-0.26458 0.43656,0 0.79375,-0.11906 0.79375,-0.26459 0,-0.14552 0.23813,-0.26458 0.52917,-0.26458 0.29104,0 0.52916,-0.11906 0.52916,-0.26458 0,-0.14552 0.23813,-0.26459 0.52917,-0.26459 0.29104,0 0.52917,-0.11906 0.52917,-0.26458 0,-0.14552 0.35718,-0.26458 0.79375,-0.26458 0.43656,0 0.79375,-0.11906 0.79375,-0.26459 0,-0.14552 0.23812,-0.26458 0.52916,-0.26458 0.29105,0 0.52917,-0.11906 0.52917,-0.26458 0,-0.14552 0.23813,-0.26459 0.52917,-0.26459 0.29104,0 0.52916,-0.11906 0.52916,-0.26458 0,-0.14552 0.35719,-0.26458 0.79375,-0.26458 0.43657,0 0.79375,-0.11906 0.79375,-0.26459 0,-0.14552 0.23813,-0.26458 0.52917,-0.26458 0.29104,0 0.52917,-0.11906 0.52917,-0.26458 0,-0.14552 0.23812,-0.26459 0.52916,-0.26459 0.29105,0 0.52917,-0.11906 0.52917,-0.26458 0,-0.14552 0.35719,-0.26458 0.79375,-0.26458 0.43656,0 0.79375,-0.11906 0.79375,-0.26459 0,-0.14552 0.23813,-0.26458 0.52917,-0.26458 0.44098,0 0.52916,0.17639 0.52916,1.05833 0,0.88195 -0.0882,1.05834 -0.52916,1.05834 -0.29104,0 -0.52917,0.11906 -0.52917,0.26458 0,0.14552 -0.23812,0.26458 -0.52917,0.26458 -0.29104,0 -0.52916,0.11907 -0.52916,0.26459 0,0.14552 -0.35719,0.26458 -0.79375,0.26458 -0.43657,0 -0.79375,0.11906 -0.79375,0.26458 0,0.14553 -0.23813,0.26459 -0.52917,0.26459 -0.29104,0 -0.52917,0.11906 -0.52917,0.26458 0,0.14552 -0.23812,0.26458 -0.52916,0.26458 -0.29104,0 -0.52917,0.11907 -0.52917,0.26459 0,0.14552 -0.35719,0.26458 -0.79375,0.26458 -0.43656,0 -0.79375,0.11906 -0.79375,0.26458 0,0.14553 -0.23812,0.26459 -0.52917,0.26459 -0.29104,0 -0.52916,0.11906 -0.52916,0.26458 0,0.14552 -0.23813,0.26458 -0.52917,0.26458 -0.29104,0 -0.52917,0.11907 -0.52917,0.26459 0,0.14552 -0.35718,0.26458 -0.79375,0.26458 -0.43656,0 -0.79375,0.11906 -0.79375,0.26458 0,0.14553 -0.23812,0.26459 -0.52916,0.26459 -0.29104,0 -0.52917,0.11906 -0.52917,0.26458 0,0.14552 -0.23812,0.26458 -0.52917,0.26458 -0.29104,0 -0.52916,0.11907 -0.52916,0.26459 0,0.14552 -0.35719,0.26458 -0.79375,0.26458 -0.43657,0 -0.79375,0.11906 -0.79375,0.26458 0,0.14553 -0.23813,0.26459 -0.52917,0.26459 -0.29104,0 -0.52917,0.11906 -0.52917,0.26458 0,0.14552 -0.23812,0.26458 -0.52916,0.26458 -0.29105,0 -0.52917,0.11907 -0.52917,0.26459 0,0.14552 -0.23813,0.26458 -0.52917,0.26458 -0.29104,0 -0.52916,0.11906 -0.52916,0.26458 0,0.14553 -0.35719,0.26459 -0.79375,0.26459 -0.43657,0 -0.79375,0.11906 -0.79375,0.26458 0,0.14552 -0.23813,0.26458 -0.52917,0.26458 -0.29104,0 -0.52917,0.11907 -0.52917,0.26459 0,0.14552 -0.23812,0.26458 -0.52916,0.26458 -0.35277,0 -0.52917,0.17639 -0.52917,0.52917 0,0.35277 0.1764,0.52916 0.52917,0.52916 0.29104,0 0.52916,0.11907 0.52916,0.26459 0,0.14552 0.23813,0.26458 0.52917,0.26458 0.29104,0 0.52917,0.11906 0.52917,0.26458 0,0.14553 0.35718,0.26459 0.79375,0.26459 0.43656,0 0.79375,0.11906 0.79375,0.26458 0,0.14552 0.23812,0.26458 0.52916,0.26458 0.29104,0 0.52917,0.11907 0.52917,0.26459 0,0.14552 0.23812,0.26458 0.52917,0.26458 0.29104,0 0.52916,0.11906 0.52916,0.26458 0,0.14553 0.23813,0.26459 0.52917,0.26459 0.29104,0 0.52917,0.11906 0.52917,0.26458 0,0.14552 0.35718,0.26458 0.79375,0.26458 0.43656,0 0.79375,0.11907 0.79375,0.26459 0,0.14552 0.23812,0.26458 0.52916,0.26458 0.29105,0 0.52917,0.11906 0.52917,0.26458 0,0.14553 0.23813,0.26459 0.52917,0.26459 0.29104,0 0.52916,0.11906 0.52916,0.26458 0,0.14552 0.35719,0.26458 0.79375,0.26458 0.43657,0 0.79375,0.11907 0.79375,0.26459 0,0.14552 0.23813,0.26458 0.52917,0.26458 0.29104,0 0.52917,0.11906 0.52917,0.26458 0,0.14553 0.23812,0.26459 0.52916,0.26459 0.29105,0 0.52917,0.11906 0.52917,0.26458 0,0.14552 0.35719,0.26458 0.79375,0.26458 0.43656,0 0.79375,0.11907 0.79375,0.26459 0,0.14552 0.23813,0.26458 0.52917,0.26458 0.29104,0 0.52916,0.11906 0.52916,0.26458 0,0.14553 0.23813,0.26459 0.52917,0.26459 0.29104,0 0.52917,0.11906 0.52917,0.26458 0,0.14552 0.35718,0.26458 0.79375,0.26458 0.43656,0 0.79375,0.11907 0.79375,0.26459 0,0.14552 0.23812,0.26458 0.52916,0.26458 0.29105,0 0.52917,0.11906 0.52917,0.26458 0,0.14553 0.23813,0.26459 0.52917,0.26459 0.44098,0 0.52916,0.17639 0.52916,1.05833 0,0.88194 -0.0882,1.05833 -0.52916,1.05833 -0.29104,0 -0.52917,-0.11906 -0.52917,-0.26458 z M 6.1988019,413.24659 v -0.92605 h 39.2906301 39.29063 v 0.92605 0.92604 H 45.489432 6.1988019 Z M 169.19146,412.60252 c -0.41315,-0.77198 -0.33552,-1.19017 0.33848,-1.82336 1.06079,-0.99657 2.56262,-0.63197 2.56262,0.62214 0,1.34492 -2.3119,2.30217 -2.9011,1.20122 z M 40.726932,406.54928 c -1.83374,-1.17436 -2.51354,-2.44202 -2.51354,-4.68708 0,-2.0622 0.85527,-4.0935 2.46527,-5.85509 2.41816,-2.64586 5.58571,-3.5072 7.67746,-2.0877 l 0.95615,0.64887 0.28646,-1.11189 c 0.15756,-0.61154 0.50332,-1.94533 0.76836,-2.96397 0.92153,-3.54169 0.91843,-3.30729 0.0438,-3.30729 -1.61398,0 -2.23323,-0.83607 -0.97388,-1.31487 0.74052,-0.28155 4.31602,-0.43159 4.55641,-0.1912 0.089,0.089 -0.88573,4.36361 -2.16613,9.49907 -2.46974,9.90573 -2.57859,10.79241 -1.32495,10.79241 0.81856,0 1.56315,-0.95233 2.00722,-2.56721 0.37222,-1.35361 0.65687,-1.69871 1.22221,-1.48176 0.6734,0.2584 -0.61458,3.7339 -1.70021,4.58785 -1.20372,0.94685 -3.58946,0.56762 -4.42193,-0.70289 l -0.40075,-0.61161 -1.24749,0.84192 c -1.60323,1.08201 -3.98154,1.31483 -5.23447,0.51244 z m 4.0783,-1.0963 c 1.74863,-0.89209 2.25172,-1.76318 3.18423,-5.51352 0.80965,-3.25621 0.83163,-3.47307 0.43062,-4.24854 -1.08657,-2.1012 -3.96395,-1.74949 -5.54799,0.67815 -1.71217,2.62399 -2.49982,7.79832 -1.37655,9.04298 0.64352,0.71306 1.96029,0.72934 3.30969,0.0409 z m 278.628998,1.31131 c 0,-0.14552 -0.23812,-0.26458 -0.52916,-0.26458 -0.29104,0 -0.52917,-0.11906 -0.52917,-0.26458 0,-0.14552 -0.18256,-0.26459 -0.40568,-0.26459 -0.52663,0 -2.24015,-1.71351 -2.24015,-2.24014 0,-0.22313 -0.11907,-0.40569 -0.26459,-0.40569 -0.14552,0 -0.26458,-0.23812 -0.26458,-0.52917 0,-0.29104 -0.11906,-0.52916 -0.26458,-0.52916 -0.15119,0 -0.26459,-0.79375 -0.26459,-1.85209 0,-1.05833 0.1134,-1.85208 0.26459,-1.85208 0.14552,0 0.26458,-0.23812 0.26458,-0.52917 0,-0.29104 0.11906,-0.52916 0.26458,-0.52916 0.14552,0 0.26459,-0.18256 0.26459,-0.4057 0,-0.52663 1.71352,-2.24014 2.24015,-2.24014 0.22312,0 0.40568,-0.11906 0.40568,-0.26458 0,-0.14552 0.23813,-0.26458 0.52917,-0.26458 0.29104,0 0.52916,-0.11907 0.52916,-0.26459 0,-0.15119 0.79375,-0.26458 1.85209,-0.26458 1.05833,0 1.85208,0.11339 1.85208,0.26458 0,0.14552 0.23813,0.26459 0.52917,0.26459 0.29104,0 0.52916,0.11906 0.52916,0.26458 0,0.14552 0.18257,0.26458 0.40569,0.26458 0.52663,0 2.24015,1.71351 2.24015,2.24014 0,0.22314 0.11906,0.4057 0.26458,0.4057 0.14552,0 0.26458,0.23812 0.26458,0.52916 0,0.29105 0.11907,0.52917 0.26459,0.52917 0.15118,0 0.26458,0.79375 0.26458,1.85208 0,1.05834 -0.1134,1.85209 -0.26458,1.85209 -0.14552,0 -0.26459,0.23812 -0.26459,0.52916 0,0.29105 -0.11906,0.52917 -0.26458,0.52917 -0.14552,0 -0.26458,0.18256 -0.26458,0.40569 0,0.52663 -1.71352,2.24014 -2.24015,2.24014 -0.22312,0 -0.40569,0.11907 -0.40569,0.26459 0,0.14552 -0.23812,0.26458 -0.52916,0.26458 -0.29104,0 -0.52917,0.11906 -0.52917,0.26458 0,0.1512 -0.79375,0.26459 -1.85208,0.26459 -1.05834,0 -1.85209,-0.11339 -1.85209,-0.26459 z m 3.175,-1.5875 c 0,-0.14552 0.23813,-0.26458 0.52917,-0.26458 0.29104,0 0.52917,-0.11906 0.52917,-0.26458 0,-0.14552 0.18708,-0.26459 0.41576,-0.26459 0.53475,0 1.17174,-0.63699 1.17174,-1.17172 0,-0.22868 0.11906,-0.41578 0.26458,-0.41578 0.14552,0 0.26458,-0.23812 0.26458,-0.52916 0,-0.29104 0.11907,-0.52917 0.26459,-0.52917 0.14552,0 0.26458,-0.59531 0.26458,-1.32292 0,-0.7276 -0.11906,-1.32291 -0.26458,-1.32291 -0.14552,0 -0.26459,-0.23813 -0.26459,-0.52917 0,-0.29104 -0.11906,-0.52917 -0.26458,-0.52917 -0.14552,0 -0.26458,-0.18709 -0.26458,-0.41577 0,-0.53473 -0.63699,-1.17173 -1.17174,-1.17173 -0.22868,0 -0.41576,-0.11906 -0.41576,-0.26458 0,-0.14552 -0.23813,-0.26458 -0.52917,-0.26458 -0.29104,0 -0.52917,-0.11906 -0.52917,-0.26459 0,-0.14552 -0.59531,-0.26458 -1.32291,-0.26458 -0.72761,0 -1.32292,0.11906 -1.32292,0.26458 0,0.14553 -0.23812,0.26459 -0.52917,0.26459 -0.29104,0 -0.52916,0.11906 -0.52916,0.26458 0,0.14552 -0.18709,0.26458 -0.41577,0.26458 -0.53475,0 -1.17173,0.637 -1.17173,1.17173 0,0.22868 -0.11907,0.41577 -0.26459,0.41577 -0.14552,0 -0.26458,0.23813 -0.26458,0.52917 0,0.29104 -0.11906,0.52917 -0.26458,0.52917 -0.14552,0 -0.26459,0.59531 -0.26459,1.32291 0,0.72761 0.11907,1.32292 0.26459,1.32292 0.14552,0 0.26458,0.23813 0.26458,0.52917 0,0.29104 0.11906,0.52916 0.26458,0.52916 0.14552,0 0.26459,0.1871 0.26459,0.41578 0,0.53473 0.63698,1.17172 1.17173,1.17172 0.22868,0 0.41577,0.11907 0.41577,0.26459 0,0.14552 0.23812,0.26458 0.52916,0.26458 0.29105,0 0.52917,0.11906 0.52917,0.26458 0,0.14553 0.59531,0.26459 1.32292,0.26459 0.7276,0 1.32291,-0.11906 1.32291,-0.26459 z"
       id="path700"
       inkscape:connector-curvature="0" />
  </g>
</svg>
